{"glyphs":{"0":{"ha":897,"x_min":38,"x_max":860,"o":"m 449 892 q 288 839 356 892 q 182 692 219 786 q 144 474 144 597 q 144 474 144 474 q 144 474 144 474 q 182 255 144 350 q 288 106 219 160 q 449 53 356 53 q 449 53 449 53 q 449 53 449 53 q 610 106 542 53 q 715 253 678 158 q 753 471 753 347 q 753 471 753 471 q 753 471 753 471 q 715 690 753 594 q 610 838 678 785 q 449 892 542 892 q 449 892 449 892 q 449 892 449 892 m 449 869 q 449 869 449 869 q 449 869 449 869 q 599 818 536 869 q 697 677 663 767 q 731 471 731 588 q 731 471 731 471 q 731 471 731 471 q 697 265 731 354 q 599 125 663 175 q 449 75 536 75 q 449 75 449 75 q 449 75 449 75 q 298 126 361 75 q 201 267 235 176 q 167 474 167 357 q 167 474 167 474 q 167 474 167 474 q 201 680 167 590 q 298 819 235 769 q 449 869 361 869 m 449 804 q 302 715 354 804 q 250 474 250 626 q 302 231 250 321 q 449 140 354 140 q 595 229 543 140 q 647 471 647 318 q 595 714 647 624 q 449 804 543 804 m 449 978 q 233 913 326 978 q 89 733 140 847 q 38 474 38 619 q 89 213 38 328 q 233 33 140 99 q 449 -33 326 -33 q 665 32 572 -33 q 808 211 757 97 q 860 471 860 325 q 808 732 860 618 q 665 912 757 846 q 449 978 572 978 m 449 782 q 546 743 507 782 q 605 634 585 704 q 625 471 625 564 q 580 247 625 331 q 449 163 535 163 q 352 201 392 163 q 292 310 313 240 q 272 474 272 381 q 317 698 272 614 q 449 782 363 782 m 449 956 q 653 892 567 956 q 789 720 740 829 q 838 471 838 611 q 789 223 838 332 q 653 51 740 114 q 449 -11 567 -11 q 244 52 332 -11 q 108 225 157 115 q 60 474 60 335 q 108 722 60 613 q 244 893 157 831 q 449 956 332 956 z "},"1":{"ha":544,"x_min":28,"x_max":474,"o":"m 456 954 l 439 971 l 325 860 q 325 860 325 860 q 325 860 325 860 l 213 747 l 229 731 l 342 843 q 342 843 342 843 q 342 843 342 843 l 456 954 m 456 -10 l 467 10 l 328 96 q 323 97 326 97 q 317 96 319 97 l 168 10 l 179 -10 l 328 76 q 322 79 331 79 q 317 76 314 79 l 456 -10 m 122 808 l 128 786 q 231 816 174 801 q 336 840 289 831 q 332 850 342 842 q 322 853 322 858 q 317 774 319 818 q 315 663 315 731 q 314 485 314 594 q 314 485 314 485 q 314 485 314 485 l 311 86 l 333 86 l 336 485 q 336 485 336 485 q 336 485 336 485 q 337 662 336 594 q 340 772 338 729 q 344 850 342 815 q 341 860 344 857 q 331 863 338 864 q 226 838 283 853 q 122 808 168 824 m 29 656 l 49 644 l 135 792 q 136 799 138 794 q 132 806 135 803 l 46 883 l 32 867 l 118 789 q 119 797 121 788 q 115 803 118 806 l 29 656 m 174 -11 l 461 -11 q 471 -6 468 -11 q 471 6 474 0 q 453 55 461 26 q 442 135 446 83 q 437 270 439 186 q 435 485 435 354 q 436 688 435 608 q 440 816 438 767 q 448 898 443 865 q 458 960 453 931 q 456 971 460 967 q 444 974 451 975 l 36 886 q 31 882 33 885 q 28 875 28 879 l 28 650 q 34 640 28 643 q 46 642 40 638 q 122 692 82 669 q 224 728 163 714 l 210 739 q 213 630 213 692 q 214 485 214 568 q 212 271 214 354 q 204 138 210 188 q 189 58 199 88 q 164 6 179 28 q 165 -6 161 0 q 174 -11 168 -11 m 174 11 l 183 -6 q 209 47 199 17 q 225 128 219 76 q 233 265 231 179 q 236 485 236 350 q 235 630 236 568 q 232 739 235 692 q 228 748 232 744 q 218 750 224 751 q 112 711 154 733 q 32 658 69 689 l 50 650 l 50 875 l 42 864 l 450 951 l 436 965 q 426 902 431 935 q 418 819 421 869 q 414 688 415 768 q 413 485 413 608 q 415 265 413 351 q 422 127 417 179 q 434 45 426 75 q 451 -6 442 15 l 461 11 l 174 11 z "},"2":{"ha":721,"x_min":25,"x_max":678,"o":"m 151 857 l 157 835 q 235 854 197 847 q 311 861 274 861 q 311 861 311 861 q 311 861 311 861 q 476 815 417 861 q 536 686 536 769 q 536 686 536 686 q 536 686 536 686 q 493 549 536 608 q 389 429 450 490 q 389 429 389 429 q 389 429 389 429 q 300 335 346 385 q 214 228 254 286 q 146 94 174 169 q 147 84 144 89 q 156 79 150 79 q 236 77 188 78 q 341 77 285 76 q 452 80 397 78 q 553 86 507 82 l 550 108 q 451 102 506 104 q 340 99 396 100 q 237 99 285 99 q 158 101 189 100 q 160 91 153 101 q 168 86 167 81 q 233 217 194 160 q 317 322 272 274 q 406 413 363 369 q 406 413 406 413 q 406 413 406 413 q 513 541 468 478 q 558 686 558 604 q 558 686 558 686 q 558 686 558 686 q 492 831 558 778 q 311 883 426 883 q 311 883 311 883 q 311 883 311 883 q 232 876 272 883 q 151 857 192 869 m 58 700 l 78 689 l 164 840 q 165 847 167 843 q 161 854 164 851 l 75 931 l 61 914 l 147 838 q 149 845 150 836 q 144 851 147 854 l 58 700 m 674 224 l 657 238 l 543 104 q 540 97 540 101 q 543 90 540 93 l 629 -7 l 646 7 l 560 104 q 557 97 557 107 q 560 90 557 88 l 674 224 m 31 8 l 44 -8 l 164 82 q 163 81 164 82 q 163 81 163 81 l 303 164 l 292 183 l 151 100 q 151 100 151 100 q 150 99 150 100 l 31 8 m 38 -11 l 638 -11 q 644 -8 642 -11 q 649 -1 647 -6 l 676 229 q 672 240 678 236 q 658 239 665 244 q 594 207 633 219 q 484 189 554 194 q 297 185 414 183 l 307 168 q 408 295 351 239 q 517 403 464 351 q 621 533 578 465 q 664 693 664 600 q 620 842 664 781 q 498 937 576 904 q 315 969 419 969 q 192 961 253 969 q 65 933 131 953 q 59 929 61 932 q 57 922 57 926 l 57 694 q 63 685 57 688 q 75 686 69 682 q 190 751 128 726 q 308 776 253 776 q 401 749 374 776 q 429 678 429 722 q 385 561 429 615 q 283 447 342 507 q 181 333 233 396 q 86 189 128 269 q 26 1 44 108 q 28 -8 25 -4 q 38 -11 32 -11 m 38 11 l 49 -1 q 108 181 67 103 q 200 320 149 260 q 300 431 251 381 q 407 553 363 496 q 451 678 451 610 q 417 765 451 731 q 308 799 383 799 q 183 773 249 799 q 61 703 118 747 l 79 694 l 79 922 l 71 911 q 194 939 133 931 q 315 947 256 947 q 486 918 413 947 q 601 832 560 889 q 642 693 642 775 q 601 541 642 604 q 500 419 560 478 q 390 309 447 365 q 288 179 333 253 q 288 168 285 174 q 297 163 292 163 q 492 167 419 161 q 605 188 564 174 q 672 222 646 201 l 654 232 l 626 1 l 638 11 l 38 11 z "},"3":{"ha":726,"x_min":69,"x_max":704,"o":"m 178 856 l 181 833 q 331 843 247 840 q 528 846 414 846 q 528 858 535 846 q 518 864 522 869 l 276 515 q 276 503 274 510 q 285 497 279 497 q 499 431 429 488 q 569 283 569 374 q 569 283 569 283 q 569 283 569 283 q 535 173 569 219 q 442 102 501 126 q 307 78 383 78 q 307 78 307 78 q 307 78 307 78 q 238 85 272 78 q 171 104 204 92 l 163 82 q 235 63 199 69 q 307 56 271 56 q 307 56 307 56 q 307 56 307 56 q 454 83 390 56 q 555 163 518 111 q 592 283 592 214 q 592 283 592 283 q 592 283 592 283 q 517 445 592 381 q 288 519 442 510 q 286 508 281 519 q 296 501 292 496 l 538 850 q 538 863 540 857 q 528 868 535 868 q 329 865 414 868 q 178 856 244 863 m 85 735 l 101 721 l 188 838 q 190 844 190 840 q 188 851 190 849 l 101 951 l 85 938 l 171 838 q 174 844 174 835 q 171 851 174 854 l 85 735 m 74 28 l 88 11 l 174 85 q 178 92 176 88 q 176 99 179 96 l 90 251 l 71 240 l 157 88 q 161 94 160 85 q 160 101 163 104 l 74 28 m 360 778 l 371 758 l 533 847 q 533 847 533 847 q 533 847 533 847 l 697 935 l 686 954 l 522 867 q 522 867 522 867 q 522 867 522 867 l 360 778 m 126 443 l 135 424 l 290 499 q 291 499 292 499 q 290 499 290 499 l 439 565 l 431 585 l 282 518 q 282 518 282 518 q 282 518 282 518 l 126 443 m 317 165 q 201 190 257 165 q 88 254 144 214 q 76 256 82 258 q 69 246 69 253 l 69 19 q 72 14 69 17 q 76 8 74 11 q 303 -31 192 -33 q 503 10 414 -29 q 644 120 592 49 q 697 289 697 192 q 627 480 697 400 q 438 586 557 560 l 444 568 l 701 938 q 701 950 704 944 q 692 956 699 956 l 93 956 q 85 952 89 956 q 82 944 82 949 l 82 728 q 88 719 82 722 q 99 718 93 715 q 150 738 119 729 q 232 751 181 746 q 365 757 283 756 l 356 775 l 121 440 q 122 428 118 435 q 131 422 125 422 q 327 408 254 425 q 431 358 400 392 q 463 276 463 325 q 426 194 463 224 q 317 165 389 165 m 317 143 q 442 179 399 143 q 485 276 485 215 q 452 367 485 329 q 342 426 419 406 q 131 444 265 447 l 140 426 l 375 761 q 375 774 378 768 q 365 779 372 779 q 227 772 281 778 q 142 758 174 767 q 88 738 110 749 l 104 728 l 104 944 l 93 933 l 692 933 l 682 951 l 425 582 q 424 571 422 576 q 432 564 426 565 q 609 465 543 539 q 675 289 675 392 q 624 130 675 196 q 489 28 574 64 q 299 -8 404 -7 q 85 31 194 -8 l 92 19 l 92 246 l 74 238 q 194 168 135 193 q 317 143 253 143 z "},"4":{"ha":804,"x_min":-19,"x_max":781,"o":"m 669 -10 l 681 10 l 546 96 q 541 97 544 97 q 535 96 538 97 l 400 10 l 411 -10 l 546 76 q 540 79 549 79 q 535 76 532 79 l 669 -10 m 683 283 l 683 306 l 132 306 q 133 294 126 306 q 142 289 139 283 l 435 853 q 429 851 436 856 q 425 847 422 847 l 540 847 q 537 855 544 847 q 529 858 529 863 l 529 86 l 551 86 l 551 858 q 548 866 551 863 q 540 869 544 869 l 425 869 q 419 868 422 869 q 415 864 417 867 l 122 300 q 123 289 119 294 q 132 283 126 283 l 683 283 m 389 950 l 369 939 l 415 853 q 415 855 415 851 q 414 857 414 858 l 429 706 q 438 697 431 699 q 450 701 446 694 l 550 853 q 547 851 550 854 q 546 849 544 849 l 681 935 l 669 954 l 535 868 q 533 866 533 867 q 531 864 532 865 l 431 713 q 440 703 426 707 q 451 708 453 700 l 436 860 q 436 862 436 861 q 435 864 436 863 l 389 950 m -12 225 l -1 206 l 138 285 q 138 285 138 285 q 138 285 138 285 l 276 364 l 265 383 l 126 304 q 126 304 126 304 q 126 304 126 304 l -12 225 m 778 397 l 761 411 l 675 301 q 672 294 672 299 q 675 288 672 290 l 761 179 l 778 193 l 692 301 q 690 294 690 304 q 692 288 690 285 l 778 397 m 450 382 l 436 365 l 533 286 q 533 286 533 286 q 533 286 533 286 l 635 204 l 649 221 l 547 303 q 547 303 547 303 q 547 303 547 303 l 450 382 m 432 224 l 446 207 l 547 286 q 547 286 547 286 q 547 286 547 286 l 644 368 l 631 385 l 533 303 q 533 303 533 303 q 533 303 533 303 l 432 224 m 406 -11 l 675 -11 q 685 -6 682 -11 q 685 4 688 -1 q 669 47 676 24 q 659 110 663 71 q 653 213 656 150 l 642 201 q 717 194 693 200 q 764 176 742 188 q 776 177 771 174 q 781 186 781 181 l 781 404 q 776 414 781 411 q 764 414 771 417 q 716 396 742 401 q 638 388 690 390 l 649 376 q 650 621 649 522 q 655 781 651 719 q 666 880 658 843 q 685 939 674 917 q 685 951 688 946 q 675 956 682 956 l 379 956 q 369 950 372 956 l -17 221 q -16 210 -19 215 q -7 204 -12 204 l 439 204 l 428 215 q 422 112 426 151 q 412 48 418 72 q 396 4 406 24 q 397 -6 393 -1 q 406 -11 400 -11 m 281 368 l 450 701 l 429 707 q 431 609 431 667 q 431 490 431 551 q 432 374 432 429 l 443 385 l 271 385 l 281 368 m 406 11 l 415 -4 q 432 40 425 15 q 444 107 439 65 q 450 215 449 149 q 447 223 450 219 q 439 226 444 226 l -7 226 l 3 210 l 389 939 l 379 933 l 675 933 l 665 950 q 647 890 654 926 q 634 790 639 853 q 628 626 629 726 q 626 376 626 526 q 630 368 626 371 q 638 365 633 365 q 722 375 694 368 q 775 394 750 382 l 758 404 l 758 186 l 775 196 q 724 215 751 207 q 642 224 697 222 q 634 220 638 224 q 631 213 631 217 q 638 106 633 147 q 649 40 642 65 q 665 -4 657 15 l 675 11 l 406 11 m 261 379 q 262 368 258 374 q 271 363 265 363 l 443 363 q 451 366 447 363 q 454 374 454 369 q 453 490 454 429 q 453 609 453 551 q 451 707 453 667 q 443 717 451 715 q 431 713 435 719 l 261 379 z "},"5":{"ha":732,"x_min":58,"x_max":688,"o":"m 160 104 l 151 85 q 226 63 189 71 q 300 56 264 56 q 300 56 300 56 q 300 56 300 56 q 502 120 424 56 q 581 297 581 185 q 581 297 581 297 q 581 297 581 297 q 538 430 581 375 q 406 508 494 485 q 182 513 318 532 q 185 503 176 511 q 194 500 193 494 l 228 854 q 220 851 228 858 q 217 844 213 844 l 538 843 l 538 865 l 217 867 q 209 864 213 867 q 206 857 206 861 l 172 503 q 176 493 172 497 q 185 490 179 489 q 467 461 376 517 q 558 297 558 406 q 558 297 558 297 q 558 297 558 297 q 486 135 558 193 q 300 78 414 78 q 300 78 300 78 q 300 78 300 78 q 231 85 265 78 q 160 104 196 92 m 632 936 l 615 953 l 529 863 q 527 856 528 860 q 528 847 526 851 l 614 721 l 633 735 l 547 861 q 544 854 544 864 q 546 846 543 844 l 632 936 m 63 28 l 76 11 l 163 86 q 167 93 165 89 q 165 100 168 97 l 79 251 l 60 240 l 146 89 q 150 96 149 86 q 149 103 151 106 l 63 28 m 75 411 l 92 394 l 192 493 q 191 493 192 493 q 190 493 190 493 l 289 585 l 275 601 l 176 510 q 175 510 175 510 q 175 510 175 510 l 75 411 m 292 760 l 308 774 l 225 863 q 225 863 225 863 q 225 863 225 863 l 142 951 l 125 938 l 208 849 q 208 849 208 849 q 208 849 208 849 l 292 760 m 86 392 q 301 416 221 422 q 417 378 382 410 q 453 297 453 346 q 417 199 453 233 q 308 165 381 165 q 191 190 249 165 q 76 254 133 214 q 65 256 71 258 q 58 246 58 253 l 58 19 q 60 14 58 17 q 65 8 63 11 q 294 -32 183 -33 q 494 9 406 -31 q 635 122 583 49 q 688 297 688 194 q 583 528 688 446 q 282 604 478 611 l 293 592 l 310 765 l 299 756 q 461 751 399 756 q 560 738 524 746 q 618 718 596 731 q 630 719 625 715 q 635 728 635 722 l 635 944 q 631 952 635 949 q 624 956 628 956 l 133 956 q 126 953 129 956 q 122 946 122 950 l 72 404 q 76 394 72 399 q 86 392 81 390 m 81 414 l 94 401 l 144 943 l 133 933 l 624 933 l 613 944 l 613 728 l 629 738 q 568 758 606 750 q 467 772 531 767 q 299 778 403 778 q 291 775 294 778 q 288 768 288 772 l 271 594 q 274 585 271 589 q 282 582 276 582 q 567 513 468 589 q 665 297 665 438 q 615 132 665 200 q 481 28 565 64 q 292 -8 397 -8 q 74 31 186 -8 l 81 19 l 81 246 l 63 238 q 184 168 124 193 q 308 143 244 143 q 433 184 390 143 q 475 297 475 225 q 438 388 475 350 q 315 437 401 426 q 81 414 229 447 z "},"6":{"ha":792,"x_min":38,"x_max":761,"o":"m 272 89 l 286 106 q 219 187 243 138 q 196 297 196 236 q 196 297 196 297 q 196 297 196 297 q 260 456 196 396 q 428 517 324 517 q 428 517 428 517 q 428 517 428 517 q 531 492 483 517 q 607 419 578 468 q 636 300 636 371 q 636 300 636 300 q 636 300 636 300 q 608 184 636 236 q 527 102 579 132 q 406 72 475 72 q 406 72 406 72 q 406 72 406 72 q 231 159 300 72 q 161 426 161 246 q 161 426 161 426 q 161 426 161 426 q 197 683 160 588 q 302 819 233 778 q 461 861 371 861 q 461 861 461 861 q 461 861 461 861 q 528 855 493 861 q 599 835 563 849 l 607 857 q 532 877 568 871 q 461 883 496 883 q 461 883 461 883 q 461 883 461 883 q 293 840 367 883 q 178 696 219 796 q 139 426 138 596 q 139 426 139 426 q 139 426 139 426 q 174 215 139 299 q 270 90 210 131 q 406 50 331 50 q 406 50 406 50 q 406 50 406 50 q 539 83 482 50 q 627 174 596 117 q 658 300 658 231 q 658 300 658 300 q 658 300 658 300 q 626 431 658 378 q 542 512 594 485 q 428 539 489 539 q 428 539 428 539 q 428 539 428 539 q 244 472 314 539 q 174 297 174 404 q 174 297 174 297 q 174 297 174 297 q 199 176 174 229 q 272 89 225 122 m 264 535 l 250 551 q 184 465 210 517 q 158 344 158 413 q 190 188 157 275 l 210 196 q 179 342 179 278 q 203 455 179 407 q 264 535 226 503 m 696 914 l 682 931 l 596 854 q 592 847 593 851 q 593 840 592 843 l 679 690 l 699 701 l 613 851 q 609 844 611 854 q 610 838 607 835 l 696 914 m 700 696 l 700 922 q 698 928 700 925 q 692 933 696 932 q 353 958 501 994 q 122 793 206 922 q 38 440 38 664 q 84 176 38 282 q 214 17 131 69 q 406 -36 297 -36 q 594 9 514 -36 q 717 132 674 54 q 761 304 761 210 q 716 482 761 411 q 599 588 671 553 q 449 622 528 622 q 342 604 394 622 q 250 551 290 586 l 268 543 q 328 724 276 675 q 456 774 379 774 q 567 751 510 774 q 682 688 625 728 q 694 686 689 683 q 700 696 700 689 m 407 160 q 317 199 351 160 q 283 301 283 239 q 317 398 283 361 q 407 435 351 435 q 498 397 464 435 q 532 297 532 358 q 498 199 532 238 q 407 160 464 160 m 678 696 l 696 704 q 456 796 569 796 q 354 772 400 796 q 280 694 308 749 q 246 543 251 639 q 252 533 246 536 q 264 535 258 529 q 351 583 303 567 q 449 600 399 600 q 588 568 522 600 q 697 470 654 536 q 739 304 739 404 q 698 143 739 215 q 582 28 657 71 q 406 -14 507 -14 q 155 99 250 -14 q 60 440 60 213 q 140 780 60 656 q 361 938 219 904 q 686 911 503 971 l 678 922 l 678 696 m 407 138 q 513 183 472 138 q 554 297 554 228 q 513 413 554 369 q 407 457 472 457 q 302 414 343 457 q 261 301 261 371 q 302 183 261 229 q 407 138 343 138 z "},"7":{"ha":699,"x_min":38,"x_max":711,"o":"m 264 101 l 286 93 q 337 235 304 146 q 429 481 369 325 q 429 481 429 481 q 429 481 429 481 q 501 663 465 569 q 574 853 536 756 q 574 863 576 858 q 564 868 571 868 q 342 867 425 868 q 213 865 260 867 q 133 860 167 863 l 136 838 q 192 842 161 840 q 269 844 222 843 q 388 845 317 844 q 564 846 460 846 q 564 856 571 846 q 554 861 557 867 q 483 679 519 772 q 410 489 447 586 q 410 489 410 489 q 410 489 410 489 q 315 244 349 333 q 264 101 282 154 m 389 -8 l 403 8 l 282 106 q 276 109 279 108 q 269 107 272 110 l 93 10 l 104 -10 l 281 88 q 274 91 283 90 q 268 89 265 92 l 389 -8 m 39 735 l 58 721 l 144 842 q 147 849 147 844 q 143 856 146 854 l 57 951 l 40 938 l 126 842 q 128 849 129 839 q 125 856 128 858 l 39 735 m 425 779 l 436 760 l 569 847 q 569 847 569 847 q 569 847 569 847 l 704 935 l 693 954 l 558 867 q 558 867 558 867 q 558 867 558 867 l 425 779 m 99 -11 l 396 -11 q 406 -6 403 -11 q 407 4 408 -1 q 397 60 399 29 q 408 140 396 90 q 448 272 419 190 q 526 481 476 354 q 585 628 557 558 q 642 772 613 697 q 708 940 672 847 q 708 951 711 946 q 699 956 706 956 l 49 956 q 41 952 44 956 q 38 944 38 949 l 38 728 q 43 719 38 722 q 54 718 49 715 q 97 735 72 728 q 163 747 122 742 q 269 756 204 753 q 431 758 333 758 l 421 774 q 369 638 396 710 q 313 489 342 567 q 230 279 264 363 q 172 144 196 196 q 128 61 147 92 q 90 7 110 31 q 89 -5 86 1 q 99 -11 92 -11 m 99 11 l 107 -7 q 146 48 126 17 q 190 132 165 79 q 249 269 215 185 q 332 481 283 353 q 384 616 357 544 q 440 765 411 688 q 440 776 443 771 q 431 781 438 781 q 264 777 331 781 q 155 768 197 774 q 88 755 113 763 q 43 738 63 747 l 60 728 l 60 944 l 49 933 l 699 933 l 689 949 q 626 790 658 872 q 563 631 593 708 q 507 489 532 553 q 426 274 456 358 q 385 138 396 189 q 375 54 374 86 q 385 -4 376 22 l 396 11 l 99 11 z "},"8":{"ha":789,"x_min":39,"x_max":750,"o":"m 396 506 q 249 553 307 506 q 190 692 190 601 q 190 692 190 692 q 190 692 190 692 q 249 822 190 771 q 396 872 307 872 q 396 872 396 872 q 396 872 396 872 q 541 822 483 872 q 599 692 599 771 q 599 692 599 692 q 599 692 599 692 q 542 553 599 601 q 396 506 485 506 q 396 506 396 506 q 396 506 396 506 m 396 50 q 524 78 468 50 q 613 158 581 107 q 646 272 646 208 q 646 272 646 272 q 646 272 646 272 q 613 399 646 347 q 523 478 579 451 q 396 506 467 506 q 396 506 396 506 q 396 506 396 506 q 267 478 325 506 q 176 399 210 451 q 143 272 143 347 q 143 272 143 272 q 143 272 143 272 q 176 158 143 208 q 265 78 208 107 q 396 50 322 50 q 396 50 396 50 q 396 50 396 50 m 396 483 q 396 483 396 483 q 396 483 396 483 q 557 538 493 483 q 621 692 621 592 q 621 692 621 692 q 621 692 621 692 q 592 796 621 750 q 512 868 563 842 q 396 894 461 894 q 396 894 396 894 q 396 894 396 894 q 278 868 331 894 q 197 796 226 842 q 168 692 168 750 q 168 692 168 692 q 168 692 168 692 q 233 538 168 592 q 396 483 299 483 m 396 72 q 396 72 396 72 q 396 72 396 72 q 277 98 329 72 q 195 169 225 124 q 165 272 165 214 q 165 272 165 272 q 165 272 165 272 q 231 428 165 374 q 396 483 297 483 q 396 483 396 483 q 396 483 396 483 q 513 458 461 483 q 594 387 564 433 q 624 272 624 340 q 624 272 624 272 q 624 272 624 272 q 594 169 624 214 q 513 98 564 124 q 396 72 461 72 m 181 508 l 181 486 l 396 483 q 396 483 396 483 q 396 483 396 483 l 610 486 l 610 508 l 396 506 q 396 506 396 506 q 396 506 396 506 l 181 508 m 396 -36 q 580 2 500 -36 q 705 108 660 40 q 750 263 750 176 q 713 409 750 347 q 615 507 676 471 l 615 488 q 695 575 667 522 q 724 699 724 628 q 681 842 724 779 q 565 943 639 906 q 396 981 490 981 q 226 943 301 981 q 108 842 151 906 q 65 699 65 779 q 94 575 65 628 q 175 488 124 522 l 175 507 q 76 409 113 471 q 39 263 39 347 q 85 108 39 176 q 211 2 131 40 q 396 -36 292 -36 m 396 583 q 322 611 351 583 q 293 685 293 639 q 322 758 293 731 q 396 786 350 786 q 468 758 440 786 q 496 685 496 731 q 468 611 496 639 q 396 583 440 583 m 396 158 q 306 193 343 158 q 269 283 269 228 q 306 373 269 340 q 396 406 343 406 q 484 373 449 406 q 519 283 519 340 q 484 193 519 228 q 396 158 449 158 m 396 -14 q 223 22 299 -14 q 104 119 147 57 q 61 263 61 182 q 94 397 61 340 q 186 488 128 453 q 192 497 192 490 q 186 507 192 503 q 113 586 139 538 q 88 699 88 635 q 128 832 88 774 q 238 924 168 890 q 396 958 308 958 q 553 924 483 958 q 662 832 622 890 q 701 699 701 774 q 675 586 701 635 q 604 507 649 538 q 599 497 599 503 q 604 488 599 490 q 694 397 661 453 q 728 263 728 340 q 685 119 728 182 q 567 22 642 57 q 396 -14 493 -14 m 396 561 q 483 596 449 561 q 518 685 518 631 q 483 774 518 739 q 396 808 449 808 q 306 774 342 808 q 271 685 271 739 q 307 596 271 631 q 396 561 343 561 m 396 136 q 499 177 457 136 q 542 283 542 218 q 499 389 542 350 q 396 428 457 428 q 291 389 335 428 q 247 283 247 350 q 291 177 247 218 q 396 136 335 136 z "},"9":{"ha":792,"x_min":31,"x_max":754,"o":"m 519 853 l 506 836 q 572 756 549 806 q 596 644 596 706 q 596 644 596 644 q 596 644 596 644 q 532 485 596 546 q 364 425 468 425 q 364 425 364 425 q 364 425 364 425 q 261 450 308 425 q 185 523 214 475 q 156 642 156 571 q 156 642 156 642 q 156 642 156 642 q 184 758 156 707 q 265 840 213 810 q 386 869 317 869 q 386 869 386 869 q 386 869 386 869 q 562 783 493 869 q 631 515 631 696 q 631 515 631 515 q 631 515 631 515 q 596 260 633 356 q 490 122 558 164 q 331 81 422 81 q 331 81 331 81 q 331 81 331 81 q 264 87 299 81 q 193 107 229 93 l 185 85 q 260 65 224 71 q 331 58 296 58 q 331 58 331 58 q 331 58 331 58 q 499 102 426 58 q 614 247 572 146 q 653 515 656 347 q 653 515 653 515 q 653 515 653 515 q 617 728 653 644 q 522 851 582 811 q 386 892 461 892 q 386 892 386 892 q 386 892 386 892 q 253 858 310 892 q 165 769 196 825 q 133 642 133 713 q 133 642 133 642 q 133 642 133 642 q 165 510 133 564 q 250 430 197 457 q 364 403 303 403 q 364 403 364 403 q 364 403 364 403 q 549 470 479 403 q 618 644 618 538 q 618 644 618 644 q 618 644 618 644 q 592 766 618 713 q 519 853 567 819 m 528 407 l 542 390 q 608 481 582 426 q 635 605 633 535 q 601 754 636 675 l 582 746 q 613 607 614 672 q 589 491 613 542 q 528 407 565 440 m 96 28 l 110 11 l 196 88 q 200 94 199 90 q 199 101 201 99 l 113 251 l 93 240 l 179 90 q 183 97 182 88 q 182 104 185 107 l 96 28 m 92 246 l 92 19 q 94 13 92 17 q 100 8 96 10 q 438 -16 290 -51 q 670 149 586 19 q 754 501 754 279 q 708 767 754 661 q 578 925 661 872 q 386 978 496 978 q 198 933 278 978 q 74 810 118 888 q 31 638 31 733 q 76 460 31 531 q 193 354 121 389 q 343 319 265 319 q 449 338 397 319 q 542 390 501 356 l 524 399 q 465 218 515 268 q 336 168 414 168 q 224 191 282 168 q 110 254 167 214 q 98 256 104 258 q 92 246 92 253 m 385 782 q 475 742 442 782 q 508 640 508 703 q 475 544 508 581 q 385 507 442 507 q 294 545 329 507 q 260 644 260 583 q 294 743 260 704 q 385 782 329 782 m 114 246 l 96 238 q 336 146 222 146 q 438 169 392 146 q 512 247 483 192 q 546 399 540 303 q 540 409 546 406 q 528 407 533 413 q 441 358 489 375 q 343 342 393 342 q 204 374 271 342 q 95 472 138 407 q 53 638 53 538 q 94 799 53 728 q 210 913 135 871 q 386 956 285 956 q 637 842 542 956 q 732 501 732 729 q 652 163 732 288 q 431 5 572 38 q 106 31 290 -28 l 114 19 l 114 246 m 385 804 q 279 759 321 804 q 238 644 238 714 q 279 528 238 572 q 385 485 321 485 q 490 528 450 485 q 531 640 531 571 q 490 759 531 714 q 385 804 450 804 z "},"A":{"ha":931,"x_min":-19,"x_max":950,"o":"m 146 101 l 168 93 l 236 285 q 236 285 236 285 q 236 285 236 285 l 433 829 q 427 827 435 832 q 422 822 419 822 l 500 822 q 495 827 503 822 q 489 829 488 832 l 688 285 q 688 285 689 285 q 688 285 688 285 l 753 93 l 775 101 l 710 293 q 710 293 710 293 q 710 293 710 293 l 511 838 q 500 844 507 844 l 422 844 q 411 838 415 844 l 214 293 q 214 293 214 293 q 214 293 214 293 l 146 101 m 699 278 l 699 300 l 225 300 l 225 278 l 699 278 m 368 950 l 349 939 l 413 828 q 412 829 413 826 q 411 831 411 832 l 444 668 q 456 660 447 660 q 467 668 464 660 l 511 831 q 510 829 511 832 q 510 828 508 826 l 582 939 l 563 950 l 490 839 q 490 838 490 839 q 489 836 490 838 l 444 674 q 456 665 443 665 q 467 674 469 664 l 433 836 q 433 837 433 836 q 432 839 432 838 l 368 950 m 356 367 l 342 386 l 218 299 q 215 291 215 296 q 217 282 214 286 l 283 196 l 300 210 l 233 296 q 230 288 232 299 q 232 279 228 278 l 356 367 m 568 386 l 557 367 l 693 279 q 695 289 697 278 q 690 296 693 300 l 611 210 l 628 196 l 707 282 q 710 290 710 285 q 704 299 710 296 l 568 386 m 271 -8 l 285 8 l 164 106 q 158 109 161 108 q 151 107 154 110 l -12 10 l -1 -10 l 163 88 q 156 91 165 90 q 150 89 147 92 l 271 -8 m 932 -10 l 943 10 l 769 107 q 763 109 767 110 q 757 106 760 108 l 626 8 l 640 -8 l 771 89 q 765 90 774 90 q 758 88 756 90 l 932 -10 m 292 192 l 619 192 l 608 200 q 631 108 625 143 q 634 49 636 72 q 624 4 632 25 q 625 -6 622 -1 q 633 -11 628 -11 l 938 -11 q 947 -5 944 -11 q 946 7 950 1 q 915 57 931 28 q 877 137 899 86 q 822 272 856 188 q 739 489 789 357 q 664 693 693 613 q 619 822 635 774 q 595 898 603 869 q 583 946 588 926 q 579 953 582 950 q 572 956 576 956 l 358 956 q 351 953 354 956 q 347 944 347 950 q 338 894 346 924 q 313 815 331 864 q 265 686 294 765 q 192 489 236 607 q 108 272 142 357 q 53 137 75 188 q 16 57 32 86 q -15 7 0 28 q -17 -5 -19 1 q -7 -11 -14 -11 l 278 -11 q 288 -6 285 -11 q 288 4 290 -1 q 278 49 281 25 q 281 108 275 72 q 303 200 288 143 l 292 192 m 444 667 l 551 372 l 563 388 l 349 388 l 360 372 l 467 667 l 444 667 m 292 214 q 285 212 288 214 q 281 206 282 210 q 258 106 264 144 q 256 43 253 68 q 268 -4 260 18 l 278 11 l -7 11 l 1 -7 q 34 44 18 14 q 72 125 50 74 q 128 262 94 176 q 211 481 161 347 q 287 682 257 601 q 335 813 317 763 q 360 893 353 863 q 369 944 368 924 l 358 933 l 572 933 l 561 943 q 573 894 565 922 q 597 816 581 865 q 642 686 613 767 q 719 481 672 606 q 803 262 769 347 q 858 125 836 176 q 897 44 881 74 q 929 -7 913 14 l 938 11 l 633 11 l 643 -4 q 656 43 653 18 q 653 106 658 68 q 631 206 647 144 q 626 212 629 210 q 619 214 624 214 l 292 214 m 467 675 q 456 682 464 682 q 444 675 447 682 l 338 381 q 340 370 336 375 q 349 365 343 365 l 563 365 q 572 370 569 365 q 574 381 575 375 l 467 675 z "},"B":{"ha":824,"x_min":67,"x_max":783,"o":"m 408 496 l 408 474 q 583 528 515 474 q 650 678 650 583 q 650 678 650 678 q 650 678 650 678 q 588 817 650 764 q 418 869 526 869 q 418 869 418 869 q 418 869 418 869 l 217 869 q 209 866 213 869 q 206 858 206 863 l 206 86 q 209 78 206 82 q 217 75 213 75 l 442 75 q 442 75 442 75 q 442 75 442 75 q 613 131 547 75 q 678 281 678 188 q 678 281 678 281 q 678 281 678 281 q 606 438 678 381 q 414 496 535 496 l 414 474 q 590 423 525 474 q 656 281 656 372 q 656 281 656 281 q 656 281 656 281 q 596 147 656 196 q 442 97 536 97 q 442 97 442 97 q 442 97 442 97 l 217 97 q 220 90 213 97 q 228 86 228 82 l 228 858 q 220 855 228 863 q 217 847 213 847 l 418 847 q 418 847 418 847 q 418 847 418 847 q 572 801 517 847 q 628 678 628 756 q 628 678 628 678 q 628 678 628 678 q 566 544 628 592 q 408 496 504 496 m 328 163 l 314 179 l 210 94 q 210 95 210 94 q 211 96 211 96 l 74 10 l 85 -10 l 222 76 q 224 77 224 76 q 224 78 224 78 l 328 163 m 85 954 l 74 935 l 211 849 q 210 849 211 849 q 210 850 210 850 l 314 765 l 328 782 l 224 867 q 224 867 224 867 q 222 868 224 868 l 85 954 m 322 556 l 308 572 l 210 493 q 206 485 206 490 q 210 476 206 479 l 308 393 l 322 410 l 224 493 q 219 485 219 496 q 224 476 219 474 l 322 556 m 217 496 l 217 474 l 414 474 q 414 474 414 474 q 414 474 414 474 l 633 479 l 633 501 l 414 496 q 414 496 414 496 q 414 496 414 496 l 217 496 m 79 -11 l 449 -11 q 624 25 549 -11 q 741 126 699 61 q 783 274 783 190 q 745 409 783 351 q 639 500 707 467 l 639 481 q 724 566 693 514 q 756 686 756 618 q 715 827 756 767 q 597 922 674 888 q 415 956 521 956 l 79 956 q 70 951 74 956 q 69 939 67 946 q 88 892 81 919 q 98 815 94 864 q 103 688 101 767 q 106 485 106 608 q 103 270 106 354 q 98 135 101 186 q 88 55 94 83 q 69 6 81 26 q 70 -6 67 0 q 79 -11 74 -11 m 421 763 q 496 738 469 763 q 522 668 522 713 q 494 599 522 624 q 421 575 465 575 l 315 575 l 326 564 q 329 684 328 633 q 332 774 331 735 l 321 763 l 421 763 m 435 390 q 519 364 489 390 q 550 286 550 338 q 518 208 550 235 q 435 182 486 182 l 321 182 l 332 171 q 329 269 331 213 q 326 401 328 325 l 315 390 l 435 390 m 79 11 l 89 -6 q 107 45 100 15 q 119 127 114 75 q 126 265 124 179 q 128 485 128 351 q 126 692 128 611 q 119 823 124 774 q 107 901 114 872 q 89 950 100 929 l 79 933 l 415 933 q 649 865 564 933 q 733 686 733 797 q 706 577 733 625 q 628 500 678 529 q 622 490 622 497 q 628 481 622 483 q 726 397 692 450 q 761 274 761 344 q 722 136 761 196 q 612 44 682 76 q 449 11 542 11 l 79 11 m 421 785 l 321 785 q 313 782 317 785 q 310 774 310 779 q 307 684 308 735 q 304 564 306 633 q 308 556 304 560 q 315 553 311 553 l 421 553 q 509 584 474 553 q 544 668 544 615 q 512 753 544 721 q 421 785 479 785 m 435 413 l 315 413 q 308 409 311 413 q 304 401 304 406 q 307 269 306 325 q 310 171 308 213 q 313 163 310 165 q 321 160 317 160 l 435 160 q 533 193 494 160 q 572 286 572 226 q 536 379 572 346 q 435 413 500 413 z "},"C":{"ha":847,"x_min":40,"x_max":775,"o":"m 674 833 l 682 853 q 601 876 644 868 q 519 883 557 883 q 519 883 519 883 q 519 883 519 883 q 323 832 407 883 q 192 688 239 781 q 146 471 146 594 q 146 471 146 471 q 146 471 146 471 q 192 255 146 347 q 323 112 239 163 q 519 61 407 61 q 519 61 519 61 q 519 61 519 61 q 602 68 557 61 q 682 89 647 75 l 674 108 q 599 90 642 97 q 519 83 556 83 q 519 83 519 83 q 519 83 519 83 q 333 132 413 83 q 211 267 254 181 q 168 471 168 354 q 168 471 168 471 q 168 471 168 471 q 211 676 168 588 q 333 813 254 764 q 519 861 413 861 q 519 861 519 861 q 519 861 519 861 q 597 853 556 861 q 674 833 639 846 m 771 906 l 757 922 l 671 851 q 667 846 668 850 q 668 838 667 842 l 754 675 l 774 686 l 688 849 q 684 842 686 851 q 685 835 682 832 l 771 906 m 774 258 l 754 269 l 668 104 q 667 97 667 100 q 671 90 668 93 l 757 22 l 771 39 l 685 107 q 684 100 682 110 q 688 93 686 90 l 774 258 m 775 31 l 775 264 q 769 274 775 271 q 757 272 763 278 q 644 201 706 228 q 515 174 582 174 q 341 253 408 174 q 274 472 274 333 q 340 692 274 613 q 514 772 407 772 q 644 743 581 772 q 757 672 708 714 q 769 670 763 667 q 775 681 775 674 l 775 914 q 773 919 775 917 q 768 924 771 922 q 653 960 717 947 q 525 972 590 972 q 267 908 375 972 q 99 730 158 843 q 40 469 40 617 q 99 210 40 322 q 267 35 158 99 q 525 -28 375 -28 q 653 -15 590 -28 q 768 21 717 -3 q 773 25 771 22 q 775 31 775 28 m 753 31 l 760 40 q 649 6 710 18 q 525 -6 588 -6 q 278 54 382 -6 q 118 221 174 114 q 63 469 63 328 q 118 719 63 611 q 278 889 174 828 q 525 950 382 950 q 649 938 588 950 q 760 904 710 926 l 753 914 l 753 681 l 771 689 q 652 764 719 733 q 514 794 585 794 q 378 756 438 794 q 285 644 318 717 q 251 472 251 572 q 285 301 251 372 q 379 190 319 229 q 515 151 439 151 q 652 180 586 151 q 771 256 718 208 l 753 264 l 753 31 z "},"D":{"ha":960,"x_min":67,"x_max":919,"o":"m 228 86 l 228 858 q 220 855 228 863 q 217 847 213 847 l 425 847 q 425 847 425 847 q 425 847 425 847 q 617 801 535 847 q 745 671 699 754 q 792 474 792 588 q 792 474 792 474 q 792 474 792 474 q 745 275 792 360 q 617 144 699 190 q 425 97 535 97 q 425 97 425 97 q 425 97 425 97 l 217 97 q 220 90 213 97 q 228 86 228 82 m 328 165 l 314 182 l 210 94 q 210 95 210 94 q 211 96 211 96 l 74 10 l 85 -10 l 222 76 q 224 77 224 76 q 224 78 224 78 l 328 165 m 85 954 l 74 935 l 211 849 q 210 849 211 849 q 210 850 210 850 l 314 763 l 328 779 l 224 867 q 224 867 224 867 q 222 868 224 868 l 85 954 m 206 86 q 209 78 206 82 q 217 75 213 75 l 425 75 q 425 75 425 75 q 425 75 425 75 q 628 124 540 75 q 765 263 715 174 q 814 474 814 353 q 814 474 814 474 q 814 474 814 474 q 765 683 814 594 q 628 821 715 772 q 425 869 540 869 q 425 869 425 869 q 425 869 425 869 l 217 869 q 209 866 213 869 q 206 858 206 863 l 206 86 m 79 -11 l 432 -11 q 683 49 572 -11 q 856 217 793 108 q 919 474 919 326 q 856 728 919 621 q 683 896 793 836 q 432 956 572 956 l 79 956 q 70 951 74 956 q 69 939 67 946 q 88 892 81 919 q 98 815 94 864 q 103 688 101 767 q 106 485 106 608 q 103 270 106 354 q 98 135 101 186 q 88 55 94 83 q 69 6 81 26 q 70 -6 67 0 q 79 -11 74 -11 m 418 760 q 615 682 543 760 q 686 474 686 604 q 615 264 686 343 q 418 185 543 185 l 321 185 l 332 174 q 328 301 329 226 q 326 485 326 376 q 328 653 326 583 q 332 769 329 722 l 321 760 l 418 760 m 79 11 l 89 -6 q 107 45 100 15 q 119 127 114 75 q 126 265 124 179 q 128 485 128 351 q 126 692 128 611 q 119 823 124 774 q 107 901 114 872 q 89 950 100 929 l 79 933 l 432 933 q 672 876 567 933 q 837 717 776 819 q 897 474 897 614 q 837 229 897 333 q 672 68 776 125 q 432 11 567 11 l 79 11 m 418 782 l 321 782 q 313 779 317 782 q 310 772 310 776 q 306 653 307 722 q 304 485 304 583 q 306 301 304 376 q 310 174 307 226 q 313 165 310 168 q 321 163 317 163 l 418 163 q 630 247 551 163 q 708 474 708 332 q 630 698 708 614 q 418 782 551 782 z "},"E":{"ha":763,"x_min":67,"x_max":699,"o":"m 574 838 l 576 860 q 460 866 526 864 q 330 869 394 868 q 217 869 265 871 q 208 866 211 869 q 206 858 206 863 l 206 86 q 208 78 206 82 q 217 75 211 75 q 331 74 267 74 q 459 78 394 75 q 574 85 524 81 l 571 107 q 458 100 522 103 q 331 97 394 97 q 217 97 267 96 q 220 90 213 97 q 228 86 228 82 l 228 858 q 220 855 228 863 q 217 847 213 847 q 330 847 265 849 q 460 844 394 846 q 574 838 525 842 m 538 475 l 538 497 l 217 497 l 217 475 l 538 475 m 328 165 l 314 182 l 210 94 q 210 95 210 94 q 211 96 211 96 l 74 10 l 85 -10 l 222 76 q 224 77 224 76 q 224 78 224 78 l 328 165 m 85 954 l 74 935 l 211 849 q 210 849 211 849 q 210 850 210 850 l 314 763 l 328 779 l 224 867 q 224 867 224 867 q 222 868 224 868 l 85 954 m 669 938 l 653 951 l 567 856 q 565 849 565 854 q 565 842 564 844 l 651 721 l 671 735 l 585 856 q 581 849 582 858 q 583 842 581 839 l 669 938 m 694 224 l 678 238 l 564 103 q 561 96 561 100 q 564 89 561 92 l 650 -7 l 667 7 l 581 103 q 578 96 578 106 q 581 89 579 86 l 694 224 m 632 593 l 615 607 l 529 493 q 526 486 526 490 q 529 479 526 482 l 615 367 l 632 381 l 546 493 q 544 486 544 496 q 546 479 544 476 l 632 593 m 322 561 l 308 578 l 210 494 q 206 486 206 492 q 210 478 206 481 l 308 394 l 322 411 l 224 494 q 219 486 219 497 q 224 478 219 475 l 322 561 m 79 -11 l 658 -11 q 665 -8 663 -11 q 669 -1 668 -6 l 697 229 q 692 240 699 236 q 679 239 686 244 q 618 207 656 219 q 511 189 581 194 q 321 185 442 183 l 332 174 q 329 272 331 215 q 326 403 328 328 l 315 392 q 483 389 425 392 q 569 381 540 386 q 618 364 599 375 q 630 365 625 361 q 635 374 635 368 l 635 600 q 630 610 635 607 q 618 610 625 613 q 569 592 599 599 q 482 584 540 586 q 315 581 424 582 l 326 569 q 329 684 328 635 q 332 771 331 733 l 321 760 q 503 756 439 763 q 601 740 568 750 q 656 718 633 731 q 667 719 663 715 q 672 728 672 722 l 672 944 q 669 952 672 949 q 661 956 665 956 l 79 956 q 70 951 74 956 q 69 939 67 946 q 88 892 81 919 q 98 815 94 864 q 103 688 101 767 q 106 485 106 608 q 103 270 106 354 q 98 135 101 186 q 88 55 94 83 q 69 6 81 26 q 70 -6 67 0 q 79 -11 74 -11 m 79 11 l 89 -6 q 107 45 100 15 q 119 127 114 75 q 126 265 124 179 q 128 485 128 351 q 126 692 128 611 q 119 823 124 774 q 107 901 114 872 q 89 950 100 929 l 79 933 l 661 933 l 650 944 l 650 728 l 667 738 q 609 760 643 750 q 508 778 575 771 q 321 782 442 785 q 313 779 317 782 q 310 771 310 776 q 307 684 308 733 q 304 569 306 635 q 308 562 304 565 q 315 558 311 558 q 455 560 401 558 q 541 567 508 563 q 593 576 574 571 q 629 590 613 582 l 613 600 l 613 374 l 629 383 q 593 397 613 392 q 541 406 574 403 q 454 412 508 410 q 315 414 400 414 q 308 410 311 414 q 304 403 304 407 q 307 272 306 328 q 310 174 308 215 q 313 165 310 168 q 321 163 317 163 q 519 167 447 161 q 629 188 590 174 q 693 222 668 201 l 675 232 l 647 1 l 658 11 l 79 11 z "},"F":{"ha":724,"x_min":67,"x_max":672,"o":"m 538 447 l 538 469 l 217 469 l 217 447 l 538 447 m 85 954 l 74 935 l 211 849 q 210 849 211 849 q 210 850 210 850 l 314 763 l 328 779 l 224 867 q 224 867 224 867 q 222 868 224 868 l 85 954 m 669 938 l 653 951 l 567 856 q 565 849 565 854 q 565 842 564 844 l 651 721 l 671 735 l 585 856 q 581 849 582 858 q 583 842 581 839 l 669 938 m 632 565 l 615 579 l 529 465 q 526 458 526 463 q 529 451 526 454 l 615 339 l 632 353 l 546 465 q 544 458 544 468 q 546 451 544 449 l 632 565 m 322 533 l 308 550 l 210 467 q 206 458 206 464 q 210 450 206 453 l 308 367 l 322 383 l 224 467 q 219 458 219 469 q 224 450 219 447 l 322 533 m 574 838 l 576 860 q 460 866 526 864 q 330 869 394 868 q 217 869 265 871 q 208 866 211 869 q 206 858 206 863 l 206 86 l 228 86 l 228 858 q 220 855 228 863 q 217 847 213 847 q 330 847 265 849 q 460 844 394 846 q 574 838 525 842 m 347 -10 l 358 10 l 222 96 q 217 97 221 97 q 211 96 214 97 l 74 10 l 85 -10 l 222 76 q 217 79 225 79 q 211 76 208 79 l 347 -10 m 79 -11 l 353 -11 q 363 -6 360 -11 q 363 6 365 0 q 342 67 350 29 q 331 176 335 104 q 326 375 328 247 l 315 364 q 483 361 425 364 q 569 353 540 358 q 618 336 599 347 q 630 337 625 333 q 635 346 635 340 l 635 572 q 630 582 635 579 q 618 582 625 585 q 569 565 599 571 q 482 556 540 558 q 315 553 424 554 l 326 542 q 328 674 326 618 q 332 769 329 729 l 321 760 q 503 756 439 763 q 601 740 568 750 q 656 718 633 731 q 667 719 663 715 q 672 728 672 722 l 672 944 q 669 952 672 949 q 661 956 665 956 l 79 956 q 70 951 74 956 q 69 939 67 946 q 88 892 81 919 q 98 815 94 864 q 103 688 101 767 q 106 485 106 608 q 103 270 106 354 q 98 135 101 186 q 88 55 94 83 q 69 6 81 26 q 70 -6 67 0 q 79 -11 74 -11 m 79 11 l 89 -6 q 107 45 100 15 q 119 127 114 75 q 126 265 124 179 q 128 485 128 351 q 126 692 128 611 q 119 823 124 774 q 107 901 114 872 q 89 950 100 929 l 79 933 l 661 933 l 650 944 l 650 728 l 667 738 q 609 760 643 750 q 508 778 575 771 q 321 782 442 785 q 313 779 317 782 q 310 772 310 776 q 306 674 307 729 q 304 542 304 618 q 308 534 304 538 q 315 531 311 531 q 455 533 401 531 q 541 539 508 535 q 593 549 574 543 q 629 563 613 554 l 613 572 l 613 346 l 629 356 q 593 369 613 364 q 541 378 574 375 q 454 384 508 382 q 315 386 400 386 q 308 383 311 386 q 304 375 304 379 q 308 211 306 276 q 315 105 311 146 q 326 39 319 64 q 343 -6 333 14 l 353 11 l 79 11 z "},"G":{"ha":931,"x_min":40,"x_max":874,"o":"m 829 897 l 815 914 l 729 840 q 726 835 726 839 q 726 826 725 831 l 813 667 l 832 678 l 746 838 q 742 831 744 840 q 743 824 740 821 l 829 897 m 619 496 l 608 476 l 739 390 q 745 390 742 389 q 751 392 749 390 l 868 478 l 854 494 l 738 408 q 744 408 736 407 q 750 410 753 408 l 619 496 m 732 822 l 740 842 q 639 873 693 863 q 536 883 585 883 q 536 883 536 883 q 536 883 536 883 q 331 831 418 883 q 194 686 243 779 q 146 469 146 593 q 146 469 146 469 q 146 469 146 469 q 193 256 146 349 q 326 111 240 164 q 528 58 411 58 q 528 58 528 58 q 528 58 528 58 q 642 71 585 58 q 754 108 699 83 q 759 113 757 110 q 761 118 761 115 q 759 293 760 226 q 756 400 758 360 l 733 400 q 737 293 736 360 q 739 118 738 226 q 744 123 739 115 q 746 128 749 131 q 638 93 693 106 q 528 81 583 81 q 528 81 528 81 q 528 81 528 81 q 336 131 417 81 q 212 269 256 181 q 168 469 168 357 q 168 469 168 469 q 168 469 168 469 q 213 674 168 586 q 341 812 258 763 q 536 861 424 861 q 536 861 536 861 q 536 861 536 861 q 634 851 582 861 q 732 822 686 842 m 660 186 l 649 167 l 744 108 q 744 108 744 108 q 744 108 744 108 l 839 46 l 850 65 l 756 128 q 756 128 756 128 q 756 128 756 128 l 660 186 m 856 56 q 856 247 856 172 q 859 367 857 322 q 865 439 861 413 q 872 483 868 465 q 870 493 874 489 q 861 497 867 497 l 614 497 q 605 492 608 497 q 604 481 601 488 q 623 429 615 460 q 635 340 631 399 q 643 176 640 282 l 651 188 q 592 174 621 178 q 535 169 563 169 q 343 252 413 169 q 274 474 274 335 q 343 693 274 613 q 535 774 413 774 q 679 747 607 774 q 815 664 751 721 q 827 662 821 658 q 833 672 833 665 l 833 906 q 831 912 833 908 q 826 917 829 915 q 682 958 754 943 q 539 972 610 972 q 276 907 389 972 q 102 727 164 842 q 40 464 40 613 q 99 211 40 324 q 266 33 158 99 q 521 -32 374 -32 q 684 -11 604 -32 q 849 46 764 10 q 856 56 856 49 m 833 56 l 840 65 q 681 10 758 31 q 521 -10 603 -10 q 278 53 381 -10 q 119 222 175 115 q 63 464 63 329 q 122 716 63 607 q 288 888 181 825 q 539 950 394 950 q 678 935 608 950 q 818 894 749 921 l 811 906 l 811 672 l 829 681 q 688 767 764 739 q 535 796 611 796 q 328 709 404 796 q 251 474 251 622 q 328 236 251 325 q 535 147 404 147 q 596 151 565 147 q 657 165 626 156 q 663 170 661 167 q 665 176 665 174 q 657 347 663 286 q 643 438 651 407 q 624 492 635 469 l 614 475 l 861 475 l 850 489 q 842 444 846 471 q 837 371 839 417 q 834 249 835 325 q 833 56 833 174 z "},"H":{"ha":976,"x_min":67,"x_max":910,"o":"m 228 858 l 206 858 l 206 492 q 206 492 206 492 q 206 492 206 492 l 206 86 l 228 86 l 228 492 q 228 492 228 492 q 228 492 228 492 l 228 858 m 771 858 l 749 858 l 750 492 q 750 492 750 492 q 750 492 750 492 l 750 86 l 772 86 l 772 492 q 772 492 772 492 q 772 492 772 492 l 771 858 m 761 481 l 761 503 l 217 503 l 217 481 l 761 481 m 322 572 l 308 589 l 210 500 q 206 492 206 497 q 210 483 206 486 l 308 396 l 322 413 l 224 500 q 221 492 221 503 q 224 483 221 481 l 322 572 m 347 -10 l 358 10 l 222 96 q 217 97 221 97 q 211 96 214 97 l 74 10 l 85 -10 l 222 76 q 217 79 225 79 q 211 76 208 79 l 347 -10 m 85 954 l 74 935 l 211 849 q 217 847 214 847 q 222 849 221 847 l 358 935 l 347 954 l 211 868 q 217 867 208 867 q 222 868 225 867 l 85 954 m 654 413 l 668 396 l 768 483 q 772 492 772 486 q 768 500 772 497 l 668 589 l 654 572 l 754 483 q 757 492 757 481 q 754 500 757 503 l 654 413 m 892 -10 l 903 10 l 767 96 q 762 97 765 97 q 756 96 758 97 l 618 10 l 629 -10 l 767 76 q 761 79 769 79 q 756 76 753 79 l 892 -10 m 629 954 l 618 935 l 754 849 q 760 847 757 847 q 765 849 764 847 l 903 935 l 892 954 l 754 868 q 760 867 751 867 q 765 868 768 867 l 629 954 m 79 -11 l 353 -11 q 363 -6 360 -11 q 363 4 365 -1 q 347 49 353 24 q 336 118 340 75 q 329 230 332 161 q 326 404 326 299 l 315 393 l 661 393 l 650 404 q 647 230 650 299 q 640 118 644 161 q 630 49 636 75 q 614 4 624 24 q 615 -6 611 -1 q 624 -11 618 -11 l 897 -11 q 907 -6 904 -11 q 907 6 910 0 q 890 55 897 26 q 878 135 882 83 q 873 270 875 186 q 871 485 871 354 q 873 688 871 608 q 878 815 875 767 q 890 892 882 864 q 907 939 897 919 q 907 951 910 946 q 897 956 904 956 l 624 956 q 615 951 618 956 q 614 939 611 946 q 634 879 626 915 q 645 774 642 843 q 650 581 649 706 l 661 592 l 315 592 l 326 581 q 331 774 328 706 q 342 879 335 843 q 363 939 350 915 q 363 951 365 946 q 353 956 360 956 l 79 956 q 70 951 74 956 q 69 939 67 946 q 88 892 81 919 q 98 815 94 864 q 103 688 101 767 q 106 485 106 608 q 103 270 106 354 q 98 135 101 186 q 88 55 94 83 q 69 6 81 26 q 70 -6 67 0 q 79 -11 74 -11 m 79 11 l 89 -6 q 107 45 100 15 q 119 127 114 75 q 126 265 124 179 q 128 485 128 351 q 126 692 128 611 q 119 823 124 774 q 107 901 114 872 q 89 950 100 929 l 79 933 l 353 933 l 343 950 q 326 907 333 932 q 315 842 319 882 q 308 740 311 803 q 304 581 306 676 q 308 573 304 576 q 315 569 311 569 l 661 569 q 669 573 665 569 q 672 581 672 576 q 668 740 671 676 q 661 842 665 803 q 650 907 657 882 q 633 950 643 932 l 624 933 l 897 933 l 888 950 q 870 901 878 929 q 858 823 863 872 q 851 692 853 774 q 849 485 849 611 q 851 265 849 351 q 858 127 853 179 q 870 45 863 75 q 888 -6 878 15 l 897 11 l 624 11 l 633 -4 q 650 41 643 15 q 662 110 657 67 q 669 225 667 154 q 672 404 672 296 q 669 412 672 408 q 661 415 665 415 l 315 415 q 308 412 311 415 q 304 404 304 408 q 307 225 304 296 q 315 110 310 154 q 326 41 319 67 q 343 -4 333 15 l 353 11 l 79 11 z "},"I":{"ha":443,"x_min":72,"x_max":371,"o":"m 233 858 l 211 858 l 211 86 l 233 86 l 233 858 m 353 -10 l 364 10 l 228 96 q 223 97 226 97 q 217 96 219 97 l 79 10 l 90 -10 l 228 76 q 222 79 231 79 q 217 76 214 79 l 353 -10 m 90 954 l 79 935 l 217 849 q 223 847 219 847 q 228 849 226 847 l 364 935 l 353 954 l 217 868 q 222 867 214 867 q 228 868 231 867 l 90 954 m 85 -11 l 358 -11 q 368 -6 365 -11 q 368 6 371 0 q 351 55 358 26 q 340 135 343 83 q 334 270 336 186 q 332 485 332 354 q 334 688 332 608 q 340 815 336 767 q 351 892 343 864 q 368 939 358 919 q 368 951 371 946 q 358 956 365 956 l 85 956 q 76 951 79 956 q 75 939 72 946 q 93 892 86 919 q 103 815 100 864 q 109 688 107 767 q 111 485 111 608 q 109 270 111 354 q 103 135 107 186 q 93 55 100 83 q 75 6 86 26 q 76 -6 72 0 q 85 -11 79 -11 m 85 11 l 94 -6 q 113 45 106 15 q 124 127 119 75 q 131 265 129 179 q 133 485 133 351 q 131 692 133 611 q 124 823 129 774 q 113 901 119 872 q 94 950 106 929 l 85 933 l 358 933 l 349 950 q 331 901 339 929 q 319 823 324 872 q 312 692 314 774 q 310 485 310 611 q 312 265 310 351 q 319 127 314 179 q 331 45 324 75 q 349 -6 339 15 l 358 11 l 85 11 z "},"J":{"ha":649,"x_min":17,"x_max":596,"o":"m 315 954 l 304 935 l 442 849 q 448 847 444 847 q 453 849 451 847 l 589 935 l 578 954 l 442 868 q 447 867 439 867 q 453 868 456 867 l 315 954 m 458 858 l 436 858 l 436 325 q 436 325 436 325 q 436 325 436 325 q 380 151 436 215 q 221 86 324 88 q 221 86 221 86 q 221 86 221 86 q 172 91 197 86 q 118 106 146 96 l 110 83 q 167 69 139 74 q 221 64 194 64 q 221 64 221 64 q 221 64 221 64 q 395 135 332 65 q 458 325 458 206 q 458 325 458 325 q 458 325 458 325 l 458 858 m 21 29 l 35 13 l 121 86 q 125 92 124 89 q 124 100 126 96 l 38 264 l 18 253 l 104 89 q 108 96 107 86 q 107 103 110 106 l 21 29 m 17 258 l 17 21 q 19 15 17 18 q 25 10 21 11 q 131 -17 79 -8 q 229 -25 183 -25 q 407 22 333 -24 q 519 144 481 67 q 557 321 557 222 l 557 485 q 559 688 557 608 q 565 815 561 767 q 576 892 568 864 q 593 939 583 919 q 593 951 596 946 q 583 956 590 956 l 310 956 q 301 951 304 956 q 300 939 297 946 q 318 892 311 919 q 328 815 325 864 q 334 688 332 767 q 336 485 336 608 l 336 328 q 303 213 336 250 q 213 175 271 175 q 128 196 172 175 q 36 267 83 217 q 24 269 31 272 q 17 258 17 265 m 39 258 l 19 250 q 119 176 71 199 q 213 153 168 153 q 319 196 279 153 q 358 328 358 239 l 358 485 q 356 692 358 611 q 349 823 354 774 q 338 901 344 872 q 319 950 331 929 l 310 933 l 583 933 l 574 950 q 556 901 564 929 q 544 823 549 872 q 537 692 539 774 q 535 485 535 611 l 535 321 q 499 156 535 228 q 394 41 463 83 q 229 -3 326 -1 q 135 6 186 -3 q 31 32 85 14 l 39 21 l 39 258 z "},"K":{"ha":904,"x_min":57,"x_max":932,"o":"m 218 858 l 196 858 l 196 474 q 196 474 196 474 q 196 474 196 474 l 196 86 l 218 86 l 218 474 q 218 474 218 474 q 218 474 218 474 l 218 858 m 688 851 l 671 865 l 385 560 q 385 560 385 560 q 385 560 385 560 q 331 514 356 529 q 278 493 307 499 q 207 485 250 488 q 197 473 196 483 q 207 463 197 463 q 307 455 272 465 q 376 404 342 444 q 376 404 376 404 q 376 404 376 404 l 671 79 l 688 93 l 393 418 q 393 418 393 418 q 393 418 393 418 q 315 475 354 463 q 207 485 276 488 q 197 473 196 483 q 207 463 197 463 q 284 472 253 465 q 342 495 315 478 q 401 546 369 513 q 401 546 401 546 q 401 546 401 546 l 688 851 m 314 572 l 297 586 l 199 481 q 196 474 196 478 q 199 467 196 469 l 297 356 l 314 369 l 215 481 q 213 474 213 483 q 215 467 213 464 l 314 572 m 338 -10 l 349 10 l 213 96 q 208 97 211 97 q 201 96 204 97 l 64 10 l 75 -10 l 213 76 q 207 79 215 79 q 201 76 199 79 l 338 -10 m 75 954 l 64 935 l 201 849 q 208 847 204 847 q 213 849 211 847 l 349 935 l 338 954 l 201 868 q 207 867 199 867 q 213 868 215 867 l 75 954 m 914 -11 l 922 11 l 683 97 q 677 98 681 99 q 671 94 674 97 l 586 8 l 603 -8 l 688 78 q 681 79 690 81 q 675 75 672 78 l 914 -11 m 619 951 l 603 938 l 671 851 q 677 848 674 849 q 683 849 681 847 l 911 935 l 903 954 l 675 868 q 681 865 672 867 q 688 865 690 863 l 619 951 m 207 485 l 207 463 q 283 466 244 464 q 360 469 321 468 q 440 472 400 471 l 440 494 q 365 492 403 493 q 287 488 326 490 q 207 485 247 486 m 69 -11 l 343 -11 q 353 -6 350 -11 q 353 4 356 -1 q 334 65 342 29 q 322 171 326 101 q 317 363 318 240 l 297 356 q 433 202 379 264 q 517 101 486 140 q 563 39 549 63 q 583 -3 578 15 q 588 -9 585 -7 q 594 -11 592 -11 l 918 -11 q 929 -3 926 -11 q 925 8 932 4 q 862 58 897 29 q 774 138 826 86 q 643 274 722 189 q 449 490 564 358 l 449 476 q 645 683 568 603 q 771 812 722 764 q 852 888 819 860 q 914 935 885 915 q 918 948 921 940 q 907 956 915 956 l 611 956 q 604 953 607 956 q 600 947 601 951 q 581 906 594 929 q 534 845 567 883 q 444 744 501 807 q 297 586 388 682 l 317 579 q 322 774 318 704 q 333 879 325 843 q 353 939 340 915 q 353 951 356 946 q 343 956 350 956 l 69 956 q 60 951 64 956 q 60 939 57 946 q 78 892 71 919 q 88 815 85 864 q 94 688 92 767 q 96 485 96 608 q 94 270 96 354 q 88 135 92 186 q 78 55 85 83 q 60 6 71 26 q 60 -6 57 0 q 69 -11 64 -11 m 69 11 l 79 -6 q 97 45 90 15 q 109 127 104 75 q 116 265 114 179 q 118 485 118 351 q 116 692 118 611 q 109 823 114 774 q 97 901 104 872 q 79 950 90 929 l 69 933 l 343 933 l 333 950 q 317 907 324 932 q 306 842 310 882 q 299 739 301 803 q 294 579 296 675 q 301 569 294 572 q 314 572 308 567 q 466 735 408 671 q 556 837 524 799 q 602 899 588 875 q 622 942 617 922 l 611 933 l 907 933 l 900 954 q 838 906 871 933 q 757 829 806 878 q 631 699 708 781 q 432 490 553 618 q 432 476 425 483 q 628 258 549 343 q 760 121 707 172 q 848 41 813 69 q 911 -8 883 13 l 918 11 l 594 11 l 606 3 q 585 47 600 22 q 538 110 569 71 q 453 213 507 150 q 314 369 399 275 q 301 373 308 376 q 294 363 294 369 q 301 165 296 236 q 314 57 306 93 q 333 -4 322 21 l 343 11 l 69 11 z "},"L":{"ha":700,"x_min":67,"x_max":678,"o":"m 222 82 l 211 101 l 74 10 l 85 -10 l 222 82 m 328 175 l 314 192 l 210 100 l 224 83 l 328 175 m 85 954 l 74 935 l 211 849 q 217 847 214 847 q 222 849 221 847 l 358 935 l 347 954 l 211 868 q 217 867 208 867 q 222 868 225 867 l 85 954 m 629 -7 l 646 7 l 560 110 q 558 103 558 113 q 560 96 558 93 l 674 231 l 657 244 l 543 110 q 540 103 540 107 q 543 96 540 99 l 629 -7 m 228 858 l 206 858 l 206 92 q 209 83 206 86 q 217 81 213 81 l 551 92 l 551 114 l 217 103 q 219 94 211 103 q 228 92 228 86 l 228 858 m 79 -11 l 638 -11 q 644 -8 642 -11 q 649 -1 647 -6 l 676 236 q 672 247 678 243 q 658 246 665 251 q 599 215 635 228 q 497 198 563 203 q 321 194 432 193 l 332 183 q 328 308 329 235 q 326 485 326 382 q 328 688 326 608 q 334 815 331 767 q 345 892 338 864 q 363 939 353 919 q 363 951 365 946 q 353 956 360 956 l 79 956 q 70 951 74 956 q 69 939 67 946 q 88 892 81 919 q 98 815 94 864 q 103 688 101 767 q 106 485 106 608 q 103 270 106 354 q 98 135 101 186 q 88 55 94 83 q 69 6 81 26 q 70 -6 67 0 q 79 -11 74 -11 m 79 11 l 89 -6 q 107 45 100 15 q 119 127 114 75 q 126 265 124 179 q 128 485 128 351 q 126 692 128 611 q 119 823 124 774 q 107 901 114 872 q 89 950 100 929 l 79 933 l 353 933 l 343 950 q 326 901 333 929 q 313 823 318 872 q 306 692 308 774 q 304 485 304 611 q 306 308 304 382 q 310 183 307 235 q 313 175 310 178 q 321 172 317 172 q 505 177 438 171 q 610 197 572 183 q 672 229 647 210 l 654 239 l 626 1 l 638 11 l 79 11 z "},"M":{"ha":1200,"x_min":67,"x_max":1133,"o":"m 328 -10 l 339 10 l 211 96 q 206 97 210 97 q 199 96 201 97 l 72 10 l 86 -10 l 213 76 q 206 79 215 79 q 200 76 197 79 l 328 -10 m 1115 -10 l 1126 10 l 996 96 q 991 97 994 97 q 985 96 988 97 l 854 10 l 865 -10 l 996 76 q 990 79 999 79 q 985 76 982 79 l 1115 -10 m 288 694 l 307 706 l 215 864 q 213 866 214 865 q 213 868 213 867 l 86 954 l 72 935 l 199 849 q 197 851 200 849 q 196 853 194 854 l 288 694 m 1126 935 l 1115 954 l 985 868 q 983 866 983 867 q 981 864 982 865 l 886 713 l 906 701 l 1000 853 q 997 851 1000 854 q 996 849 994 849 l 1126 935 m 194 86 l 217 86 l 217 858 q 209 855 217 863 q 206 847 201 847 l 340 847 q 335 853 343 847 q 329 854 328 858 l 586 90 q 597 83 589 83 q 608 90 606 83 l 872 854 q 866 853 874 858 q 861 847 858 847 l 990 847 q 987 855 994 847 q 979 858 979 863 l 979 86 l 1001 86 l 1001 858 q 998 866 1001 863 q 990 869 994 869 l 861 869 q 856 867 858 869 q 850 863 853 865 l 586 99 q 598 90 585 90 q 608 99 611 90 l 351 863 q 347 867 350 865 q 340 869 343 869 l 206 869 q 198 866 201 869 q 194 858 194 863 l 194 86 m 447 936 l 433 953 l 333 867 q 331 865 332 865 q 329 861 331 864 l 286 703 l 308 697 l 351 856 q 349 853 351 857 q 347 850 346 849 l 447 936 m 885 704 l 907 710 l 872 861 q 871 864 871 863 q 869 867 871 865 l 781 953 l 764 936 l 853 850 q 853 853 856 849 q 850 856 850 858 l 885 704 m 639 -6 l 658 6 l 607 100 q 598 106 604 106 q 588 100 592 106 l 526 6 l 546 -6 l 607 89 q 597 95 610 94 q 588 89 585 96 l 639 -6 m 615 347 l 593 347 l 586 94 l 608 94 l 615 347 m 79 -11 l 333 -11 q 343 -6 340 -11 q 343 6 346 0 q 326 55 333 26 q 315 135 318 83 q 309 270 311 186 q 307 485 307 354 q 307 599 307 538 q 308 700 307 660 l 286 696 q 324 589 304 649 q 371 456 344 529 q 443 251 415 332 q 487 122 471 171 q 511 46 503 74 q 525 -3 519 18 q 529 -9 526 -7 q 536 -11 532 -11 l 649 -11 q 656 -9 653 -11 q 660 -3 658 -7 q 674 46 665 18 q 699 122 682 74 q 744 251 715 171 q 818 456 772 332 q 868 594 846 533 q 907 703 890 656 l 885 707 q 886 597 886 660 q 886 485 886 533 q 884 270 886 354 q 878 135 882 186 q 868 55 875 83 q 850 6 861 26 q 851 -6 847 0 q 860 -11 854 -11 l 1121 -11 q 1131 -6 1128 -11 q 1131 6 1133 0 q 1113 55 1121 26 q 1102 135 1106 83 q 1097 270 1099 186 q 1094 485 1094 354 q 1097 688 1094 608 q 1102 815 1099 767 q 1113 892 1106 864 q 1131 939 1121 919 q 1131 951 1133 946 q 1121 956 1128 956 l 772 956 q 765 952 768 956 q 761 944 761 949 q 758 889 761 919 q 742 809 754 858 q 704 677 731 760 q 632 464 678 594 l 593 351 l 615 351 l 576 464 q 505 678 531 596 q 468 810 479 761 q 454 890 457 860 q 451 944 451 919 q 448 952 451 949 q 440 956 444 956 l 79 956 q 70 951 74 956 q 69 939 67 946 q 88 892 81 919 q 98 815 94 864 q 103 688 101 767 q 106 485 106 608 q 103 270 106 354 q 98 135 101 186 q 88 55 94 83 q 69 6 81 26 q 70 -6 67 0 q 79 -11 74 -11 m 79 11 l 89 -6 q 107 45 100 15 q 119 127 114 75 q 126 265 124 179 q 128 485 128 351 q 126 692 128 611 q 119 823 124 774 q 107 901 114 872 q 89 950 100 929 l 79 933 l 440 933 l 429 944 q 432 889 429 919 q 446 808 435 858 q 483 674 457 758 q 554 456 508 589 l 593 343 q 604 336 596 336 q 615 343 613 336 l 654 456 q 726 673 700 589 q 765 808 753 757 q 780 889 776 858 q 783 944 783 919 l 772 933 l 1121 933 l 1111 950 q 1094 901 1101 929 q 1081 823 1086 872 q 1074 692 1076 774 q 1072 485 1072 611 q 1074 265 1072 351 q 1081 127 1076 179 q 1094 45 1086 75 q 1111 -6 1101 15 l 1121 11 l 860 11 l 869 -6 q 888 45 881 15 q 899 127 894 75 q 906 265 904 179 q 908 485 908 351 q 908 597 908 533 q 907 707 908 660 q 897 718 907 717 q 885 711 888 719 q 860 641 872 675 q 833 565 847 607 q 796 464 818 524 q 722 258 750 339 q 676 128 693 178 q 651 51 660 79 q 638 3 643 24 l 649 11 l 536 11 l 547 3 q 533 51 542 24 q 509 128 525 79 q 465 258 493 178 q 393 464 438 339 q 346 599 367 540 q 308 704 325 658 q 295 711 304 713 q 286 700 286 710 q 285 599 285 660 q 285 485 285 538 q 287 265 285 351 q 294 127 289 179 q 306 45 299 75 q 324 -6 314 15 l 333 11 l 79 11 z "},"N":{"ha":971,"x_min":67,"x_max":904,"o":"m 333 -10 l 344 10 l 214 96 q 209 97 213 97 q 203 96 206 97 l 74 10 l 85 -10 l 214 76 q 208 79 217 79 q 203 76 200 79 l 333 -10 m 638 954 l 626 935 l 756 849 q 762 847 758 847 q 767 849 765 847 l 897 935 l 886 954 l 756 868 q 761 867 753 867 q 767 868 769 867 l 638 954 m 85 954 l 74 935 l 203 863 q 210 862 206 861 q 215 864 214 863 l 303 936 l 289 953 l 201 881 q 208 880 199 879 q 214 882 217 881 l 85 954 m 872 -10 l 883 10 l 767 89 q 760 90 764 92 q 753 86 756 89 l 681 7 l 697 -7 l 769 72 q 762 74 772 75 q 756 69 751 72 l 872 -10 m 197 86 l 219 86 l 219 872 q 207 876 219 881 q 200 865 194 872 q 281 762 236 821 q 388 608 325 703 q 388 608 388 608 q 388 608 388 608 l 600 289 q 600 289 600 289 q 600 289 600 289 q 691 157 656 206 q 753 72 726 108 q 765 69 757 67 q 772 79 772 71 l 772 858 l 750 858 l 750 79 q 763 76 750 71 q 769 86 775 81 q 709 171 743 122 q 619 300 675 219 q 619 300 619 300 q 619 300 619 300 l 407 619 q 407 619 407 619 q 407 619 407 619 q 298 775 343 715 q 217 879 253 835 q 204 883 211 886 q 197 872 197 881 l 197 86 m 681 390 l 658 385 l 750 76 l 772 82 l 681 390 m 219 875 l 197 869 l 290 572 l 313 578 l 219 875 m 889 3 q 878 59 883 29 q 871 138 874 89 q 867 270 868 188 q 865 485 865 353 q 867 688 865 608 q 873 815 869 767 q 884 892 876 864 q 901 939 892 919 q 901 951 904 946 q 892 956 899 956 l 632 956 q 623 951 626 956 q 622 939 619 946 q 640 892 633 919 q 651 815 647 864 q 656 688 654 767 q 658 485 658 608 l 658 388 l 679 393 l 306 950 q 296 956 301 956 l 79 956 q 70 951 74 956 q 69 939 67 946 q 88 892 81 919 q 98 815 94 864 q 103 688 101 767 q 106 485 106 608 q 103 270 106 354 q 98 135 101 186 q 88 55 94 83 q 69 6 81 26 q 70 -6 67 0 q 79 -11 74 -11 l 339 -11 q 349 -6 346 -11 q 349 6 351 0 q 331 55 339 26 q 320 135 324 83 q 315 270 317 186 q 313 485 313 354 l 313 575 l 292 569 l 679 -6 q 689 -11 683 -11 l 878 -11 q 887 -7 883 -11 q 889 3 890 -3 m 867 -3 l 878 11 l 689 11 l 699 6 l 311 581 q 298 585 306 588 q 290 575 290 583 l 290 485 q 292 265 290 351 q 299 127 294 179 q 312 45 304 75 q 329 -6 319 15 l 339 11 l 79 11 l 89 -6 q 107 45 100 15 q 119 127 114 75 q 126 265 124 179 q 128 485 128 351 q 126 692 128 611 q 119 823 124 774 q 107 901 114 872 q 89 950 100 929 l 79 933 l 296 933 l 286 939 l 660 382 q 673 377 665 375 q 681 388 681 379 l 681 485 q 678 692 681 611 q 672 823 676 774 q 660 901 667 872 q 642 950 653 929 l 632 933 l 892 933 l 882 950 q 865 901 872 929 q 852 823 857 872 q 845 692 847 774 q 843 485 843 611 q 844 268 843 351 q 849 135 846 185 q 856 54 851 85 q 867 -3 861 24 z "},"O":{"ha":1028,"x_min":40,"x_max":988,"o":"m 514 83 q 333 133 411 83 q 212 269 256 182 q 168 474 168 357 q 168 474 168 474 q 168 474 168 474 q 212 678 168 590 q 333 813 256 765 q 514 861 411 861 q 514 861 514 861 q 514 861 514 861 q 694 813 617 861 q 816 677 772 764 q 860 474 860 590 q 860 474 860 474 q 860 474 860 474 q 816 269 860 357 q 694 133 772 182 q 514 83 617 83 q 514 83 514 83 q 514 83 514 83 m 514 61 q 514 61 514 61 q 514 61 514 61 q 705 113 622 61 q 835 257 788 164 q 882 474 882 350 q 882 474 882 474 q 882 474 882 474 q 835 689 882 597 q 705 832 788 781 q 514 883 622 883 q 514 883 514 883 q 514 883 514 883 q 323 833 406 883 q 193 690 240 782 q 146 474 146 597 q 146 474 146 474 q 146 474 146 474 q 193 257 146 350 q 323 113 240 164 q 514 61 406 61 m 514 171 q 340 252 406 171 q 274 474 274 333 q 340 694 274 614 q 514 774 406 774 q 688 694 622 774 q 754 474 754 614 q 688 252 754 333 q 514 171 622 171 m 514 -6 q 280 56 382 -6 q 120 226 178 118 q 63 474 63 335 q 120 720 63 613 q 280 889 178 828 q 514 950 382 950 q 748 889 646 950 q 908 720 850 828 q 965 474 965 613 q 908 226 965 335 q 748 56 850 118 q 514 -6 646 -6 m 514 149 q 703 235 631 149 q 776 474 776 322 q 703 710 776 624 q 514 796 631 796 q 324 710 397 796 q 251 474 251 625 q 324 235 251 322 q 514 149 397 149 m 514 -28 q 758 37 651 -28 q 926 215 865 101 q 988 474 988 328 q 926 732 988 619 q 758 908 865 844 q 514 972 651 972 q 269 908 376 972 q 101 732 163 844 q 40 474 40 619 q 101 215 40 328 q 269 37 163 101 q 514 -28 376 -28 z "},"P":{"ha":824,"x_min":67,"x_max":800,"o":"m 217 417 l 217 394 l 440 394 q 440 394 440 394 q 440 394 440 394 q 629 460 561 394 q 697 632 697 526 q 697 632 697 632 q 697 632 697 632 q 629 803 697 738 q 440 869 561 869 q 440 869 440 869 q 440 869 440 869 l 217 869 q 209 866 213 869 q 206 858 206 863 l 206 86 l 228 86 l 228 858 q 220 855 228 863 q 217 847 213 847 l 440 847 q 440 847 440 847 q 440 847 440 847 q 613 788 551 847 q 675 632 675 729 q 675 632 675 632 q 675 632 675 632 q 613 476 675 535 q 440 417 551 417 q 440 417 440 417 q 440 417 440 417 l 217 417 m 322 485 l 308 501 l 210 414 q 206 406 206 411 q 210 397 206 400 l 310 311 l 324 328 l 224 414 q 221 406 221 417 q 224 397 221 394 l 322 485 m 347 -10 l 358 10 l 222 96 q 217 97 221 97 q 211 96 214 97 l 74 10 l 85 -10 l 222 76 q 217 79 225 79 q 211 76 208 79 l 347 -10 m 85 954 l 74 935 l 211 849 q 210 849 211 849 q 210 850 210 850 l 314 763 l 328 779 l 224 867 q 224 867 224 867 q 222 868 224 868 l 85 954 m 79 -11 l 353 -11 q 363 -6 360 -11 q 363 4 365 -1 q 344 60 351 28 q 333 154 338 93 q 328 319 329 215 l 317 308 l 439 308 q 632 349 551 308 q 756 464 713 390 q 800 633 800 538 q 756 803 800 731 q 632 915 713 875 q 439 956 551 956 l 79 956 q 70 951 74 956 q 69 939 67 946 q 88 892 81 919 q 98 815 94 864 q 103 688 101 767 q 106 485 106 608 q 103 270 106 354 q 98 135 101 186 q 88 55 94 83 q 69 6 81 26 q 70 -6 67 0 q 79 -11 74 -11 m 326 493 q 328 653 326 585 q 332 769 329 722 l 321 760 l 442 760 q 539 724 504 760 q 574 631 574 689 q 539 538 574 572 q 442 504 504 504 l 315 504 l 326 493 m 79 11 l 89 -6 q 107 45 100 15 q 119 127 114 75 q 126 265 124 179 q 128 485 128 351 q 126 692 128 611 q 119 823 124 774 q 107 901 114 872 q 89 950 100 929 l 79 933 l 439 933 q 620 897 544 933 q 737 792 696 860 q 778 633 778 725 q 737 474 778 543 q 620 368 696 406 q 439 331 544 331 l 317 331 q 309 327 313 331 q 306 319 306 324 q 312 149 307 211 q 324 53 317 86 q 343 -4 332 19 l 353 11 l 79 11 m 304 493 q 308 485 304 489 q 315 482 311 482 l 442 482 q 556 523 515 482 q 596 631 596 564 q 556 740 596 697 q 442 782 515 782 l 321 782 q 313 779 317 782 q 310 772 310 776 q 306 653 307 722 q 304 493 304 585 z "},"Q":{"ha":1028,"x_min":40,"x_max":1092,"o":"m 514 83 q 335 133 413 83 q 213 269 257 182 q 168 474 168 357 q 168 474 168 474 q 168 474 168 474 q 213 678 168 590 q 335 813 257 765 q 514 861 413 861 q 514 861 514 861 q 514 861 514 861 q 693 813 615 861 q 815 677 771 764 q 860 474 860 590 q 860 474 860 474 q 860 474 860 474 q 806 251 860 344 q 661 114 751 158 q 661 114 661 114 q 661 114 661 114 q 592 92 629 100 q 514 83 554 83 q 514 83 514 83 q 514 83 514 83 m 514 61 q 514 61 514 61 q 514 61 514 61 q 596 69 557 61 q 669 94 635 78 q 669 94 669 94 q 669 94 669 94 q 824 239 767 140 q 882 474 882 338 q 882 474 882 474 q 882 474 882 474 q 835 689 882 597 q 704 832 788 781 q 514 883 621 883 q 514 883 514 883 q 514 883 514 883 q 324 833 407 883 q 193 690 240 782 q 146 474 146 597 q 146 474 146 474 q 146 474 146 474 q 193 257 146 350 q 324 113 240 164 q 514 61 407 61 m 1082 -96 l 1076 -74 q 865 -65 971 -106 q 675 110 760 -25 l 656 99 q 786 -47 715 3 q 933 -108 857 -97 q 1082 -96 1010 -118 m 608 -1 l 628 -10 l 675 100 q 669 99 678 103 q 664 93 660 94 l 804 74 l 807 96 l 667 115 q 660 113 664 115 q 656 108 657 111 l 608 -1 m 514 -28 q 574 -24 546 -28 q 621 -17 603 -21 l 610 -12 q 736 -130 668 -87 q 872 -181 804 -172 q 996 -167 939 -189 q 1089 -90 1053 -144 q 1090 -81 1092 -86 q 1082 -74 1089 -75 q 963 -27 1011 -50 q 879 25 914 -4 q 814 92 844 54 l 813 76 q 941 244 894 142 q 988 474 988 347 q 952 674 988 583 q 853 832 917 765 q 703 935 789 899 q 514 972 617 972 q 270 908 378 972 q 101 732 163 844 q 40 474 40 619 q 101 215 40 328 q 270 37 163 101 q 514 -28 378 -28 m 514 171 q 340 252 406 171 q 274 474 274 333 q 340 694 274 614 q 514 774 406 774 q 688 694 622 774 q 754 474 754 614 q 688 252 754 333 q 514 171 622 171 m 514 -6 q 281 56 383 -6 q 121 226 179 118 q 63 474 63 335 q 121 720 63 613 q 281 889 179 828 q 514 950 383 950 q 747 889 644 950 q 907 720 849 828 q 965 474 965 613 q 921 255 965 353 q 799 93 876 157 q 797 78 790 85 q 865 8 828 39 q 952 -47 901 -22 q 1076 -96 1003 -71 l 1069 -79 q 984 -149 1036 -129 q 869 -158 932 -168 q 744 -109 807 -149 q 626 1 681 -69 q 622 6 625 4 q 615 6 618 7 q 572 -2 600 1 q 514 -6 544 -6 m 514 149 q 703 235 631 149 q 776 474 776 322 q 703 710 776 624 q 514 796 631 796 q 324 710 397 796 q 251 474 251 625 q 324 235 251 322 q 514 149 397 149 z "},"R":{"ha":893,"x_min":67,"x_max":935,"o":"m 206 86 l 228 86 l 228 426 q 228 426 228 426 q 228 426 228 426 l 228 858 q 220 855 228 863 q 217 847 213 847 l 440 847 q 440 847 440 847 q 440 847 440 847 q 602 792 543 847 q 661 642 661 736 q 661 642 661 642 q 661 642 661 642 q 613 503 661 558 q 488 438 565 447 q 488 438 488 438 q 489 438 489 438 l 217 438 l 217 415 l 489 415 q 490 415 489 415 q 490 415 490 415 q 630 488 576 426 q 683 642 683 550 q 683 642 683 642 q 683 642 683 642 q 619 807 683 744 q 440 869 554 869 q 440 869 440 869 q 440 869 440 869 l 217 869 q 209 866 213 869 q 206 858 206 863 l 206 426 q 206 426 206 426 q 206 426 206 426 l 206 86 m 499 432 l 479 421 l 703 81 l 722 92 l 499 432 m 322 501 l 308 518 l 210 435 q 206 426 206 432 q 210 418 206 421 l 310 335 l 324 351 l 224 435 q 219 426 219 438 q 224 418 219 415 l 322 501 m 347 -10 l 358 10 l 222 96 q 217 97 221 97 q 211 96 214 97 l 74 10 l 85 -10 l 222 76 q 217 79 225 79 q 211 76 208 79 l 347 -10 m 85 954 l 74 935 l 211 849 q 210 849 211 849 q 210 850 210 850 l 314 763 l 328 779 l 224 867 q 224 867 224 867 q 222 868 224 868 l 85 954 m 428 349 l 447 338 l 499 421 q 492 420 501 424 q 486 415 482 417 l 626 374 l 632 396 l 492 438 q 485 437 489 439 q 479 432 482 435 l 428 349 m 917 -10 l 925 10 l 717 96 q 711 98 714 99 q 706 94 708 97 l 607 8 l 621 -8 l 719 78 q 714 79 722 81 q 708 76 706 78 l 917 -10 m 79 -11 l 353 -11 q 363 -6 360 -11 q 363 6 365 0 q 344 64 351 29 q 333 164 336 99 q 328 343 329 229 l 317 332 l 438 332 l 428 338 q 515 194 481 251 q 567 99 549 136 q 594 40 586 63 q 603 -1 601 17 q 606 -8 603 -6 q 614 -11 610 -11 l 921 -11 q 931 -4 928 -11 q 928 8 935 3 q 883 53 907 28 q 828 118 860 78 q 751 224 797 158 q 639 390 706 290 l 635 375 q 745 484 704 414 q 786 644 786 554 q 744 807 786 738 q 625 916 703 876 q 439 956 547 956 l 79 956 q 70 951 74 956 q 69 939 67 946 q 88 892 81 919 q 98 815 94 864 q 103 688 101 767 q 106 485 106 608 q 103 270 106 354 q 98 135 101 186 q 88 55 94 83 q 69 6 81 26 q 70 -6 67 0 q 79 -11 74 -11 m 442 760 q 528 728 499 760 q 558 640 558 696 q 530 553 558 586 q 456 521 501 521 l 315 521 l 326 510 q 328 662 326 599 q 332 769 329 725 l 321 760 l 442 760 m 79 11 l 89 -6 q 107 45 100 15 q 119 127 114 75 q 126 265 124 179 q 128 485 128 351 q 126 692 128 611 q 119 823 124 774 q 107 901 114 872 q 89 950 100 929 l 79 933 l 439 933 q 613 897 540 933 q 724 797 685 861 q 764 644 764 732 q 726 495 764 560 q 624 394 689 431 q 619 388 619 393 q 619 379 618 382 q 734 211 688 278 q 813 103 781 144 q 869 36 846 61 q 914 -8 893 11 l 921 11 l 614 11 l 625 1 q 616 43 624 19 q 590 104 608 67 q 537 201 571 142 q 447 349 503 260 q 438 354 443 354 l 317 354 q 309 351 313 354 q 306 343 306 347 q 311 158 307 225 q 324 55 315 90 q 343 -6 332 19 l 353 11 l 79 11 m 442 782 l 321 782 q 313 779 317 782 q 310 772 310 776 q 306 662 307 725 q 304 510 304 599 q 308 502 304 506 q 315 499 311 499 l 456 499 q 545 538 510 499 q 581 640 581 576 q 544 743 581 704 q 442 782 507 782 z "},"S":{"ha":740,"x_min":56,"x_max":710,"o":"m 568 833 l 576 856 q 493 876 535 869 q 411 883 451 883 q 411 883 411 883 q 411 883 411 883 q 228 828 294 883 q 161 681 161 774 q 161 681 161 681 q 161 681 161 681 q 192 585 161 624 q 274 517 224 546 q 379 463 324 489 q 379 463 379 463 q 379 463 379 463 q 476 413 429 439 q 553 353 522 388 q 583 267 583 318 q 583 267 583 267 q 583 267 583 267 q 519 129 583 178 q 344 81 454 81 q 344 81 344 81 q 344 81 344 81 q 255 88 301 81 q 163 111 208 96 l 154 89 q 251 66 203 74 q 344 58 300 58 q 344 58 344 58 q 344 58 344 58 q 535 114 464 58 q 606 267 606 169 q 606 267 606 267 q 606 267 606 267 q 574 361 606 324 q 493 427 543 399 q 388 482 443 456 q 388 482 388 482 q 388 482 388 482 q 291 532 338 506 q 214 594 244 558 q 183 681 183 629 q 183 681 183 681 q 183 681 183 681 q 244 813 183 765 q 411 861 306 861 q 411 861 411 861 q 411 861 411 861 q 489 854 449 861 q 568 833 529 847 m 665 914 l 651 931 l 565 853 q 562 846 563 850 q 563 839 561 842 l 649 689 l 668 700 l 582 850 q 579 844 581 853 q 579 836 578 835 l 665 914 m 65 29 l 79 13 l 165 92 q 169 99 168 94 q 168 106 171 103 l 82 257 l 63 246 l 149 94 q 153 101 151 92 q 151 108 154 111 l 65 29 m 61 251 l 61 21 q 63 14 61 17 q 69 10 65 11 q 206 -19 140 -8 q 336 -29 272 -29 q 530 6 446 -29 q 662 109 614 40 q 710 278 710 178 q 672 409 710 357 q 577 495 635 461 q 460 556 519 529 q 377 595 417 576 q 313 638 338 614 q 288 692 288 661 q 316 751 288 728 q 403 775 344 775 q 530 753 463 775 q 651 686 597 731 q 663 685 657 682 q 669 694 669 688 l 669 922 q 667 929 669 926 q 661 933 665 932 q 538 960 597 951 q 421 969 478 969 q 229 934 311 969 q 101 831 147 899 q 56 669 56 764 q 93 536 56 589 q 188 449 131 483 q 306 389 246 415 q 389 351 349 369 q 455 310 429 332 q 481 256 481 288 q 449 193 481 218 q 353 168 418 168 q 213 190 288 168 q 79 260 139 213 q 67 261 74 264 q 61 251 61 258 m 83 251 l 65 243 q 206 170 129 194 q 353 146 283 146 q 467 178 431 146 q 503 256 503 211 q 477 319 503 293 q 409 365 451 344 q 314 408 367 386 q 204 465 258 433 q 114 546 150 497 q 78 669 78 594 q 121 820 78 758 q 241 915 164 882 q 421 947 318 947 q 535 938 476 947 q 656 911 593 929 l 647 922 l 647 694 l 665 703 q 538 774 608 750 q 403 797 467 797 q 299 766 332 797 q 265 692 265 735 q 290 629 265 656 q 358 581 315 603 q 451 536 400 560 q 561 479 507 511 q 651 399 615 447 q 688 278 688 351 q 642 120 688 183 q 518 25 597 57 q 336 -7 439 -7 q 210 3 275 -7 q 75 32 144 14 l 83 21 l 83 251 z "},"T":{"ha":763,"x_min":24,"x_max":739,"o":"m 642 844 l 642 867 l 381 867 q 381 867 381 867 q 381 867 381 867 l 121 867 l 121 844 l 381 844 q 381 844 381 844 q 381 844 381 844 l 642 844 m 392 856 l 369 856 l 369 86 l 392 86 l 392 856 m 513 -10 l 524 10 l 386 96 q 381 97 385 97 q 375 96 378 97 l 239 10 l 250 -10 l 386 76 q 381 79 389 79 q 375 76 372 79 l 513 -10 m 736 936 l 719 953 l 633 864 q 631 857 632 861 q 632 850 631 853 l 718 722 l 738 733 l 651 861 q 649 856 650 865 q 650 847 647 846 l 736 936 m 25 733 l 44 722 l 131 850 q 133 857 133 853 q 129 864 132 861 l 43 953 l 26 936 l 113 847 q 115 856 115 846 q 111 861 114 865 l 25 733 m 271 776 l 285 760 l 388 847 q 381 850 390 850 q 374 847 371 850 l 478 760 l 492 776 l 388 864 q 381 867 385 867 q 374 864 376 867 l 271 776 m 244 -11 l 518 -11 q 528 -6 525 -11 q 528 6 531 0 q 510 55 518 26 q 499 135 503 83 q 494 270 496 186 q 492 485 492 354 q 493 651 492 582 q 496 768 494 719 l 485 757 q 602 750 557 756 q 675 737 647 744 q 722 718 703 729 q 734 719 729 715 q 739 728 739 722 l 739 944 q 735 952 739 949 q 728 956 732 956 l 35 956 q 27 952 31 956 q 24 944 24 949 l 24 728 q 29 719 24 722 q 40 718 35 715 q 87 737 60 729 q 160 750 114 744 q 278 757 206 756 l 267 768 q 270 651 269 719 q 271 485 271 582 q 269 270 271 354 q 263 135 267 186 q 253 55 260 83 q 235 6 246 26 q 235 -6 232 0 q 244 -11 239 -11 m 244 11 l 254 -6 q 272 45 265 15 q 284 127 279 75 q 291 265 289 179 q 293 485 293 351 q 292 651 293 582 q 289 768 292 719 q 285 776 289 774 q 278 779 282 779 q 156 772 203 778 q 79 757 108 765 q 29 738 50 749 l 46 728 l 46 944 l 35 933 l 728 933 l 717 944 l 717 728 l 733 738 q 683 757 713 749 q 607 772 654 765 q 485 779 560 778 q 477 776 481 779 q 474 768 474 774 q 471 651 472 719 q 469 485 469 582 q 472 265 469 351 q 478 127 474 179 q 491 45 483 75 q 508 -6 499 15 l 518 11 l 244 11 z "},"U":{"ha":950,"x_min":53,"x_max":897,"o":"m 758 858 l 736 858 l 736 325 q 736 325 736 325 q 736 325 736 325 q 664 144 736 211 q 475 78 592 78 q 475 78 475 78 q 475 78 475 78 q 286 144 358 78 q 214 325 214 211 q 214 325 214 325 q 214 325 214 325 l 214 858 l 192 858 l 192 325 q 192 325 192 325 q 192 325 192 325 q 227 183 192 243 q 326 89 263 122 q 475 56 390 56 q 475 56 475 56 q 475 56 475 56 q 624 89 560 56 q 723 183 688 122 q 758 325 758 243 q 758 325 758 325 q 758 325 758 325 l 758 858 m 71 954 l 60 935 l 197 849 q 203 847 200 847 q 208 849 207 847 l 344 935 l 333 954 l 197 868 q 203 867 194 867 q 208 868 211 867 l 71 954 m 617 954 l 606 935 l 742 849 q 748 847 744 847 q 753 849 751 847 l 890 935 l 879 954 l 742 868 q 747 867 739 867 q 753 868 756 867 l 617 954 m 475 -33 q 674 8 588 -33 q 810 127 761 50 q 858 310 858 204 l 858 485 q 860 688 858 608 q 866 815 863 767 q 877 892 869 864 q 894 939 885 919 q 894 951 897 946 q 885 956 892 956 l 611 956 q 602 951 606 956 q 601 939 599 946 q 619 892 613 919 q 630 815 626 864 q 635 688 633 767 q 638 485 638 608 l 638 339 q 594 215 638 263 q 475 168 551 168 q 356 215 399 168 q 313 339 313 263 l 313 485 q 315 688 313 608 q 320 815 317 767 q 331 892 324 864 q 349 939 339 919 q 349 951 351 946 q 339 956 346 956 l 65 956 q 56 951 60 956 q 56 939 53 946 q 74 892 67 919 q 84 815 81 864 q 90 688 88 767 q 92 485 92 608 l 92 310 q 140 127 92 204 q 276 8 189 50 q 475 -33 363 -33 m 475 -11 q 288 27 369 -11 q 160 138 207 65 q 114 310 114 210 l 114 485 q 112 692 114 611 q 105 823 110 774 q 93 901 100 872 q 75 950 86 929 l 65 933 l 339 933 l 329 950 q 312 901 319 929 q 299 823 304 872 q 292 692 294 774 q 290 485 290 611 l 290 339 q 340 199 290 251 q 475 146 390 146 q 610 199 560 146 q 660 339 660 251 l 660 485 q 658 692 660 611 q 651 823 656 774 q 639 901 646 872 q 621 950 632 929 l 611 933 l 885 933 l 875 950 q 858 901 865 929 q 845 823 850 872 q 838 692 840 774 q 836 485 836 611 l 836 310 q 790 138 836 210 q 662 27 743 65 q 475 -11 581 -11 z "},"V":{"ha":906,"x_min":-12,"x_max":918,"o":"m 629 953 l 615 936 l 736 839 q 742 837 739 838 q 749 838 746 836 l 911 935 l 900 954 l 738 857 q 744 855 735 856 q 750 856 753 854 l 629 953 m 6 954 l -6 935 l 165 838 q 172 837 168 836 q 178 839 175 838 l 307 936 l 293 953 l 164 856 q 171 855 163 854 q 176 857 179 856 l 6 954 m 182 851 l 160 843 l 290 456 q 290 456 290 456 q 290 456 290 456 q 349 288 318 378 q 401 122 379 197 q 406 116 403 118 q 413 114 408 114 l 501 114 q 508 116 506 114 q 513 122 511 118 q 565 288 535 197 q 624 456 596 378 q 624 456 624 456 q 624 456 624 456 l 754 843 l 732 851 l 601 464 q 601 464 601 464 q 601 464 601 464 q 543 294 574 386 q 490 128 513 203 q 497 131 489 125 q 501 136 506 136 l 413 136 q 417 131 408 136 q 424 128 425 125 q 371 294 401 203 q 313 464 340 386 q 313 464 313 464 q 313 464 313 464 l 182 851 m 339 6 l 358 -6 l 422 119 q 423 121 422 121 q 424 122 424 121 l 472 288 q 462 296 475 296 q 450 288 449 296 l 490 122 q 491 122 490 122 q 492 121 492 121 l 551 -4 l 571 4 l 511 129 q 512 128 511 131 q 513 128 513 126 l 472 293 q 462 301 471 301 q 450 293 453 301 l 401 128 q 402 129 401 128 q 403 131 403 131 l 339 6 m 349 -11 l 561 -11 q 569 -8 565 -11 q 572 0 572 -6 q 578 49 572 21 q 600 124 585 76 q 644 252 615 172 q 717 456 672 332 q 796 672 764 588 q 849 808 828 757 q 885 888 869 858 q 914 938 900 917 q 915 950 918 944 q 906 956 913 956 l 622 956 q 613 951 617 956 q 613 940 610 946 q 625 885 624 915 q 615 806 626 856 q 578 675 604 757 q 508 464 553 593 l 450 294 l 472 294 l 414 464 q 343 675 369 593 q 306 806 317 757 q 298 885 296 856 q 310 940 300 915 q 310 951 313 946 q 300 956 307 956 l 0 956 q -10 950 -7 956 q -8 938 -12 944 q 22 888 7 917 q 57 808 36 858 q 110 672 78 757 q 189 456 142 588 q 261 252 233 332 q 305 124 289 172 q 328 47 321 75 q 338 -1 335 19 q 342 -8 339 -6 q 349 -11 344 -11 m 349 11 l 360 1 q 350 51 357 22 q 327 128 343 79 q 283 258 311 178 q 211 464 256 339 q 131 683 163 597 q 77 819 99 768 q 40 901 56 871 q 8 951 24 931 l 0 933 l 300 933 l 290 949 q 276 892 279 922 q 283 812 272 863 q 319 676 293 761 q 392 456 344 592 l 450 286 q 461 279 453 279 q 472 286 469 279 l 531 456 q 603 676 576 592 q 639 812 629 761 q 646 892 649 863 q 632 949 643 922 l 622 933 l 906 933 l 897 951 q 866 901 882 931 q 828 819 850 871 q 775 683 807 768 q 694 464 743 597 q 622 258 650 339 q 578 127 593 176 q 556 49 563 78 q 550 0 550 21 l 561 11 l 349 11 z "},"W":{"ha":1269,"x_min":-6,"x_max":1275,"o":"m 468 -7 l 488 7 l 417 107 q 408 111 414 111 q 399 107 401 111 l 314 7 l 331 -7 l 415 93 q 406 98 418 97 q 397 93 394 99 l 468 -7 m 13 954 l 1 935 l 167 849 q 173 847 169 847 q 178 849 176 847 l 317 935 l 306 954 l 167 868 q 172 867 164 867 q 178 868 181 867 l 13 954 m 939 -7 l 956 7 l 876 107 q 868 111 874 111 q 860 107 863 111 l 781 7 l 797 -7 l 876 93 q 868 97 879 97 q 860 93 857 97 l 939 -7 m 554 953 l 538 936 l 633 836 q 641 833 636 833 q 650 836 646 833 l 754 936 l 738 953 l 633 853 q 642 849 631 850 q 650 853 653 849 l 554 953 m 981 954 l 969 935 l 1101 849 q 1107 847 1104 847 q 1113 849 1110 847 l 1268 935 l 1257 954 l 1101 868 q 1108 867 1100 867 q 1113 868 1115 867 l 981 954 m 1118 856 l 1096 861 l 857 103 q 869 96 856 96 q 879 103 882 96 l 653 847 q 642 856 650 856 q 631 847 633 856 l 396 103 q 408 96 394 96 q 418 103 421 96 l 183 861 l 161 856 l 396 97 q 407 89 399 89 q 418 97 415 89 l 653 842 q 642 849 656 849 q 631 842 629 849 l 857 97 q 868 89 860 89 q 879 97 876 89 l 1118 856 m 426 397 l 404 397 l 396 100 l 418 100 l 426 397 m 883 400 l 861 400 l 857 100 l 879 100 l 883 400 m 653 844 l 631 844 l 624 542 l 646 542 l 653 844 m 789 -11 l 947 -11 q 955 -8 951 -11 q 958 0 958 -4 q 964 49 958 21 q 984 125 969 76 q 1025 253 999 174 q 1092 457 1051 333 q 1163 673 1135 589 q 1210 808 1192 757 q 1244 889 1229 860 q 1272 939 1258 918 q 1272 950 1275 944 q 1263 956 1269 956 l 975 956 q 966 951 969 956 q 965 940 963 946 q 979 884 976 915 q 972 798 982 853 q 935 649 963 743 q 861 403 908 554 l 883 403 q 809 652 836 557 q 771 802 782 747 q 758 888 760 857 q 757 944 756 919 q 754 952 757 949 q 746 956 751 956 l 546 956 q 538 952 540 956 q 535 944 535 949 q 534 888 536 919 q 519 802 532 857 q 480 651 507 747 q 404 400 453 556 l 426 400 q 352 649 379 554 q 315 798 325 743 q 307 884 304 853 q 321 940 310 915 q 321 951 324 946 q 311 956 318 956 l 7 956 q -2 950 1 956 q -3 939 -6 944 q 26 889 11 918 q 59 808 40 860 q 106 673 78 757 q 178 457 135 589 q 243 252 218 332 q 282 124 268 172 q 302 47 296 75 q 311 -1 308 19 q 315 -8 313 -6 q 322 -11 318 -11 l 478 -11 q 485 -8 482 -11 q 489 0 489 -4 q 528 171 488 44 q 646 539 569 297 l 624 538 q 738 176 701 308 q 778 -1 774 43 q 781 -8 778 -6 q 789 -11 785 -11 m 789 11 l 800 1 q 760 181 796 46 q 646 546 724 315 q 635 553 643 553 q 624 544 626 553 q 537 270 572 381 q 484 94 501 160 q 467 0 467 29 l 478 11 l 322 11 l 333 1 q 324 51 331 22 q 304 128 318 79 q 265 257 290 176 q 200 463 240 338 q 128 681 157 596 q 79 819 99 767 q 45 900 60 871 q 17 950 31 929 l 7 933 l 311 933 l 301 949 q 285 892 289 924 q 292 805 282 861 q 328 651 301 749 q 404 394 356 553 q 415 386 407 386 q 426 394 424 386 q 502 648 475 551 q 542 800 529 744 q 556 888 554 856 q 557 944 558 919 l 546 933 l 746 933 l 735 944 q 735 888 733 919 q 749 800 738 856 q 787 648 760 744 q 861 397 814 551 q 872 389 864 389 q 883 397 881 389 q 958 651 932 554 q 994 804 985 749 q 1001 892 1004 860 q 985 949 997 924 l 975 933 l 1263 933 l 1253 950 q 1224 900 1239 929 q 1190 819 1210 871 q 1142 681 1171 767 q 1069 463 1114 596 q 1003 256 1029 338 q 962 126 976 175 q 942 49 947 76 q 936 0 936 21 l 947 11 l 789 11 z "},"X":{"ha":913,"x_min":-12,"x_max":926,"o":"m 696 81 l 715 92 l 465 490 q 465 490 465 490 q 465 490 465 490 l 235 864 l 215 853 l 446 479 q 446 479 446 479 q 446 479 446 479 l 696 81 m 183 92 l 203 81 l 465 479 q 465 479 465 479 q 465 479 465 479 l 711 853 l 692 864 l 446 490 q 446 490 446 490 q 446 490 446 490 l 183 92 m 285 -8 l 299 8 l 200 94 q 195 98 199 97 q 189 96 192 99 l -4 10 l 4 -10 l 197 76 q 192 79 200 78 q 186 78 183 81 l 285 -8 m 18 954 l 10 935 l 221 849 q 227 848 224 847 q 232 850 231 849 l 340 936 l 326 953 l 218 867 q 224 866 217 865 q 229 868 232 867 l 18 954 m 908 -10 l 917 10 l 710 96 q 704 97 707 97 q 699 94 701 97 l 586 8 l 600 -8 l 713 78 q 707 78 715 79 q 701 76 699 78 l 908 -10 m 610 953 l 596 936 l 694 850 q 700 848 697 849 q 706 849 703 847 l 899 935 l 890 954 l 697 868 q 703 866 694 867 q 708 867 711 865 l 610 953 m 343 486 l 346 464 l 457 474 q 457 474 457 474 q 457 474 457 474 l 567 483 l 564 506 l 454 496 q 454 496 454 496 q 454 496 454 496 l 343 486 m 478 653 l 456 656 l 444 486 q 444 486 444 486 q 444 486 444 486 l 433 317 l 456 314 l 467 483 q 467 483 467 483 q 467 483 467 483 l 478 653 m 575 489 q 709 688 656 610 q 797 813 763 765 q 856 888 832 860 q 901 936 881 915 q 905 949 908 942 q 894 956 901 956 l 603 956 q 594 952 597 956 q 592 944 592 949 q 584 889 593 919 q 546 806 575 858 q 457 660 517 753 l 476 660 q 392 804 421 751 q 353 888 363 857 q 344 944 343 919 q 342 952 344 949 q 333 956 339 956 l 14 956 q 4 949 7 956 q 7 936 1 942 q 53 887 28 915 q 113 809 78 858 q 202 678 149 760 q 335 469 256 597 l 335 481 q 194 269 250 351 q 101 136 138 186 q 40 58 64 86 q -7 8 15 29 q -10 -4 -12 3 q 0 -11 -7 -11 l 292 -11 q 300 -8 297 -11 q 303 0 303 -4 q 311 59 301 26 q 354 150 321 92 q 454 310 388 208 l 435 310 q 529 151 497 210 q 572 60 561 93 q 582 0 583 26 q 585 -8 582 -4 q 593 -11 588 -11 l 913 -11 q 923 -4 919 -11 q 919 8 926 3 q 871 60 897 29 q 806 144 844 90 q 712 283 768 197 q 575 500 656 369 l 575 489 m 556 500 q 556 489 553 494 q 694 269 638 357 q 789 128 750 182 q 856 44 828 75 q 906 -8 883 13 l 913 11 l 593 11 l 604 0 q 600 44 606 21 q 579 102 594 68 q 533 189 564 136 q 454 321 503 242 q 445 326 451 326 q 435 321 439 326 q 351 189 382 242 q 304 102 319 136 q 284 44 289 68 q 281 0 279 21 l 292 11 l 0 11 l 7 -8 q 56 42 31 13 q 117 122 81 71 q 211 256 154 172 q 354 469 268 340 q 354 481 357 475 q 219 692 274 608 q 129 825 165 775 q 68 903 93 875 q 21 953 43 932 l 14 933 l 333 933 l 322 944 q 331 887 321 918 q 369 801 340 856 q 457 649 399 746 q 467 643 460 643 q 476 649 474 643 q 569 800 539 746 q 607 886 599 854 q 614 944 615 918 l 603 933 l 894 933 l 888 953 q 840 904 865 932 q 780 828 815 876 q 691 701 744 779 q 556 500 638 622 z "},"Y":{"ha":865,"x_min":-21,"x_max":886,"o":"m 183 863 l 164 854 q 213 754 182 815 q 294 598 243 693 q 424 361 344 503 q 433 356 426 356 q 443 361 440 356 q 574 598 522 503 q 658 754 626 693 q 707 854 690 815 l 688 863 q 639 763 671 824 q 555 608 607 703 q 424 372 503 514 q 433 367 421 367 q 443 372 446 367 q 314 608 365 514 q 232 763 263 701 q 183 863 201 824 m 444 551 l 422 551 l 422 367 q 422 367 422 367 q 422 367 422 367 l 422 86 l 444 86 l 444 367 q 444 367 444 367 q 444 367 444 367 l 444 551 m 565 -10 l 576 10 l 439 96 q 434 97 438 97 q 428 96 431 97 l 292 10 l 303 -10 l 439 76 q 433 79 442 79 q 428 76 425 79 l 565 -10 m -3 954 l -11 935 l 169 849 q 175 848 172 847 q 181 850 178 849 l 296 936 l 282 953 l 167 867 q 173 866 165 865 q 178 868 181 867 l -3 954 m 593 953 l 579 936 l 690 850 q 697 848 693 849 q 703 849 700 847 l 878 935 l 867 954 l 692 868 q 699 866 690 867 q 704 867 707 865 l 593 953 m 333 369 l 336 347 l 435 356 q 433 356 435 356 q 432 356 432 356 l 532 347 l 535 369 l 435 378 q 433 378 433 378 q 432 378 433 378 l 333 369 m 872 956 l 586 956 q 577 951 581 956 q 575 942 574 947 q 580 893 582 919 q 563 826 578 867 q 514 722 547 786 q 424 557 481 657 l 443 557 q 353 723 386 658 q 308 828 321 788 q 294 894 294 868 q 300 942 294 919 q 298 951 301 947 q 289 956 294 956 l -7 956 q -17 949 -14 956 q -15 938 -21 943 q 19 895 1 919 q 60 832 36 871 q 118 731 83 793 q 203 577 153 669 q 325 353 253 485 l 324 358 q 318 170 322 239 q 307 65 314 101 q 288 4 300 29 q 288 -6 285 -1 q 297 -11 292 -11 l 571 -11 q 581 -6 578 -11 q 581 4 583 -1 q 562 65 569 29 q 550 169 554 100 q 544 358 546 238 l 543 353 q 687 617 631 514 q 778 783 743 721 q 836 879 813 844 q 881 938 860 914 q 883 949 886 943 q 872 956 879 956 m 872 933 l 864 951 q 819 893 843 928 q 760 796 796 858 q 667 630 724 733 q 524 364 611 526 q 522 361 522 363 q 522 358 522 360 q 528 163 524 233 q 542 57 533 93 q 561 -4 550 21 l 571 11 l 297 11 l 307 -4 q 327 58 319 21 q 340 165 335 94 q 346 358 344 235 q 346 361 346 360 q 344 364 346 363 q 222 590 272 497 q 136 745 171 683 q 77 846 101 807 q 35 909 53 885 q 1 951 18 933 l -7 933 l 289 933 l 278 947 q 272 897 272 924 q 284 829 271 871 q 331 720 297 788 q 424 546 364 653 q 433 540 426 540 q 443 546 440 540 q 537 720 503 653 q 586 829 571 788 q 603 897 601 871 q 597 947 604 924 l 586 933 l 872 933 z "},"Z":{"ha":817,"x_min":29,"x_max":788,"o":"m 164 860 l 167 838 q 314 844 233 843 q 465 846 394 846 q 465 846 465 846 q 465 846 465 846 l 617 846 q 617 857 624 846 q 607 863 610 868 l 190 93 q 191 82 188 88 q 200 76 194 76 l 339 76 q 339 76 339 76 q 339 76 339 76 q 488 78 410 76 q 638 86 567 81 l 635 108 q 488 101 567 103 q 339 99 410 99 q 339 99 339 99 q 339 99 339 99 l 200 99 q 201 88 194 99 q 210 82 207 76 l 626 851 q 626 863 629 858 q 617 868 624 868 l 465 868 q 465 868 465 868 q 465 868 465 868 q 314 867 394 868 q 164 860 233 865 m 69 735 l 89 721 l 175 842 q 177 849 178 844 q 174 856 176 854 l 88 951 l 71 938 l 157 842 q 159 849 160 839 q 156 856 158 858 l 69 735 m 758 224 l 742 238 l 628 104 q 625 97 625 101 q 628 90 625 93 l 714 -7 l 731 7 l 644 104 q 642 97 642 107 q 644 90 642 88 l 758 224 m 36 10 l 47 -10 l 206 78 q 206 78 206 78 q 206 78 206 78 l 365 164 l 354 183 l 194 97 q 194 97 194 97 q 194 97 194 97 l 36 10 m 781 935 l 769 954 l 611 867 q 611 867 611 867 q 611 867 611 867 l 451 779 l 463 760 l 622 847 q 622 847 622 847 q 622 847 622 847 l 781 935 m 775 956 l 79 956 q 72 952 75 956 q 68 944 68 949 l 68 728 q 74 719 68 722 q 85 718 79 715 q 125 736 101 728 q 188 750 149 744 q 292 758 226 756 q 457 758 357 761 l 447 775 l 32 6 q 33 -6 29 0 q 42 -11 36 -11 l 722 -11 q 729 -8 726 -11 q 733 -1 732 -6 l 761 229 q 756 240 763 236 q 743 239 750 244 q 678 206 718 219 q 565 188 639 193 q 360 185 492 182 l 369 168 l 785 939 q 785 951 788 946 q 775 956 782 956 m 775 933 l 765 950 l 350 179 q 351 168 347 174 q 360 163 354 163 q 530 164 463 161 q 640 174 597 167 q 710 194 683 182 q 757 222 736 206 l 739 232 l 711 1 l 722 11 l 42 11 l 51 -6 l 467 764 q 467 775 469 769 q 457 781 464 781 q 288 781 354 783 q 181 771 222 778 q 116 756 140 764 q 74 738 92 747 l 90 728 l 90 944 l 79 933 l 775 933 z "},"a":{"ha":853,"x_min":-19,"x_max":872,"o":"m 144 101 l 167 93 l 219 243 q 219 243 219 243 q 218 243 218 243 l 396 718 q 391 716 399 721 q 386 711 383 711 l 457 711 q 453 716 460 711 q 447 718 446 721 l 625 243 q 624 243 625 243 q 624 243 624 243 l 675 93 l 697 101 l 646 251 q 646 251 646 251 q 644 251 646 251 l 467 726 q 457 733 464 733 l 386 733 q 376 726 379 733 l 199 251 q 197 251 197 251 q 197 251 197 251 l 144 101 m 635 236 l 635 258 l 208 258 l 208 236 l 635 236 m 331 813 l 314 799 l 378 715 q 376 718 378 714 q 375 721 375 722 l 406 558 q 417 549 408 549 q 428 557 426 549 l 468 719 q 466 717 468 721 q 465 715 464 714 l 539 799 l 522 813 l 449 729 q 447 727 447 728 q 446 725 447 726 l 406 563 q 417 553 404 554 q 428 561 429 553 l 397 724 q 397 727 397 726 q 394 729 396 728 l 331 813 m 336 321 l 322 340 l 201 257 q 198 249 199 254 q 200 240 197 244 l 267 158 l 283 172 l 217 254 q 213 247 214 258 q 215 238 211 236 l 336 321 m 510 340 l 499 321 l 629 238 q 632 247 633 236 q 626 254 631 258 l 550 172 l 567 158 l 643 240 q 646 249 646 243 q 640 257 646 254 l 510 340 m 263 -8 l 276 8 l 163 106 q 157 109 161 108 q 150 107 153 110 l -12 10 l -1 -10 l 161 88 q 155 91 164 90 q 149 89 146 92 l 263 -8 m 854 -10 l 865 10 l 692 107 q 685 109 689 110 q 679 106 682 108 l 557 8 l 571 -8 l 693 89 q 687 91 696 92 q 681 88 678 90 l 854 -10 m 868 7 q 839 50 854 25 q 803 118 824 75 q 753 233 783 161 q 679 419 724 306 q 612 596 638 528 q 572 704 586 664 q 551 767 558 744 q 542 807 544 790 q 538 814 540 811 q 531 817 535 817 l 322 817 q 315 814 318 817 q 311 806 311 811 q 303 766 310 789 q 282 703 297 743 q 240 594 267 663 q 174 419 214 526 q 99 233 129 306 q 49 118 69 161 q 14 50 29 75 q -15 7 -1 25 q -17 -5 -19 1 q -7 -11 -14 -11 l 269 -11 q 279 -6 276 -11 q 281 4 282 -1 q 269 62 271 29 q 286 163 268 94 l 275 154 l 558 154 l 547 163 q 565 62 567 94 q 553 4 563 29 q 555 -6 551 -1 q 564 -11 558 -11 l 860 -11 q 869 -5 867 -11 q 868 7 872 1 m 407 556 l 494 326 l 504 342 l 329 342 l 339 326 l 426 556 l 407 556 m 851 -7 l 860 11 l 564 11 l 575 -4 q 587 60 585 24 q 569 168 589 96 q 565 174 568 172 q 558 176 563 176 l 275 176 q 268 174 271 176 q 264 168 265 172 q 247 60 246 96 q 258 -4 249 24 l 269 11 l -7 11 l 1 -7 q 31 36 15 11 q 67 105 46 61 q 118 222 88 149 q 193 411 149 296 q 263 590 236 521 q 305 701 290 660 q 326 765 319 742 q 333 806 332 788 l 322 794 l 531 794 l 519 804 q 529 763 522 786 q 551 699 536 740 q 592 589 565 658 q 660 411 618 519 q 734 222 704 296 q 785 105 764 149 q 822 36 807 61 q 851 -7 838 11 m 426 564 q 417 571 425 571 q 407 564 410 571 l 319 335 q 321 324 318 329 q 329 319 324 319 l 504 319 q 514 324 511 319 q 514 335 517 329 l 426 564 z "},"b":{"ha":742,"x_min":57,"x_max":711,"o":"m 203 69 l 408 69 q 408 69 408 69 q 408 69 408 69 q 555 119 499 69 q 611 244 611 168 q 611 244 611 244 q 611 244 611 244 q 547 376 611 326 q 375 425 482 425 q 364 414 364 425 q 375 403 364 403 q 526 449 468 403 q 583 574 583 496 q 583 574 583 574 q 583 574 583 574 q 530 691 583 646 q 385 736 476 736 q 385 736 385 736 q 385 736 385 736 l 203 736 q 195 733 199 736 q 192 725 192 729 l 192 414 q 192 414 192 414 q 192 414 192 414 l 192 81 q 195 73 192 76 q 203 69 199 69 m 203 92 q 206 84 199 92 q 214 81 214 76 l 214 414 q 214 414 214 414 q 214 414 214 414 l 214 725 q 206 722 214 729 q 203 714 199 714 l 385 714 q 385 714 385 714 q 385 714 385 714 q 514 676 467 714 q 561 574 561 638 q 561 574 561 574 q 561 574 561 574 q 509 465 561 504 q 375 425 457 425 q 364 414 364 425 q 375 403 364 403 q 530 360 471 403 q 589 244 589 318 q 589 244 589 244 q 589 244 589 244 q 538 134 589 176 q 408 92 488 92 q 408 92 408 92 q 408 92 408 92 l 203 92 m 310 153 l 296 169 l 196 89 q 197 90 196 89 q 197 90 197 90 l 64 10 l 75 -10 l 208 71 q 209 72 208 71 q 210 72 210 72 l 310 153 m 75 815 l 64 796 l 197 715 q 197 716 197 715 q 196 717 196 717 l 296 636 l 310 653 l 210 733 q 209 734 210 733 q 208 735 208 735 l 75 815 m 304 481 l 290 497 l 196 422 q 192 414 192 419 q 196 406 192 408 l 290 329 l 304 346 l 210 422 q 206 414 206 425 q 210 406 206 403 l 304 481 m 203 425 l 203 403 q 281 403 239 403 q 375 403 324 403 q 375 403 375 403 q 375 403 375 403 q 440 406 407 404 q 511 408 474 407 q 590 411 549 410 l 590 433 q 526 431 560 432 q 454 428 492 429 q 375 425 417 426 q 375 425 375 425 q 375 425 375 425 q 298 425 340 425 q 203 425 256 425 m 69 -11 l 411 -11 q 567 21 500 -11 q 673 109 635 53 q 711 239 711 165 q 681 353 711 304 q 596 432 651 401 l 597 413 q 660 484 638 442 q 683 582 683 526 q 601 751 683 686 q 378 817 519 817 l 69 817 q 60 812 64 817 q 60 800 57 807 q 76 758 69 782 q 88 694 83 735 q 94 587 92 654 q 96 415 96 519 q 94 231 96 303 q 88 116 92 160 q 76 48 83 72 q 60 6 69 24 q 60 -6 57 0 q 69 -11 64 -11 m 392 633 q 442 615 424 633 q 461 565 461 597 q 442 518 461 536 q 392 500 422 500 l 297 500 l 308 489 q 311 576 310 538 q 314 643 313 614 l 303 633 l 392 633 m 406 326 q 467 306 444 326 q 489 250 489 286 q 465 193 489 214 q 406 172 442 172 l 303 172 l 314 161 q 311 238 313 194 q 308 338 310 282 l 297 326 l 406 326 m 69 11 l 79 -6 q 96 39 89 14 q 108 108 103 64 q 115 226 113 153 q 118 415 118 300 q 115 592 118 524 q 108 702 113 661 q 96 768 103 743 q 79 811 89 793 l 69 794 l 378 794 q 585 736 510 794 q 661 582 661 678 q 640 495 661 533 q 583 432 619 457 q 579 422 579 428 q 585 413 579 415 q 663 341 636 385 q 689 239 689 297 q 653 119 689 171 q 556 40 618 68 q 411 11 493 11 l 69 11 m 392 656 l 303 656 q 295 653 299 656 q 292 646 292 650 q 289 576 290 615 q 286 489 288 538 q 290 481 286 485 q 297 478 293 478 l 392 478 q 457 503 431 478 q 483 565 483 528 q 459 631 483 606 q 392 656 435 656 m 406 349 l 297 349 q 290 345 293 349 q 286 338 286 342 q 289 238 288 282 q 292 161 290 194 q 295 153 292 156 q 303 150 299 150 l 406 150 q 481 178 450 150 q 511 250 511 206 q 483 322 511 294 q 406 349 454 349 z "},"c":{"ha":751,"x_min":29,"x_max":686,"o":"m 585 697 l 593 717 q 523 740 560 732 q 447 749 486 749 q 447 749 447 749 q 447 749 447 749 q 281 705 353 749 q 170 583 210 661 q 131 401 131 506 q 131 401 131 401 q 131 401 131 401 q 170 220 131 297 q 281 101 210 143 q 447 58 353 58 q 447 58 447 58 q 447 58 447 58 q 524 66 488 58 q 593 88 560 74 l 585 107 q 519 88 554 96 q 447 81 485 81 q 447 81 447 81 q 447 81 447 81 q 292 120 358 81 q 190 232 226 160 q 153 401 153 304 q 153 401 153 401 q 153 401 153 401 q 190 572 153 499 q 292 685 226 644 q 447 726 358 726 q 447 726 447 726 q 447 726 447 726 q 519 718 483 726 q 585 697 554 710 m 682 767 l 668 783 l 582 715 q 578 710 579 714 q 579 701 578 706 l 665 544 l 685 556 l 599 713 q 595 706 597 715 q 596 699 593 696 l 682 767 m 685 250 l 665 261 l 579 103 q 578 95 578 99 q 582 89 579 92 l 668 22 l 682 39 l 596 106 q 595 99 593 108 q 599 92 597 89 l 685 250 m 254 403 q 308 578 254 514 q 446 642 361 642 q 564 612 507 642 q 668 542 621 582 q 680 540 674 536 q 686 550 686 543 l 686 775 q 684 781 686 778 q 679 785 682 783 q 572 820 631 807 q 447 833 514 833 q 227 778 321 833 q 81 625 133 722 q 29 400 29 528 q 81 177 29 274 q 227 26 133 81 q 447 -28 321 -28 q 572 -15 514 -28 q 679 21 631 -1 q 686 31 686 24 l 686 256 q 680 266 686 263 q 668 264 674 269 q 564 193 619 221 q 447 165 508 165 q 308 228 363 165 q 254 403 254 292 m 232 403 q 293 212 232 281 q 447 143 354 143 q 572 173 513 143 q 682 247 631 203 l 664 256 l 664 31 l 671 40 q 568 8 624 21 q 447 -6 513 -6 q 238 46 326 -6 q 100 188 149 97 q 51 400 51 279 q 100 615 51 522 q 238 759 149 707 q 447 811 326 811 q 568 798 513 811 q 671 765 624 785 l 664 775 l 664 550 l 682 558 q 572 632 633 600 q 446 664 511 664 q 292 594 353 664 q 232 403 232 525 z "},"d":{"ha":857,"x_min":57,"x_max":828,"o":"m 203 72 l 393 72 q 393 72 393 72 q 393 72 393 72 q 567 113 492 72 q 684 228 642 154 q 726 404 726 303 q 726 404 726 404 q 726 404 726 404 q 684 578 726 504 q 567 692 642 651 q 393 733 492 733 q 393 733 393 733 q 393 733 393 733 l 203 733 q 195 730 199 733 q 192 722 192 726 l 192 83 q 195 76 192 79 q 203 72 199 72 m 203 94 q 206 87 199 94 q 214 83 214 79 l 214 722 q 206 719 214 726 q 203 711 199 711 l 393 711 q 393 711 393 711 q 393 711 393 711 q 556 674 486 711 q 665 567 625 636 q 704 404 704 499 q 704 404 704 404 q 704 404 704 404 q 665 240 704 310 q 556 132 625 169 q 393 94 486 94 q 393 94 393 94 q 393 94 393 94 l 203 94 m 310 157 l 296 174 l 196 92 q 197 92 196 92 q 197 93 197 93 l 64 10 l 75 -10 l 208 74 q 210 74 210 74 q 210 75 210 75 l 310 157 m 75 815 l 64 796 l 197 713 q 197 713 197 713 q 196 714 196 714 l 294 632 l 308 649 l 210 731 q 210 731 210 731 q 208 732 210 732 l 75 815 m 69 -11 l 400 -11 q 620 40 524 -11 q 772 185 717 92 q 828 404 828 278 q 772 622 828 529 q 620 765 717 714 q 400 817 524 817 l 69 817 q 60 812 64 817 q 60 800 57 807 q 76 758 69 782 q 88 694 83 735 q 94 587 92 654 q 96 415 96 519 q 94 231 96 303 q 88 116 92 160 q 76 48 83 72 q 60 6 69 24 q 60 -6 57 0 q 69 -11 64 -11 m 386 629 q 545 568 488 629 q 603 404 603 507 q 545 238 603 300 q 386 176 488 176 l 303 176 l 314 167 q 310 270 311 210 q 308 415 308 331 q 310 546 308 490 q 313 640 311 601 l 301 629 l 386 629 m 69 11 l 79 -6 q 96 39 89 14 q 108 108 103 64 q 115 226 113 153 q 118 415 118 300 q 115 591 118 522 q 108 701 113 660 q 96 768 103 743 q 79 811 89 793 l 69 794 l 400 794 q 609 747 518 794 q 753 611 700 699 q 806 404 806 524 q 753 197 806 285 q 609 60 700 108 q 400 11 518 11 l 69 11 m 386 651 l 301 651 q 294 649 297 651 q 290 640 290 646 q 288 546 289 601 q 286 415 286 490 q 288 269 286 331 q 292 164 289 208 q 295 157 292 160 q 303 154 299 154 l 386 154 q 560 222 496 154 q 625 404 625 290 q 560 584 625 517 q 386 651 496 651 z "},"e":{"ha":672,"x_min":57,"x_max":621,"o":"m 460 406 l 460 428 l 203 428 l 203 406 l 460 406 m 496 703 l 499 725 q 399 731 454 729 q 291 734 343 733 q 203 732 239 735 q 194 728 197 732 q 192 721 192 725 l 192 417 q 192 417 192 417 q 192 417 192 417 l 192 85 q 194 77 192 81 q 203 74 197 74 q 290 72 239 72 q 396 74 342 72 q 496 81 450 76 l 493 103 q 395 97 449 99 q 290 94 342 94 q 203 96 239 94 q 206 88 199 96 q 214 85 214 81 l 214 417 q 214 417 214 417 q 214 417 214 417 l 214 721 q 206 717 214 725 q 203 710 199 710 q 291 712 239 713 q 398 709 343 711 q 496 703 453 707 m 592 799 l 575 813 l 489 721 q 487 715 488 719 q 489 707 486 710 l 575 592 l 592 606 l 506 721 q 503 714 504 724 q 506 707 503 704 l 592 799 m 617 215 l 600 229 l 486 99 q 483 92 483 96 q 486 85 483 88 l 572 -7 l 589 7 l 503 99 q 500 92 500 101 q 503 85 500 82 l 617 215 m 554 519 l 538 533 l 451 424 q 449 417 449 421 q 451 410 449 413 l 538 301 l 554 315 l 468 424 q 467 417 467 426 q 468 410 467 407 l 554 519 m 75 815 l 64 796 l 197 711 q 197 712 197 711 q 196 713 196 713 l 294 632 l 308 649 l 210 729 q 210 730 210 729 q 208 731 210 731 l 75 815 m 64 10 l 75 -10 l 208 75 q 210 76 210 75 q 210 76 210 76 l 310 157 l 296 174 l 196 93 q 197 94 196 93 q 197 94 197 94 l 64 10 m 304 488 l 290 504 l 196 425 q 192 417 192 422 q 196 408 192 411 l 290 329 l 304 346 l 210 425 q 206 417 206 428 q 210 408 206 406 l 304 488 m 69 -11 l 581 -11 q 588 -8 585 -11 q 592 -1 590 -6 l 619 221 q 615 232 621 228 q 601 231 608 236 q 549 201 579 214 q 461 181 518 188 q 303 176 404 175 l 314 165 q 311 240 313 199 q 308 338 310 282 l 297 326 q 431 322 385 325 q 501 314 478 319 q 540 299 524 308 q 552 299 547 296 q 557 308 557 303 l 557 526 q 552 536 557 533 q 540 536 547 539 q 500 521 524 526 q 431 512 476 515 q 297 507 385 508 l 308 496 q 310 576 310 540 q 313 640 311 613 l 301 629 q 453 624 400 631 q 533 608 506 618 q 578 588 560 599 q 590 588 585 585 q 594 597 594 592 l 594 806 q 591 813 594 810 q 583 817 588 817 l 69 817 q 60 812 64 817 q 60 800 57 807 q 76 758 69 782 q 88 694 83 735 q 94 587 92 654 q 96 415 96 519 q 94 231 96 303 q 88 116 92 160 q 76 48 83 72 q 60 6 69 24 q 60 -6 57 0 q 69 -11 64 -11 m 69 11 l 79 -6 q 96 39 89 14 q 108 108 103 64 q 115 226 113 153 q 118 415 118 300 q 115 591 118 522 q 108 701 113 660 q 96 768 103 743 q 79 811 89 793 l 69 794 l 583 794 l 572 806 l 572 597 l 589 607 q 541 628 569 618 q 458 646 513 639 q 301 651 403 653 q 294 649 297 651 q 290 640 290 646 q 288 576 289 613 q 286 496 288 540 q 290 488 286 492 q 297 485 293 485 q 437 490 389 486 q 509 501 485 494 q 551 517 533 507 l 535 526 l 535 308 l 551 318 q 509 334 533 328 q 437 344 485 340 q 297 349 389 347 q 290 345 293 349 q 286 338 286 342 q 289 240 288 282 q 292 165 290 199 q 295 157 292 160 q 303 154 299 154 q 468 160 408 153 q 560 181 528 167 q 615 214 592 196 l 597 224 l 569 1 l 581 11 l 69 11 z "},"f":{"ha":643,"x_min":57,"x_max":599,"o":"m 192 86 l 214 86 l 214 392 q 214 392 214 392 q 214 392 214 392 l 214 722 q 206 719 214 726 q 203 711 199 711 q 360 710 279 713 q 500 703 442 707 l 503 725 q 361 732 443 729 q 203 733 279 735 q 195 730 199 733 q 192 722 192 726 l 192 392 q 192 392 192 392 q 192 392 192 392 l 192 86 m 464 381 l 464 403 l 203 403 l 203 381 l 464 381 m 596 799 l 579 813 l 493 721 q 491 715 492 719 q 493 707 490 710 l 579 590 l 596 604 l 510 721 q 508 714 508 724 q 510 707 507 704 l 596 799 m 558 493 l 542 507 l 456 399 q 453 392 453 396 q 456 385 453 388 l 542 275 l 558 289 l 472 399 q 471 392 471 401 q 472 385 471 382 l 558 493 m 75 815 l 64 796 l 197 713 q 197 713 197 713 q 196 714 196 714 l 294 632 l 308 649 l 210 731 q 210 731 210 731 q 208 732 210 732 l 75 815 m 304 461 l 290 478 l 196 400 q 192 392 192 397 q 196 383 192 386 l 290 303 l 304 319 l 210 400 q 206 392 206 403 q 210 383 206 381 l 304 461 m 329 -10 l 340 10 l 208 96 q 203 97 207 97 q 197 96 200 97 l 64 10 l 75 -10 l 208 76 q 203 79 211 79 q 197 76 194 79 l 329 -10 m 69 -11 l 335 -11 q 344 -6 342 -11 q 344 6 347 0 q 326 57 333 26 q 314 147 318 88 q 308 311 310 206 l 297 300 q 435 297 388 300 q 505 288 482 293 q 544 272 528 282 q 556 273 551 269 q 561 282 561 276 l 561 500 q 556 510 561 507 q 544 510 551 513 q 503 494 526 500 q 434 485 481 488 q 297 481 388 482 l 308 469 q 310 566 308 524 q 313 640 311 608 l 301 629 q 457 624 403 631 q 538 608 511 618 q 582 588 564 599 q 594 588 589 585 q 599 597 599 592 l 599 806 q 595 813 599 810 q 588 817 592 817 l 69 817 q 60 812 64 817 q 60 800 57 807 q 76 758 69 782 q 88 694 83 735 q 94 587 92 654 q 96 415 96 519 q 94 231 96 303 q 88 116 92 160 q 76 48 83 72 q 60 6 69 24 q 60 -6 57 0 q 69 -11 64 -11 m 69 11 l 79 -6 q 96 39 89 14 q 108 108 103 64 q 115 226 113 153 q 118 415 118 300 q 115 591 118 522 q 108 701 113 660 q 96 768 103 743 q 79 811 89 793 l 69 794 l 588 794 l 576 806 l 576 597 l 593 607 q 545 628 574 618 q 461 646 517 639 q 301 651 406 653 q 294 649 297 651 q 290 640 290 646 q 288 566 289 608 q 286 469 286 524 q 290 462 286 465 q 297 458 293 458 q 440 463 392 460 q 513 474 489 467 q 556 490 536 481 l 539 500 l 539 282 l 556 292 q 513 308 538 301 q 440 318 489 314 q 297 322 392 322 q 290 319 293 322 q 286 311 286 315 q 292 140 288 201 q 306 48 297 79 q 325 -6 314 17 l 335 11 l 69 11 z "},"g":{"ha":822,"x_min":29,"x_max":769,"o":"m 628 690 l 636 710 q 553 740 596 729 q 465 750 511 750 q 465 750 465 750 q 465 750 465 750 q 291 706 367 750 q 173 583 215 663 q 131 400 131 504 q 131 400 131 400 q 131 400 131 400 q 172 220 131 299 q 288 97 213 142 q 463 53 363 53 q 463 53 463 53 q 463 53 463 53 q 560 67 513 53 q 656 104 608 81 q 660 108 658 106 q 661 114 661 111 q 659 246 660 194 q 657 331 658 297 l 635 331 q 637 246 636 297 q 639 114 638 194 q 643 119 639 111 q 644 124 647 126 q 556 88 601 101 q 463 75 511 75 q 463 75 463 75 q 463 75 463 75 q 298 117 368 75 q 190 231 228 158 q 153 400 153 304 q 153 400 153 400 q 153 400 153 400 q 192 571 153 497 q 301 686 231 644 q 465 728 372 728 q 465 728 465 728 q 465 728 465 728 q 549 717 510 728 q 628 690 589 707 m 725 760 l 711 776 l 625 708 q 622 703 622 707 q 622 694 621 699 l 708 536 l 728 547 l 642 706 q 638 699 640 708 q 639 692 636 689 l 725 760 m 524 426 l 513 407 l 640 321 q 647 320 643 319 q 653 322 650 321 l 764 408 l 750 425 l 639 339 q 645 338 636 338 q 651 340 654 339 l 524 426 m 564 175 l 553 156 l 644 104 q 644 104 644 104 q 644 104 644 104 l 735 46 l 746 65 l 656 124 q 656 124 656 124 q 656 124 656 124 l 564 175 m 751 56 q 752 217 751 154 q 756 317 753 279 q 761 376 758 354 q 768 414 764 399 q 766 424 769 419 q 757 428 763 428 l 518 428 q 509 423 513 428 q 508 411 506 418 q 526 369 518 394 q 539 297 533 344 q 547 165 544 250 l 554 176 q 513 165 533 169 q 469 161 492 161 q 312 227 369 161 q 254 404 254 293 q 312 579 254 515 q 467 643 369 643 q 592 614 532 643 q 711 533 653 585 q 723 531 717 528 q 729 542 729 535 l 729 767 q 727 773 729 769 q 722 778 725 776 q 597 817 660 800 q 464 833 535 833 q 237 777 335 833 q 84 622 139 721 q 29 394 29 524 q 82 177 29 274 q 231 24 135 81 q 456 -32 326 -32 q 601 -9 532 -32 q 744 46 669 14 q 751 56 751 49 m 729 56 l 736 65 q 597 13 664 35 q 456 -10 529 -10 q 242 43 333 -10 q 101 188 151 96 q 51 394 51 279 q 103 610 51 517 q 249 758 156 704 q 464 811 342 811 q 594 794 533 811 q 714 756 654 778 l 707 767 l 707 542 l 725 550 q 601 634 665 603 q 467 665 536 665 q 297 595 361 665 q 232 404 232 525 q 297 210 232 282 q 469 139 361 139 q 517 143 493 139 q 563 154 540 147 q 569 165 569 158 q 560 303 567 254 q 546 378 554 351 q 528 422 538 404 l 518 406 l 757 406 l 746 419 q 739 382 742 404 q 733 321 736 360 q 730 218 731 282 q 729 56 729 154 z "},"h":{"ha":879,"x_min":57,"x_max":822,"o":"m 214 719 l 192 719 l 192 422 q 192 422 192 422 q 192 422 192 422 l 192 86 l 214 86 l 214 422 q 214 422 214 422 q 214 422 214 422 l 214 719 m 689 719 l 667 719 l 667 422 q 667 422 667 422 q 667 422 667 422 l 667 86 l 689 86 l 689 422 q 689 422 689 422 q 689 422 689 422 l 689 719 m 678 411 l 678 433 l 203 433 l 203 411 l 678 411 m 329 -10 l 340 10 l 208 96 q 203 97 207 97 q 197 96 200 97 l 64 10 l 75 -10 l 208 76 q 203 79 211 79 q 197 76 194 79 l 329 -10 m 75 815 l 64 796 l 197 710 q 203 708 200 708 q 208 710 207 708 l 340 796 l 329 815 l 197 729 q 203 728 194 728 q 208 729 211 728 l 75 815 m 550 815 l 539 796 l 672 710 q 678 708 675 708 q 683 710 682 708 l 815 796 l 804 815 l 672 729 q 678 728 669 728 q 683 729 686 728 l 550 815 m 804 -10 l 815 10 l 683 96 q 678 97 682 97 q 672 96 675 97 l 539 10 l 550 -10 l 683 76 q 678 79 686 79 q 672 76 669 79 l 804 -10 m 575 347 l 589 331 l 685 414 q 689 422 689 417 q 685 431 689 428 l 589 515 l 575 499 l 671 414 q 674 422 674 411 q 671 431 674 433 l 575 347 m 304 499 l 290 515 l 196 431 q 192 422 192 428 q 196 414 192 417 l 290 331 l 304 347 l 210 431 q 207 422 207 433 q 210 414 207 411 l 304 499 m 69 -11 l 335 -11 q 344 -6 342 -11 q 344 6 347 0 q 326 60 333 28 q 314 158 318 93 q 308 339 310 222 l 297 328 l 582 328 l 571 339 q 565 158 569 222 q 553 60 561 93 q 535 6 546 28 q 535 -6 532 0 q 544 -11 539 -11 l 810 -11 q 819 -6 817 -11 q 819 6 822 0 q 803 48 810 24 q 792 116 796 72 q 785 231 788 160 q 783 415 783 303 q 785 587 783 519 q 792 694 788 654 q 803 758 796 735 q 819 800 810 782 q 819 812 822 807 q 810 817 817 817 l 544 817 q 535 812 539 817 q 535 800 532 807 q 553 749 546 779 q 565 663 561 719 q 571 507 569 607 l 582 518 l 297 518 l 308 507 q 314 663 310 607 q 326 749 318 719 q 344 800 333 779 q 344 812 347 807 q 335 817 342 817 l 69 817 q 60 812 64 817 q 60 800 57 807 q 76 758 69 782 q 88 694 83 735 q 94 587 92 654 q 96 415 96 519 q 94 231 96 303 q 88 116 92 160 q 76 48 83 72 q 60 6 69 24 q 60 -6 57 0 q 69 -11 64 -11 m 69 11 l 79 -6 q 96 39 89 14 q 108 108 103 64 q 115 226 113 153 q 118 415 118 300 q 115 591 118 522 q 108 701 113 660 q 96 768 103 743 q 79 811 89 793 l 69 794 l 335 794 l 325 811 q 306 758 314 789 q 292 669 297 728 q 286 507 288 611 q 290 499 286 503 q 297 496 293 496 l 582 496 q 590 499 586 496 q 593 507 593 503 q 587 669 592 611 q 574 758 582 728 q 554 811 565 789 l 544 794 l 810 794 l 800 811 q 783 768 790 793 q 772 701 776 743 q 764 591 767 660 q 761 415 761 522 q 764 226 761 300 q 772 108 767 153 q 783 39 776 64 q 800 -6 790 14 l 810 11 l 544 11 l 554 -6 q 574 51 565 18 q 587 151 582 85 q 593 339 592 218 q 590 347 593 343 q 582 350 586 350 l 297 350 q 290 347 293 350 q 286 339 286 343 q 292 151 288 218 q 306 51 297 85 q 325 -6 314 18 l 335 11 l 69 11 z "},"i":{"ha":418,"x_min":64,"x_max":354,"o":"m 221 719 l 199 719 l 199 86 l 221 86 l 221 719 m 336 -10 l 347 10 l 215 96 q 210 97 214 97 q 204 96 207 97 l 71 10 l 82 -10 l 215 76 q 210 79 218 79 q 204 76 201 79 l 336 -10 m 82 815 l 71 796 l 204 710 q 210 708 207 708 q 215 710 214 708 l 347 796 l 336 815 l 204 729 q 210 728 201 728 q 215 729 218 728 l 82 815 m 76 -11 l 342 -11 q 351 -6 349 -11 q 351 6 354 0 q 335 48 342 24 q 324 116 328 72 q 317 231 319 160 q 315 415 315 303 q 317 587 315 519 q 324 694 319 654 q 335 758 328 735 q 351 800 342 782 q 351 812 354 807 q 342 817 349 817 l 76 817 q 67 812 71 817 q 67 800 64 807 q 83 758 76 782 q 94 694 90 735 q 101 587 99 654 q 103 415 103 519 q 101 231 103 303 q 94 116 99 160 q 83 48 90 72 q 67 6 76 24 q 67 -6 64 0 q 76 -11 71 -11 m 76 11 l 86 -6 q 103 39 96 14 q 115 108 110 64 q 122 226 119 153 q 125 415 125 300 q 122 591 125 522 q 115 701 119 660 q 103 768 110 743 q 86 811 96 793 l 76 794 l 342 794 l 332 811 q 315 768 322 793 q 303 701 308 743 q 296 591 299 660 q 293 415 293 522 q 296 226 293 300 q 303 108 299 153 q 315 39 308 64 q 332 -6 322 14 l 342 11 l 76 11 z "},"j":{"ha":600,"x_min":18,"x_max":561,"o":"m 119 97 l 111 75 q 161 63 136 67 q 208 60 186 60 q 208 60 208 60 q 208 60 208 60 q 370 124 313 61 q 428 292 428 188 q 428 292 428 292 q 428 292 428 292 l 428 719 l 406 719 l 406 292 q 406 292 406 292 q 406 292 406 292 q 355 140 406 196 q 208 82 304 83 q 208 82 208 82 q 208 82 208 82 q 165 85 188 82 q 119 97 143 89 m 289 815 l 278 796 l 411 710 q 417 708 414 708 q 422 710 421 708 l 554 796 l 543 815 l 411 729 q 417 728 408 728 q 422 729 425 728 l 289 815 m 22 22 l 36 6 l 122 78 q 126 85 125 81 q 125 92 128 89 l 39 249 l 19 238 l 106 81 q 110 88 108 78 q 108 94 111 97 l 22 22 m 274 800 q 290 758 283 782 q 301 694 297 735 q 308 587 306 654 q 310 415 310 519 l 310 292 q 281 197 310 228 q 200 167 253 167 q 122 186 163 167 q 38 251 81 206 q 25 253 32 257 q 18 243 18 250 l 18 14 q 20 8 18 11 q 25 3 22 4 q 125 -19 76 -14 q 217 -25 174 -25 q 385 18 317 -24 q 488 131 453 60 q 522 293 522 203 l 522 415 q 524 587 522 519 q 531 694 526 654 q 542 758 535 735 q 558 800 549 782 q 558 812 561 807 q 549 817 556 817 l 283 817 q 274 812 278 817 q 274 800 271 807 m 293 811 l 283 794 l 549 794 l 539 811 q 522 768 529 793 q 510 701 515 743 q 503 591 506 660 q 500 415 500 522 l 500 293 q 468 142 500 208 q 373 37 436 75 q 217 -3 310 -1 q 129 3 176 -3 q 33 25 82 8 l 40 14 l 40 243 l 21 235 q 113 166 68 188 q 200 144 158 144 q 297 181 261 144 q 332 292 332 218 l 332 415 q 329 591 332 522 q 322 701 326 660 q 310 768 317 743 q 293 811 303 793 z "},"k":{"ha":832,"x_min":57,"x_max":860,"o":"m 213 719 l 190 719 l 190 417 q 190 417 190 417 q 190 417 190 417 l 190 86 l 213 86 l 213 417 q 213 417 213 417 q 213 417 213 417 l 213 719 m 614 79 l 631 93 l 425 361 q 425 361 425 361 q 425 361 425 361 q 378 408 401 393 q 316 426 356 422 q 201 428 276 431 q 191 417 190 428 q 201 406 192 406 q 292 410 257 407 q 349 422 326 414 q 389 447 371 431 q 429 489 407 463 q 429 489 429 489 q 429 489 429 489 l 624 713 l 607 726 l 413 503 q 413 503 413 503 q 413 503 413 503 q 375 465 392 479 q 338 443 358 450 q 286 433 318 436 q 201 428 254 429 q 191 417 190 428 q 201 406 192 406 q 308 405 271 408 q 365 389 344 401 q 408 347 386 376 q 408 347 408 347 q 408 347 408 347 l 614 79 m 303 469 l 292 489 l 196 426 q 190 416 190 422 q 196 407 190 410 l 292 349 l 303 368 l 207 426 q 201 417 201 429 q 207 407 201 404 l 303 469 m 329 -10 l 340 10 l 207 96 q 202 97 206 97 q 196 96 199 97 l 64 10 l 75 -10 l 207 76 q 201 79 210 79 q 196 76 193 79 l 329 -10 m 75 815 l 64 796 l 196 710 q 202 708 199 708 q 207 710 206 708 l 340 796 l 329 815 l 196 729 q 201 728 193 728 q 207 729 210 728 l 75 815 m 842 -10 l 850 10 l 626 96 q 621 98 624 99 q 615 94 618 97 l 524 8 l 538 -8 l 629 78 q 624 79 632 81 q 618 76 615 78 l 842 -10 m 556 813 l 539 799 l 607 713 q 613 709 610 710 q 619 710 617 708 l 839 796 l 831 815 l 611 729 q 617 726 608 728 q 624 726 626 724 l 556 813 m 475 419 l 472 442 q 383 435 428 439 q 292 431 338 432 q 201 428 247 429 l 201 406 q 292 408 247 407 q 383 413 338 410 q 475 419 429 417 m 69 -11 l 335 -11 q 344 -6 342 -11 q 344 6 347 0 q 329 44 336 22 q 318 105 322 67 q 311 204 314 143 q 308 358 308 265 l 289 351 q 405 197 361 258 q 472 98 449 136 q 506 37 496 60 q 519 -3 515 14 q 524 -8 521 -6 q 531 -11 526 -11 l 846 -11 q 857 -3 854 -11 q 853 8 860 4 q 803 51 831 26 q 734 121 775 76 q 633 242 693 165 q 482 438 572 318 l 482 424 q 634 597 575 531 q 730 700 693 663 q 792 758 767 738 q 842 797 817 779 q 846 809 849 801 q 835 817 843 817 l 547 817 q 540 814 543 817 q 536 808 538 811 q 522 773 532 792 q 488 722 513 754 q 416 633 464 689 q 289 486 368 576 l 308 479 q 314 653 310 592 q 326 747 318 715 q 344 800 333 779 q 344 812 347 807 q 335 817 342 817 l 69 817 q 60 812 64 817 q 60 800 57 807 q 76 758 69 782 q 88 694 83 735 q 94 587 92 654 q 96 415 96 519 q 94 231 96 303 q 88 116 92 160 q 76 48 83 72 q 60 6 69 24 q 60 -6 57 0 q 69 -11 64 -11 m 69 11 l 79 -6 q 96 39 89 14 q 108 108 103 64 q 115 226 113 153 q 118 415 118 300 q 115 591 118 522 q 108 701 113 660 q 96 768 103 743 q 79 811 89 793 l 69 794 l 335 794 l 325 811 q 306 756 314 789 q 292 659 297 722 q 286 479 288 596 q 293 469 286 472 q 306 472 300 467 q 437 624 388 567 q 511 715 486 682 q 545 767 536 747 q 558 803 554 786 l 547 794 l 835 794 l 828 814 q 778 774 803 796 q 716 715 753 753 q 619 612 679 678 q 465 438 560 546 q 465 424 458 431 q 617 226 556 303 q 719 105 678 150 q 788 35 760 60 q 839 -8 817 10 l 846 11 l 531 11 l 542 3 q 528 42 538 19 q 494 104 518 65 q 424 206 469 143 q 306 365 379 268 q 294 369 301 372 q 286 358 286 367 q 289 199 286 261 q 297 97 292 136 q 310 35 303 58 q 325 -6 317 13 l 335 11 l 69 11 z "},"l":{"ha":626,"x_min":57,"x_max":618,"o":"m 214 719 l 192 719 l 192 89 q 194 81 192 85 q 203 78 197 78 q 377 78 304 76 q 493 83 450 79 l 490 106 q 376 100 447 101 q 203 100 304 99 q 206 92 199 100 q 214 89 214 85 l 214 719 m 75 815 l 64 796 l 197 710 q 203 708 200 708 q 208 710 207 708 l 340 796 l 329 815 l 197 729 q 203 728 194 728 q 208 729 211 728 l 75 815 m 569 -7 l 586 7 l 500 101 q 498 94 497 104 q 500 88 499 85 l 614 222 l 597 236 l 483 101 q 481 94 481 99 q 483 88 481 90 l 569 -7 m 64 10 l 75 -10 l 208 79 q 210 81 210 81 q 210 81 210 81 l 308 167 l 294 183 l 196 97 q 196 98 194 97 q 197 99 197 99 l 64 10 m 69 -11 l 578 -11 q 585 -8 582 -11 q 589 -1 588 -6 l 617 228 q 612 239 618 235 q 599 238 606 243 q 545 209 578 221 q 456 192 513 197 q 301 186 399 186 l 313 175 q 310 276 311 218 q 308 415 308 335 q 310 587 308 519 q 317 694 313 654 q 328 758 321 735 q 344 800 335 782 q 344 812 347 807 q 335 817 342 817 l 69 817 q 60 812 64 817 q 60 800 57 807 q 76 758 69 782 q 88 694 83 735 q 94 587 92 654 q 96 415 96 519 q 94 231 96 303 q 88 116 92 160 q 76 48 83 72 q 60 6 69 24 q 60 -6 57 0 q 69 -11 64 -11 m 69 11 l 79 -6 q 96 39 89 14 q 108 108 103 64 q 115 226 113 153 q 118 415 118 300 q 115 591 118 522 q 108 701 113 660 q 96 768 103 743 q 79 811 89 793 l 69 794 l 335 794 l 325 811 q 308 768 315 793 q 297 701 301 743 q 289 591 292 660 q 286 415 286 522 q 288 276 286 335 q 290 175 289 218 q 294 167 290 169 q 301 164 297 164 q 464 170 404 164 q 557 190 524 176 q 613 221 590 203 l 594 231 l 567 1 l 578 11 l 69 11 z "},"m":{"ha":1092,"x_min":57,"x_max":1035,"o":"m 885 86 l 907 86 l 907 721 q 903 728 907 725 q 896 732 900 732 l 774 732 q 763 725 767 732 l 532 92 q 544 85 531 85 q 554 92 557 85 l 331 725 q 319 732 326 732 l 192 732 q 184 728 188 732 q 181 721 181 725 l 181 86 l 203 86 l 203 721 q 195 717 203 725 q 192 710 188 710 l 319 710 q 315 715 322 710 q 308 717 307 721 l 532 83 q 543 76 535 76 q 554 83 551 76 l 785 717 q 778 715 786 719 q 774 710 771 710 l 896 710 q 892 717 900 710 q 885 721 885 725 l 885 86 m 308 -10 l 322 10 l 199 96 q 192 97 196 97 q 185 96 188 97 l 63 10 l 76 -10 l 199 76 q 192 79 201 79 q 185 76 183 79 l 308 -10 m 1015 -10 l 1029 10 l 903 96 q 896 97 900 97 q 889 96 892 97 l 763 10 l 776 -10 l 903 76 q 897 79 906 79 q 889 76 888 79 l 1015 -10 m 76 815 l 63 796 l 185 711 q 184 714 186 711 q 182 715 182 717 l 269 567 q 281 562 274 561 q 290 569 289 563 l 331 718 q 328 715 331 719 q 326 713 325 711 l 418 797 l 404 814 l 313 729 q 310 727 311 728 q 308 724 310 726 l 268 575 q 279 570 267 568 q 289 578 292 572 l 201 726 q 200 728 200 728 q 199 731 200 729 l 76 815 m 701 814 l 685 797 l 765 713 q 765 716 767 711 q 763 718 763 721 l 794 576 q 804 569 797 569 q 815 574 811 568 l 906 715 q 903 714 906 717 q 901 711 901 711 l 1028 796 l 1017 815 l 890 731 q 888 728 889 729 q 886 726 888 728 l 796 585 q 805 577 792 579 q 817 582 818 575 l 785 724 q 783 726 783 725 q 782 729 783 728 l 701 814 m 469 7 l 486 -7 l 551 81 q 543 87 556 86 q 533 82 531 88 l 586 -6 l 606 6 l 553 93 q 544 99 550 99 q 535 94 538 99 l 469 7 m 532 88 l 554 88 l 560 319 l 538 319 l 532 88 m 69 -11 l 315 -11 q 325 -6 322 -11 q 325 6 328 0 q 308 48 315 24 q 297 116 301 72 q 291 231 293 160 q 289 415 289 303 q 289 501 289 463 q 290 572 289 540 l 269 568 q 301 487 285 532 q 336 386 318 442 q 400 212 376 281 q 437 102 424 143 q 456 38 450 61 q 467 -3 463 14 q 471 -8 468 -6 q 478 -11 474 -11 l 596 -11 q 603 -9 600 -11 q 607 -3 606 -7 q 619 38 611 14 q 640 102 626 61 q 679 212 654 143 q 743 386 704 281 q 783 492 765 444 q 815 575 800 539 l 794 579 q 796 506 796 546 q 796 415 796 465 q 794 231 796 303 q 788 116 792 160 q 776 48 783 72 q 760 6 769 24 q 760 -6 757 0 q 769 -11 764 -11 l 1022 -11 q 1032 -6 1029 -11 q 1032 6 1035 0 q 1015 48 1022 24 q 1004 116 1008 72 q 998 231 1000 160 q 996 415 996 303 q 998 587 996 519 q 1004 694 1000 654 q 1015 758 1008 735 q 1032 800 1022 782 q 1032 812 1035 807 q 1022 817 1029 817 l 693 817 q 685 813 689 817 q 682 806 682 810 q 679 758 682 783 q 665 691 676 733 q 630 578 654 649 q 564 394 606 507 l 539 324 l 560 324 l 536 394 q 475 577 499 507 q 440 690 451 647 q 424 758 428 732 q 422 806 421 783 q 419 813 422 810 q 411 817 417 817 l 69 817 q 60 812 64 817 q 60 800 57 807 q 76 758 69 782 q 88 694 83 735 q 94 587 92 654 q 96 415 96 519 q 94 231 96 303 q 88 116 92 160 q 76 48 83 72 q 60 6 69 24 q 60 -6 57 0 q 69 -11 64 -11 m 69 11 l 79 -6 q 96 39 89 14 q 108 108 103 64 q 115 226 113 153 q 118 415 118 300 q 115 591 118 522 q 108 701 113 660 q 96 768 103 743 q 79 811 89 793 l 69 794 l 411 794 l 400 806 q 402 758 399 783 q 417 689 406 732 q 453 574 429 646 q 514 386 476 501 l 538 315 q 549 308 540 308 q 558 315 557 308 l 586 386 q 652 574 628 501 q 688 689 676 646 q 701 758 699 732 q 704 806 704 783 l 693 794 l 1022 794 l 1013 811 q 996 768 1003 793 q 984 701 989 743 q 976 591 979 660 q 974 415 974 522 q 976 226 974 300 q 984 108 979 153 q 996 39 989 64 q 1013 -6 1003 14 l 1022 11 l 769 11 l 779 -6 q 796 39 789 14 q 808 108 803 64 q 815 226 813 153 q 818 415 818 300 q 818 506 818 465 q 817 579 818 546 q 808 590 817 589 q 796 583 799 592 q 763 500 781 547 q 724 394 746 453 q 658 219 683 288 q 618 108 632 150 q 597 43 604 67 q 585 3 589 19 l 596 11 l 478 11 l 489 3 q 478 43 485 19 q 459 108 472 67 q 422 219 446 150 q 358 394 399 288 q 321 495 338 450 q 289 576 304 540 q 277 583 286 585 q 268 572 268 582 q 267 501 267 540 q 267 415 267 463 q 269 226 267 300 q 277 108 272 153 q 289 39 282 64 q 306 -6 296 14 l 315 11 l 69 11 z "},"n":{"ha":874,"x_min":57,"x_max":817,"o":"m 183 86 l 206 86 l 206 721 q 193 725 206 729 q 186 714 181 721 l 669 76 q 681 73 674 71 q 689 83 689 75 l 689 719 l 667 719 l 667 83 q 679 80 667 75 q 686 90 692 85 l 203 728 q 191 732 199 735 q 183 721 183 729 l 183 86 m 314 -10 l 328 10 l 201 96 q 194 97 199 97 q 188 96 190 97 l 63 10 l 76 -10 l 201 76 q 195 79 204 79 q 188 76 186 79 l 314 -10 m 560 815 l 546 796 l 671 710 q 678 708 674 708 q 685 710 682 708 l 811 796 l 797 815 l 671 729 q 678 728 669 728 q 685 729 688 728 l 560 815 m 75 815 l 64 796 l 189 711 q 197 710 192 710 q 204 715 201 711 l 256 800 l 236 811 l 185 726 q 194 725 183 722 q 200 731 204 728 l 75 815 m 783 -8 l 797 8 l 685 92 q 676 94 681 94 q 669 90 672 93 l 606 7 l 622 -7 l 686 76 q 678 79 689 81 q 671 75 668 78 l 783 -8 m 206 722 l 183 717 l 272 435 l 294 440 l 206 722 m 601 360 l 579 354 l 667 81 l 689 86 l 601 360 m 801 3 q 791 59 796 29 q 783 138 786 89 q 779 270 781 188 q 778 485 778 353 q 781 626 778 571 q 788 713 783 681 q 799 765 793 746 q 814 800 806 785 q 814 812 817 807 q 804 817 811 817 l 553 817 q 544 812 547 817 q 543 800 540 807 q 558 765 551 785 q 569 713 564 746 q 576 626 574 681 q 579 485 579 571 l 579 357 l 599 364 l 254 813 q 246 817 253 817 l 69 817 q 60 812 64 817 q 60 800 57 807 q 74 765 68 785 q 85 713 81 746 q 93 626 90 681 q 96 485 96 571 q 94 270 96 354 q 88 135 92 186 q 78 55 85 83 q 60 6 71 26 q 60 -6 57 0 q 69 -11 64 -11 l 321 -11 q 331 -6 328 -11 q 331 6 333 0 q 314 52 321 25 q 303 125 307 79 q 297 247 299 171 q 294 438 294 322 l 275 431 l 606 -7 q 614 -11 608 -11 l 790 -11 q 799 -7 796 -11 q 801 3 803 -3 m 779 -3 l 790 11 l 614 11 l 622 7 l 292 444 q 280 449 288 451 q 272 438 272 446 q 275 242 272 319 q 283 118 278 165 q 294 43 288 71 q 311 -6 301 15 l 321 11 l 69 11 l 79 -6 q 97 45 90 15 q 109 127 104 75 q 116 265 114 179 q 118 485 118 351 q 115 629 118 572 q 107 720 113 686 q 94 774 101 754 q 79 811 88 794 l 69 794 l 246 794 l 238 799 l 582 350 q 594 347 586 344 q 601 357 601 349 l 601 485 q 599 629 601 572 q 590 720 596 686 q 578 774 585 754 q 563 811 571 794 l 553 794 l 804 794 l 794 811 q 779 774 786 794 q 767 720 772 754 q 758 629 761 686 q 756 485 756 572 q 757 268 756 351 q 761 135 758 185 q 769 54 764 85 q 779 -3 774 24 z "},"o":{"ha":886,"x_min":29,"x_max":857,"o":"m 443 78 q 292 119 357 78 q 190 233 226 160 q 153 404 153 307 q 153 404 153 404 q 153 404 153 404 q 190 574 153 501 q 292 688 226 647 q 443 728 357 728 q 443 728 443 728 q 443 728 443 728 q 594 687 529 728 q 697 574 660 646 q 733 404 733 501 q 733 404 733 404 q 733 404 733 404 q 697 233 733 307 q 594 119 660 160 q 443 78 529 78 q 443 78 443 78 q 443 78 443 78 m 443 56 q 443 56 443 56 q 443 56 443 56 q 605 99 535 56 q 715 222 675 143 q 756 404 756 300 q 756 404 756 404 q 756 404 756 404 q 715 586 756 508 q 605 707 675 664 q 443 750 535 750 q 443 750 443 750 q 443 750 443 750 q 281 707 351 750 q 171 586 211 664 q 131 404 131 508 q 131 404 131 404 q 131 404 131 404 q 171 222 131 300 q 281 99 211 143 q 443 56 351 56 m 443 140 q 596 211 538 140 q 654 404 654 282 q 596 596 654 526 q 443 665 538 665 q 291 597 350 665 q 232 404 232 528 q 291 211 232 282 q 443 140 350 140 m 443 -6 q 240 47 328 -6 q 101 192 151 100 q 51 404 51 285 q 101 615 51 524 q 240 759 151 707 q 443 811 328 811 q 645 759 557 811 q 784 615 733 707 q 835 404 835 524 q 784 192 835 285 q 645 47 733 100 q 443 -6 557 -6 m 443 163 q 306 227 358 163 q 254 404 254 292 q 306 580 254 517 q 443 643 358 643 q 581 579 529 643 q 632 404 632 515 q 581 227 632 292 q 443 163 529 163 m 443 -28 q 656 28 563 -28 q 803 181 750 83 q 857 404 857 278 q 803 627 857 531 q 656 778 750 724 q 443 833 563 833 q 228 778 322 833 q 82 626 135 724 q 29 404 29 529 q 82 181 29 278 q 228 28 135 83 q 443 -28 322 -28 z "},"p":{"ha":758,"x_min":57,"x_max":742,"o":"m 192 86 l 214 86 l 214 722 q 206 719 214 726 q 203 711 199 711 l 411 711 q 411 711 411 711 q 411 711 411 711 q 566 659 510 711 q 622 521 622 607 q 622 521 622 521 q 622 521 622 521 q 566 383 622 435 q 411 331 510 331 q 411 331 411 331 q 411 331 411 331 l 203 331 l 203 308 l 411 308 q 411 308 411 308 q 411 308 411 308 q 583 367 521 308 q 644 521 644 426 q 644 521 644 521 q 644 521 644 521 q 583 674 644 615 q 411 733 521 733 q 411 733 411 733 q 411 733 411 733 l 203 733 q 195 730 199 733 q 192 722 192 726 l 192 86 m 329 -10 l 340 10 l 208 96 q 203 97 207 97 q 197 96 200 97 l 64 10 l 75 -10 l 208 76 q 203 79 211 79 q 197 76 194 79 l 329 -10 m 304 393 l 290 410 l 196 328 q 192 319 192 325 q 196 311 192 314 l 292 228 l 306 244 l 210 328 q 207 319 207 331 q 210 311 207 308 l 304 393 m 75 815 l 64 796 l 197 713 q 197 713 197 713 q 196 714 196 714 l 296 632 l 310 649 l 210 731 q 210 731 210 731 q 208 732 210 732 l 75 815 m 69 -11 l 335 -11 q 344 -6 342 -11 q 344 6 347 0 q 328 47 336 24 q 317 115 321 71 q 310 236 313 158 l 299 225 l 410 225 q 587 263 513 225 q 701 367 661 300 q 742 522 742 435 q 701 677 742 611 q 587 780 661 743 q 410 817 513 817 l 69 817 q 60 812 64 817 q 60 800 57 807 q 78 753 71 781 q 88 676 85 725 q 94 549 92 628 q 96 346 96 469 q 93 194 96 253 q 86 99 90 135 q 75 42 82 63 q 60 6 68 21 q 60 -6 57 0 q 69 -11 64 -11 m 524 519 q 494 441 524 469 q 413 413 465 413 l 297 413 l 308 401 q 310 540 308 482 q 314 640 313 599 l 303 629 l 413 629 q 494 599 465 629 q 524 519 524 569 m 69 11 l 79 -6 q 94 33 88 11 q 107 91 101 54 q 115 189 113 128 q 118 346 118 250 q 116 553 118 472 q 109 684 114 635 q 97 762 104 733 q 79 811 90 790 l 69 794 l 410 794 q 637 720 554 794 q 719 522 719 646 q 637 323 719 399 q 410 247 554 247 l 299 247 q 290 244 293 247 q 288 236 288 240 q 295 110 290 156 q 308 39 300 64 q 325 -6 317 14 l 335 11 l 69 11 m 546 519 q 511 615 546 578 q 413 651 476 651 l 303 651 q 295 649 299 651 q 292 640 292 646 q 288 540 290 599 q 286 401 286 482 q 290 394 286 397 q 297 390 293 390 l 413 390 q 511 426 476 390 q 546 519 546 461 z "},"q":{"ha":886,"x_min":29,"x_max":1011,"o":"m 443 78 q 292 119 357 78 q 190 233 226 160 q 153 404 153 307 q 153 404 153 404 q 153 404 153 404 q 190 574 153 501 q 292 688 226 647 q 443 728 357 728 q 443 728 443 728 q 443 728 443 728 q 594 687 529 728 q 697 574 660 646 q 733 404 733 501 q 733 404 733 404 q 733 404 733 404 q 692 227 733 303 q 582 113 651 151 q 582 113 582 113 q 582 113 582 113 q 517 87 551 96 q 443 78 483 78 q 443 78 443 78 q 443 78 443 78 m 443 56 q 443 56 443 56 q 443 56 443 56 q 523 65 485 56 q 593 93 561 75 q 593 93 593 93 q 593 93 593 93 q 711 215 667 133 q 756 404 756 296 q 756 404 756 404 q 756 404 756 404 q 715 586 756 508 q 605 707 675 664 q 443 750 535 750 q 443 750 443 750 q 443 750 443 750 q 281 707 351 750 q 171 586 211 664 q 131 404 131 508 q 131 404 131 404 q 131 404 131 404 q 171 222 131 300 q 281 99 211 143 q 443 56 351 56 m 1001 -96 l 996 -74 q 854 -85 926 -94 q 716 -28 782 -75 q 597 108 650 18 l 578 97 q 703 -48 633 1 q 851 -108 774 -97 q 1001 -96 928 -118 m 535 -1 l 554 -10 l 597 99 q 591 97 600 101 q 586 92 582 93 l 715 75 l 718 97 l 589 114 q 582 112 585 114 q 578 107 579 110 l 535 -1 m 443 -28 q 497 -25 471 -28 q 547 -17 522 -22 l 536 -12 q 662 -129 594 -87 q 794 -180 729 -171 q 916 -167 860 -189 q 1008 -92 972 -144 q 1010 -81 1011 -86 q 1001 -74 1008 -75 q 879 -27 929 -50 q 793 25 829 -4 q 725 93 757 54 l 724 78 q 822 219 786 136 q 857 404 857 303 q 803 627 857 531 q 656 778 750 724 q 443 833 563 833 q 228 778 322 833 q 82 626 135 724 q 29 404 29 529 q 82 181 29 278 q 228 28 135 83 q 443 -28 322 -28 m 443 163 q 306 227 358 163 q 254 404 254 292 q 306 580 254 517 q 443 643 358 643 q 581 579 529 643 q 632 404 632 515 q 581 227 632 292 q 443 163 529 163 m 443 -6 q 240 47 328 -6 q 101 192 151 100 q 51 404 51 285 q 101 615 51 524 q 240 759 151 707 q 443 811 328 811 q 645 759 557 811 q 784 615 733 707 q 835 404 835 524 q 801 228 835 307 q 710 94 768 149 q 706 87 706 92 q 708 79 706 82 q 779 8 742 39 q 869 -47 817 -22 q 996 -96 921 -71 l 989 -78 q 869 -157 944 -143 q 710 -131 794 -171 q 553 1 626 -92 q 548 5 551 4 q 542 6 544 6 q 443 -6 493 -6 m 443 140 q 596 211 538 140 q 654 404 654 282 q 596 596 654 526 q 443 665 538 665 q 291 597 350 665 q 232 404 232 528 q 291 211 232 282 q 443 140 350 140 z "},"r":{"ha":797,"x_min":57,"x_max":846,"o":"m 192 86 l 214 86 l 214 361 q 214 361 214 361 q 214 361 214 361 l 214 722 q 206 719 214 726 q 203 711 199 711 l 385 711 q 385 711 385 711 q 385 711 385 711 q 539 665 483 711 q 594 542 594 619 q 594 542 594 542 q 594 542 594 542 q 553 429 594 475 q 444 372 513 383 q 444 372 443 372 q 446 372 446 372 l 203 372 l 203 350 l 446 350 q 447 350 446 350 q 447 350 447 350 q 570 415 524 364 q 617 542 617 467 q 617 542 617 542 q 617 542 617 542 q 555 681 617 628 q 385 733 493 733 q 385 733 385 733 q 385 733 385 733 l 203 733 q 195 730 199 733 q 192 722 192 726 l 192 361 q 192 361 192 361 q 192 361 192 361 l 192 86 m 456 367 l 436 356 l 614 81 l 633 92 l 456 367 m 329 -10 l 340 10 l 208 96 q 203 97 207 97 q 197 96 200 97 l 64 10 l 75 -10 l 208 76 q 203 79 211 79 q 197 76 194 79 l 329 -10 m 828 -10 l 836 10 l 628 96 q 622 98 625 99 q 617 94 619 97 l 519 8 l 533 -8 l 631 78 q 625 79 633 81 q 619 76 617 78 l 828 -10 m 75 815 l 64 796 l 197 713 q 197 713 197 713 q 196 714 196 714 l 294 632 l 308 649 l 210 731 q 210 731 210 731 q 208 732 210 732 l 75 815 m 304 432 l 290 449 l 196 369 q 192 361 192 367 q 196 353 192 356 l 292 274 l 306 290 l 210 369 q 206 361 206 372 q 210 353 206 350 l 304 432 m 382 289 l 401 275 l 456 354 q 449 354 458 357 q 443 350 439 351 l 574 313 l 579 335 l 449 372 q 442 372 446 374 q 436 368 439 371 l 382 289 m 69 -11 l 335 -11 q 344 -6 342 -11 q 344 6 347 0 q 327 53 335 25 q 315 135 319 82 q 310 282 311 189 l 299 271 l 392 271 l 382 276 q 469 127 442 181 q 506 47 497 74 q 515 -1 514 19 q 519 -8 515 -6 q 526 -11 522 -11 l 832 -11 q 842 -4 839 -11 q 839 8 846 3 q 798 47 818 26 q 751 99 778 67 q 684 187 724 132 q 586 329 644 242 l 582 314 q 679 409 643 350 q 715 544 715 468 q 675 686 715 625 q 560 782 635 747 q 383 817 486 817 l 69 817 q 60 812 64 817 q 60 800 57 807 q 76 758 69 782 q 88 694 83 735 q 94 587 92 654 q 96 415 96 519 q 94 231 96 303 q 88 116 92 160 q 76 48 83 72 q 60 6 69 24 q 60 -6 57 0 q 69 -11 64 -11 m 386 629 q 467 606 439 629 q 496 540 496 582 q 469 475 496 499 q 400 451 443 451 l 297 451 l 308 440 q 310 555 308 506 q 313 640 311 604 l 301 629 l 386 629 m 69 11 l 79 -6 q 96 39 89 14 q 108 108 103 64 q 115 226 113 153 q 118 415 118 300 q 115 591 118 522 q 108 701 113 660 q 96 768 103 743 q 79 811 89 793 l 69 794 l 383 794 q 549 763 479 794 q 656 676 618 732 q 693 544 693 619 q 660 421 693 475 q 571 333 628 367 q 566 326 567 332 q 567 318 565 321 q 667 174 626 231 q 735 85 707 118 q 783 31 763 51 q 825 -8 804 10 l 832 11 l 526 11 l 538 1 q 527 51 536 22 q 490 134 518 79 q 401 288 463 189 q 392 293 397 293 l 299 293 q 291 290 294 293 q 288 282 288 286 q 294 130 289 185 q 307 45 299 75 q 325 -6 315 15 l 335 11 l 69 11 m 386 651 l 301 651 q 294 649 297 651 q 290 640 290 646 q 288 555 289 604 q 286 440 286 506 q 290 433 286 436 q 297 429 293 429 l 400 429 q 485 460 451 429 q 518 540 518 490 q 483 621 518 590 q 386 651 449 651 z "},"s":{"ha":688,"x_min":56,"x_max":654,"o":"m 163 107 l 154 85 q 237 63 196 71 q 317 54 278 54 q 317 54 317 54 q 317 54 317 54 q 489 101 424 54 q 554 228 554 149 q 554 228 554 228 q 554 228 554 228 q 526 313 554 279 q 454 370 499 347 q 360 413 410 393 q 360 413 360 413 q 360 413 360 413 q 275 451 317 431 q 206 503 233 472 q 179 581 179 533 q 179 581 179 581 q 179 581 179 581 q 235 687 179 647 q 383 726 290 726 q 383 726 383 726 q 383 726 383 726 q 448 719 415 726 q 513 701 481 713 l 521 724 q 451 742 486 735 q 383 749 417 749 q 383 749 383 749 q 383 749 383 749 q 218 702 279 749 q 157 581 157 656 q 157 581 157 581 q 157 581 157 581 q 185 493 157 528 q 258 435 214 458 q 351 393 303 413 q 351 393 351 393 q 351 393 351 393 q 437 354 396 375 q 505 303 478 333 q 532 228 532 274 q 532 228 532 228 q 532 228 532 228 q 473 117 532 157 q 317 76 414 76 q 317 76 317 76 q 317 76 317 76 q 242 85 281 76 q 163 107 203 93 m 610 775 l 596 792 l 510 721 q 506 715 507 719 q 507 707 506 710 l 593 558 l 613 569 l 526 718 q 523 711 525 721 q 524 704 521 701 l 610 775 m 65 29 l 79 13 l 165 88 q 169 94 168 90 q 168 101 171 99 l 82 249 l 63 238 l 149 90 q 153 97 151 88 q 151 104 154 107 l 65 29 m 610 572 q 493 642 554 617 q 375 667 432 667 q 288 642 317 667 q 258 585 258 618 q 303 520 258 543 q 415 469 349 497 q 515 420 465 449 q 599 348 565 392 q 632 235 632 304 q 590 103 632 157 q 476 21 549 49 q 308 -7 403 -7 q 194 4 253 -7 q 75 32 136 15 l 83 21 l 83 243 l 65 235 q 193 163 125 188 q 325 138 261 138 q 422 163 390 138 q 454 222 454 189 q 410 286 454 264 q 297 338 367 308 q 197 388 247 360 q 112 460 146 415 q 78 575 78 504 q 117 699 78 647 q 228 780 157 751 q 393 808 299 808 q 493 798 442 808 q 600 772 544 788 l 592 783 l 592 564 l 610 572 m 596 556 q 608 554 601 551 q 614 564 614 557 l 614 783 q 612 790 614 788 q 606 794 610 793 q 497 820 549 810 q 393 831 444 831 q 216 799 292 831 q 98 710 140 767 q 56 575 56 653 q 92 450 56 499 q 181 372 128 401 q 289 318 235 342 q 356 289 324 303 q 410 259 389 275 q 432 222 432 243 q 404 178 432 196 q 325 160 376 160 q 200 184 265 160 q 79 251 135 208 q 67 253 74 256 q 61 243 61 250 l 61 21 q 63 14 61 17 q 69 10 65 11 q 192 -18 133 -7 q 308 -29 251 -29 q 488 2 410 -29 q 610 92 565 33 q 654 235 654 151 q 619 358 654 310 q 531 436 583 406 q 424 489 478 467 q 357 518 390 504 q 302 548 324 532 q 281 585 281 564 q 305 628 281 611 q 375 644 329 644 q 486 620 428 644 q 596 556 544 596 z "},"t":{"ha":713,"x_min":17,"x_max":696,"o":"m 597 703 l 600 725 q 499 731 558 729 q 356 733 439 733 q 356 733 356 733 q 356 733 356 733 q 214 731 274 733 q 113 725 154 729 l 115 703 q 215 709 157 707 q 356 711 274 711 q 356 711 356 711 q 356 711 356 711 q 497 709 439 711 q 597 703 556 707 m 367 722 l 344 722 l 344 86 l 367 86 l 367 722 m 483 -10 l 494 10 l 361 96 q 356 97 360 97 q 350 96 353 97 l 218 10 l 229 -10 l 361 76 q 356 79 364 79 q 350 76 347 79 l 483 -10 m 693 799 l 676 813 l 590 721 q 588 715 589 719 q 590 707 588 710 l 676 590 l 693 604 l 607 721 q 605 714 606 724 q 607 707 604 704 l 693 799 m 19 604 l 36 590 l 122 707 q 125 715 125 710 q 122 721 125 719 l 36 813 l 19 799 l 106 707 q 108 714 108 704 q 106 721 108 724 l 19 604 m 250 646 l 264 629 l 363 714 q 356 717 365 717 q 349 714 346 717 l 449 629 l 463 646 l 363 731 q 356 733 360 733 q 349 731 351 733 l 250 646 m 224 -11 l 489 -11 q 499 -6 496 -11 q 499 6 501 0 q 482 48 489 24 q 471 116 475 72 q 465 231 467 160 q 463 415 463 303 q 464 544 463 489 q 467 638 465 599 l 456 626 q 604 613 557 622 q 679 588 651 603 q 691 588 686 585 q 696 597 696 592 l 696 806 q 692 813 696 810 q 685 817 689 817 l 28 817 q 20 813 24 817 q 17 806 17 810 l 17 597 q 22 588 17 592 q 33 588 28 585 q 108 613 61 603 q 257 626 156 624 l 246 638 q 249 544 249 599 q 250 415 250 489 q 248 231 250 303 q 242 116 246 160 q 231 48 238 72 q 214 6 224 24 q 215 -6 211 0 q 224 -11 218 -11 m 224 11 l 233 -6 q 250 39 243 14 q 262 108 257 64 q 269 226 267 153 q 272 415 272 300 q 272 544 272 489 q 268 638 271 599 q 265 646 268 643 q 257 649 261 649 q 101 634 151 646 q 22 607 51 622 l 39 597 l 39 806 l 28 794 l 685 794 l 674 806 l 674 597 l 690 607 q 610 633 660 622 q 456 649 561 644 q 448 646 451 649 q 444 638 444 643 q 442 544 443 599 q 440 415 440 489 q 443 226 440 300 q 451 108 446 153 q 463 39 456 64 q 479 -6 469 14 l 489 11 l 224 11 z "},"u":{"ha":861,"x_min":43,"x_max":818,"o":"m 683 719 l 661 719 l 661 297 q 661 297 661 297 q 661 297 661 297 q 598 137 661 196 q 431 78 535 78 q 431 78 431 78 q 431 78 431 78 q 263 137 326 78 q 200 297 200 196 q 200 297 200 297 q 200 297 200 297 l 200 719 l 178 719 l 178 297 q 178 297 178 297 q 178 297 178 297 q 248 122 178 188 q 431 56 318 56 q 431 56 431 56 q 431 56 431 56 q 613 122 543 56 q 683 297 683 188 q 683 297 683 297 q 683 297 683 297 l 683 719 m 61 815 l 50 796 l 183 710 q 190 708 186 708 q 194 710 193 708 l 326 796 l 315 815 l 183 729 q 189 728 181 728 q 194 729 197 728 l 61 815 m 546 815 l 535 796 l 667 710 q 673 708 669 708 q 678 710 676 708 l 811 796 l 800 815 l 667 729 q 672 728 664 728 q 678 729 681 728 l 546 815 m 431 -11 q 261 24 335 -11 q 146 124 188 58 q 104 282 104 190 l 104 415 q 101 592 104 524 q 94 703 99 661 q 82 769 89 744 q 65 811 75 793 l 56 794 l 321 794 l 311 811 q 294 769 301 793 q 283 703 288 744 q 275 592 278 661 q 272 415 272 524 l 272 311 q 315 192 272 238 q 431 146 358 146 q 546 192 503 146 q 589 311 589 238 l 589 415 q 586 592 589 524 q 578 703 583 661 q 567 769 574 744 q 550 811 560 793 l 540 794 l 806 794 l 796 811 q 779 769 786 793 q 767 703 772 744 q 760 592 763 661 q 757 415 757 524 l 757 282 q 715 124 757 190 q 600 24 674 58 q 431 -11 526 -11 m 431 -33 q 612 5 533 -33 q 735 114 690 43 q 779 282 779 185 l 779 415 q 781 587 779 519 q 788 695 783 654 q 799 760 792 736 q 815 800 806 783 q 815 812 818 807 q 806 817 813 817 l 540 817 q 531 812 535 817 q 531 800 528 807 q 547 760 540 783 q 558 695 554 736 q 565 587 563 654 q 567 415 567 519 l 567 311 q 531 208 567 247 q 431 168 494 168 q 331 208 367 168 q 294 311 294 247 l 294 415 q 297 587 294 519 q 303 695 299 654 q 314 760 307 736 q 331 800 321 783 q 331 812 333 807 q 321 817 328 817 l 56 817 q 47 812 50 817 q 46 800 43 807 q 63 760 56 783 q 74 695 69 736 q 80 587 78 654 q 82 415 82 519 l 82 282 q 126 114 82 185 q 249 5 171 43 q 431 -33 328 -33 z "},"v":{"ha":839,"x_min":-12,"x_max":851,"o":"m 569 814 l 556 797 l 671 700 q 677 698 674 699 q 683 699 681 697 l 844 796 l 833 815 l 672 718 q 678 716 669 717 q 685 717 688 715 l 569 814 m 6 815 l -6 796 l 165 699 q 172 698 168 697 q 178 700 175 699 l 303 797 l 289 814 l 164 717 q 171 716 163 715 q 176 718 179 717 l 6 815 m 182 711 l 160 706 q 199 585 172 661 q 272 386 225 510 q 272 386 272 386 q 272 386 272 386 q 320 254 294 326 q 367 121 346 182 q 372 116 369 118 q 378 114 375 114 l 469 114 q 481 121 476 114 q 528 254 501 182 q 576 386 554 326 q 576 386 576 386 q 576 386 576 386 q 651 588 625 513 q 689 706 676 663 l 667 711 q 628 594 654 668 q 557 394 603 519 q 557 394 557 394 q 557 394 557 394 q 524 309 542 356 q 489 216 506 263 q 458 129 472 169 q 465 131 457 125 q 469 136 472 136 l 378 136 q 383 131 375 136 q 389 129 390 125 q 342 263 368 190 q 292 394 315 335 q 292 394 292 394 q 292 394 292 394 q 220 592 246 518 q 182 711 194 667 m 306 6 l 325 -6 l 388 119 q 388 121 388 121 q 388 121 388 121 l 439 254 q 429 262 442 261 q 418 256 417 263 l 458 122 q 459 121 458 121 q 460 121 460 121 l 514 -4 l 533 4 l 479 129 q 480 128 479 129 q 481 128 481 128 l 440 261 q 430 269 438 269 q 419 263 422 269 l 368 129 q 367 130 367 129 q 368 131 368 131 l 306 6 m 392 394 q 330 576 351 506 q 301 688 308 646 q 296 755 293 729 q 307 801 299 781 q 306 812 308 807 q 296 817 303 817 l 0 817 q -10 810 -7 817 q -8 799 -12 804 q 20 756 6 781 q 53 688 35 731 q 101 572 72 644 q 174 386 131 500 q 239 210 214 279 q 276 101 264 142 q 295 38 289 61 q 304 -1 301 15 q 308 -8 306 -6 q 315 -11 311 -11 l 524 -11 q 531 -8 528 -11 q 535 0 535 -6 q 542 40 536 17 q 560 103 547 63 q 599 211 574 143 q 665 386 625 279 q 738 572 710 500 q 786 688 767 644 q 819 756 806 731 q 847 799 833 781 q 849 810 851 804 q 839 817 846 817 l 563 817 q 553 812 557 817 q 551 801 550 807 q 563 755 560 781 q 558 688 565 729 q 528 576 550 646 q 467 394 507 506 l 418 263 l 440 263 l 392 394 l 392 394 m 369 386 l 369 386 l 418 254 q 429 247 421 247 q 440 254 438 247 l 489 386 q 552 574 531 501 q 581 691 574 647 q 585 761 588 735 q 574 810 582 788 l 563 794 l 839 794 l 831 813 q 802 769 817 794 q 768 700 788 744 q 719 583 749 656 q 646 394 690 510 q 578 217 604 286 q 539 106 553 147 q 519 42 525 65 q 513 0 514 18 l 524 11 l 315 11 l 326 1 q 317 43 324 19 q 298 108 311 67 q 260 217 285 149 q 193 394 235 286 q 121 583 150 510 q 72 700 92 656 q 37 769 51 744 q 8 813 22 794 l 0 794 l 296 794 l 285 810 q 274 761 276 788 q 278 691 271 735 q 306 574 285 647 q 369 386 328 501 z "},"w":{"ha":1104,"x_min":-6,"x_max":1110,"o":"m 963 717 l 940 722 l 744 74 q 756 67 743 67 q 767 74 769 67 l 568 713 q 557 721 565 721 q 546 713 549 721 l 346 74 q 358 67 344 67 q 368 74 371 67 l 168 722 l 146 717 l 346 68 q 357 60 349 60 q 368 68 365 60 l 568 707 q 558 714 571 714 q 546 707 544 714 l 744 68 q 756 60 747 60 q 767 68 764 60 l 963 717 m 13 815 l 1 796 l 151 710 q 158 708 154 708 q 163 710 161 708 l 290 796 l 279 815 l 151 729 q 157 728 149 728 q 163 729 165 728 l 13 815 m 839 814 l 825 797 l 944 711 q 951 709 947 710 q 957 710 954 708 l 1103 796 l 1092 815 l 946 729 q 952 727 943 728 q 958 728 961 726 l 839 814 m 485 813 l 468 799 l 549 703 q 557 699 551 699 q 565 703 563 699 l 650 799 l 633 813 l 549 717 q 557 713 546 714 q 565 717 568 713 l 485 813 m 542 439 l 564 439 l 568 710 l 546 710 l 542 439 m 268 8 l 282 -8 l 364 63 q 356 66 367 65 q 349 63 346 67 l 417 -8 l 433 8 l 365 79 q 358 82 363 82 q 350 79 353 82 l 268 8 m 672 8 l 686 -8 l 763 63 q 756 65 767 65 q 747 63 744 65 l 821 -8 l 838 8 l 764 79 q 756 82 760 82 q 749 79 751 82 l 672 8 m 375 369 l 353 369 l 346 71 l 368 71 l 375 369 m 768 376 l 746 376 l 744 71 l 767 71 l 768 376 m 436 0 q 449 76 436 25 q 490 214 461 126 q 564 435 519 301 l 542 435 q 616 211 589 299 q 656 74 643 124 q 669 -1 668 24 q 673 -8 669 -6 q 681 -11 676 -11 l 829 -11 q 838 -8 835 -11 q 840 0 840 -4 q 845 41 840 17 q 863 107 850 65 q 897 217 875 149 q 953 389 919 285 q 1013 574 989 501 q 1054 689 1038 646 q 1083 757 1071 732 q 1107 800 1094 782 q 1107 811 1110 806 q 1097 817 1104 817 l 832 817 q 823 812 826 817 q 822 800 819 807 q 834 753 833 779 q 826 683 835 728 q 797 567 817 639 q 746 379 778 494 l 768 381 q 706 570 729 497 q 671 687 682 643 q 656 757 660 731 q 653 806 653 783 q 649 814 653 811 q 642 817 646 817 l 476 817 q 469 814 472 817 q 465 806 465 811 q 461 758 465 783 q 447 688 457 732 q 413 568 436 643 q 353 372 390 493 l 375 372 q 317 565 338 490 q 288 683 296 639 q 282 754 279 728 q 294 801 285 781 q 294 812 297 807 q 285 817 292 817 l 7 817 q -2 811 1 817 q -3 800 -6 806 q 22 757 10 782 q 49 689 33 732 q 90 574 65 646 q 150 389 114 501 q 206 215 185 283 q 240 105 228 146 q 257 40 251 64 q 264 -1 263 15 q 268 -8 265 -6 q 275 -11 271 -11 l 425 -11 q 433 -8 431 -11 q 436 0 436 -4 m 414 0 l 425 11 l 275 11 l 286 1 q 279 42 285 18 q 262 108 274 67 q 228 219 250 150 q 172 394 207 289 q 110 582 135 508 q 69 699 85 656 q 41 768 53 743 q 17 811 29 793 l 7 794 l 285 794 l 275 810 q 260 761 264 788 q 264 690 257 735 q 292 569 271 646 q 353 367 314 492 q 364 358 356 358 q 375 367 372 358 q 435 565 413 489 q 469 686 458 642 q 483 757 479 731 q 488 806 488 783 l 476 794 l 642 794 l 631 806 q 634 757 631 783 q 649 685 638 731 q 683 565 660 640 q 746 372 707 490 q 758 365 749 365 q 768 374 767 365 q 822 574 801 499 q 850 694 842 650 q 856 763 858 738 q 842 811 853 789 l 832 794 l 1097 794 l 1088 811 q 1063 768 1075 793 q 1035 699 1051 743 q 993 582 1018 656 q 931 394 968 508 q 874 217 896 286 q 839 107 851 149 q 822 41 826 65 q 818 0 818 17 l 829 11 l 681 11 l 692 1 q 678 77 690 26 q 638 217 665 128 q 564 443 611 306 q 553 450 561 450 q 542 443 544 450 q 467 215 496 304 q 426 76 439 126 q 414 0 414 25 z "},"x":{"ha":826,"x_min":-12,"x_max":840,"o":"m 176 93 l 196 79 l 421 404 q 421 404 421 404 q 421 404 421 404 l 633 713 l 614 726 l 401 418 q 401 418 401 418 q 401 418 401 418 l 176 93 m 614 81 l 633 92 l 421 417 q 421 417 421 417 q 421 417 421 417 l 225 725 l 206 714 l 401 406 q 401 406 401 406 q 401 406 401 406 l 614 81 m 268 -8 l 285 8 l 194 94 q 188 98 192 97 q 182 96 185 99 l -4 10 l 4 -10 l 190 76 q 185 79 193 78 q 178 78 176 81 l 268 -8 m 17 815 l 8 796 l 211 710 q 217 709 214 708 q 222 711 221 710 l 321 797 l 307 814 l 208 728 q 214 727 206 726 q 219 729 222 728 l 17 815 m 822 -10 l 831 10 l 628 96 q 622 98 625 99 q 617 94 619 97 l 518 8 l 532 -8 l 631 78 q 625 79 633 81 q 619 76 617 78 l 822 -10 m 542 814 l 525 797 l 615 711 q 622 709 618 710 q 628 710 625 708 l 814 796 l 806 815 l 619 729 q 626 727 617 728 q 632 728 635 726 l 542 814 m 306 414 l 308 392 l 413 400 q 413 400 413 400 q 413 400 413 400 l 518 410 l 515 432 l 410 422 q 410 422 410 422 q 410 422 410 422 l 306 414 m 432 571 l 410 571 l 400 411 q 400 412 400 411 q 400 413 400 413 l 390 258 l 413 256 l 422 410 q 422 411 422 411 q 422 411 422 411 l 432 571 m 525 -11 l 826 -11 q 837 -4 833 -11 q 833 8 840 3 q 791 52 814 26 q 734 122 768 78 q 650 240 700 167 q 526 426 600 314 l 526 414 q 644 585 597 518 q 723 692 692 651 q 776 757 754 733 q 817 797 797 781 q 820 810 824 803 q 810 817 817 817 l 533 817 q 525 813 528 817 q 522 804 522 810 q 516 759 524 785 q 485 691 508 733 q 411 576 461 649 l 431 576 q 363 692 386 649 q 332 760 340 735 q 325 804 324 785 q 322 813 325 810 q 314 817 319 817 l 13 817 q 3 810 6 817 q 6 797 0 803 q 47 755 25 779 q 100 688 68 731 q 179 576 132 646 q 297 397 226 506 l 297 410 q 172 230 222 300 q 90 117 122 160 q 35 51 57 75 q -7 8 13 26 q -10 -4 -12 3 q 0 -11 -7 -11 l 276 -11 q 285 -8 282 -11 q 288 0 288 -4 q 294 49 286 22 q 330 124 303 76 q 411 251 357 171 l 392 251 q 470 124 443 171 q 506 49 497 76 q 514 0 515 22 q 517 -8 514 -4 q 525 -11 519 -11 m 525 11 l 536 0 q 529 51 538 24 q 494 127 521 78 q 411 263 467 176 q 402 268 408 268 q 392 263 396 268 q 307 127 335 176 q 272 51 279 78 q 265 0 264 24 l 276 11 l 0 11 l 7 -8 q 49 35 26 10 q 106 102 72 60 q 190 215 139 144 q 317 396 240 286 q 317 408 319 403 q 197 589 246 518 q 117 703 149 660 q 62 771 85 746 q 19 814 39 796 l 13 794 l 314 794 l 303 807 q 308 758 301 785 q 340 688 315 732 q 411 565 364 643 q 420 560 414 560 q 431 565 426 560 q 508 688 483 643 q 539 758 532 732 q 544 807 546 785 l 533 794 l 810 794 l 803 814 q 761 773 783 797 q 707 708 739 749 q 626 599 675 667 q 507 428 578 532 q 507 415 504 421 q 633 227 582 301 q 718 107 683 153 q 776 35 753 61 q 819 -8 800 10 l 826 11 l 525 11 z "},"y":{"ha":782,"x_min":-21,"x_max":803,"o":"m 181 725 l 161 714 l 390 311 q 400 306 393 306 q 410 311 407 306 l 633 714 l 614 725 l 390 322 q 400 317 388 317 q 410 322 413 317 l 181 725 m 413 483 l 390 483 l 389 317 q 389 317 389 317 q 389 317 389 317 l 389 86 l 411 86 l 411 317 q 411 317 411 317 q 411 317 411 317 l 413 483 m 526 -10 l 538 10 l 406 96 q 401 97 404 97 q 394 96 397 97 l 263 10 l 274 -10 l 406 76 q 400 79 408 79 q 394 76 392 79 l 526 -10 m -3 815 l -11 796 l 167 710 q 173 709 169 708 q 178 711 176 710 l 279 797 l 265 814 l 164 728 q 169 727 161 726 q 175 729 178 728 l -3 815 m 538 814 l 524 797 l 617 711 q 623 709 619 710 q 629 710 626 708 l 794 796 l 783 815 l 618 729 q 624 727 615 728 q 631 728 633 726 l 538 814 m 300 333 l 300 311 l 400 306 q 400 306 400 306 q 400 306 400 306 l 500 311 l 500 333 l 400 328 q 400 328 399 328 q 400 328 401 328 l 300 333 m 789 817 l 531 817 q 522 813 525 817 q 519 803 518 808 q 522 763 524 785 q 508 709 521 742 q 468 624 496 676 q 392 489 440 571 l 411 489 q 335 624 363 571 q 294 709 307 676 q 281 763 282 742 q 283 803 279 785 q 281 813 285 808 q 272 817 278 817 l -7 817 q -17 810 -14 817 q -15 799 -21 804 q 24 751 3 779 q 79 673 46 724 q 164 537 113 622 q 290 317 215 451 l 289 322 q 285 151 289 213 q 276 58 282 89 q 258 6 269 26 q 259 -6 256 0 q 268 -11 263 -11 l 532 -11 q 542 -6 539 -11 q 542 6 544 0 q 525 58 532 26 q 515 151 518 89 q 511 322 513 213 l 510 317 q 633 538 585 453 q 710 674 681 624 q 760 751 740 724 q 797 799 779 779 q 799 810 803 804 q 789 817 796 817 m 789 794 l 781 813 q 743 765 763 793 q 694 688 724 738 q 615 551 664 638 q 490 328 567 464 q 489 325 489 326 q 489 322 489 324 q 494 145 490 208 q 505 49 497 82 q 522 -6 513 15 l 532 11 l 268 11 l 278 -6 q 296 49 289 15 q 307 145 303 82 q 311 322 311 208 q 311 325 311 324 q 310 328 311 326 q 182 550 233 464 q 97 687 131 636 q 41 765 63 738 q 1 813 19 793 l -7 794 l 272 794 l 261 808 q 258 767 257 789 q 270 712 258 746 q 311 622 282 678 q 392 478 340 565 q 401 472 394 472 q 411 478 408 472 q 492 621 463 565 q 533 710 521 676 q 545 767 544 744 q 542 808 546 789 l 531 794 l 789 794 z "},"z":{"ha":717,"x_min":18,"x_max":699,"o":"m 153 725 l 156 703 q 224 708 183 706 q 337 710 264 710 q 532 711 410 711 q 532 722 539 711 q 522 728 525 733 l 174 89 q 174 78 171 83 q 183 72 178 72 q 369 73 299 72 q 480 76 439 74 q 549 81 521 78 l 546 103 q 478 98 518 100 q 368 95 438 96 q 183 94 299 94 q 184 83 178 94 q 193 78 190 72 l 542 717 q 542 728 544 722 q 532 733 539 733 q 336 733 410 733 q 222 730 263 732 q 153 725 181 728 m 60 604 l 76 590 l 163 707 q 165 715 165 710 q 163 721 165 719 l 76 813 l 60 799 l 146 707 q 149 714 149 704 q 146 721 149 724 l 60 604 m 669 215 l 653 229 l 539 99 q 536 92 536 96 q 539 85 536 88 l 625 -7 l 642 7 l 556 99 q 553 92 553 101 q 556 85 553 82 l 669 215 m 25 10 l 36 -10 l 189 74 q 189 74 189 74 q 189 74 189 74 l 342 157 l 331 176 l 178 93 q 178 93 178 93 q 178 93 178 93 l 25 10 m 375 649 l 386 629 l 538 713 q 538 713 538 713 q 538 713 538 713 l 692 796 l 681 815 l 526 732 q 526 732 526 732 q 526 732 526 732 l 375 649 m 686 817 l 68 817 q 60 813 64 817 q 57 806 57 810 l 57 597 q 63 588 57 592 q 74 588 68 585 q 122 609 93 599 q 210 625 151 619 q 381 628 269 631 l 371 644 l 21 6 q 22 -6 18 0 q 31 -11 25 -11 l 633 -11 q 640 -8 638 -11 q 644 -1 643 -6 l 672 221 q 667 232 674 228 q 654 231 661 236 q 600 200 632 213 q 507 181 568 188 q 336 178 446 175 l 346 161 l 696 800 q 696 811 699 806 q 686 817 693 817 m 686 794 l 676 811 l 326 172 q 327 161 324 167 q 336 156 331 156 q 513 160 450 153 q 610 181 576 167 q 668 214 644 194 l 650 224 l 622 1 l 633 11 l 31 11 l 40 -6 l 390 633 q 390 644 393 639 q 381 650 388 650 q 206 647 267 653 q 114 629 144 640 q 63 607 83 618 l 79 597 l 79 806 l 68 794 l 686 794 z "},".":{"ha":376,"x_min":65,"x_max":311,"o":"m 85 232 l 68 215 l 179 104 q 179 104 179 104 q 179 104 179 104 l 292 -8 l 308 8 l 196 121 q 196 121 196 121 q 196 121 196 121 l 85 232 m 68 8 l 85 -8 l 196 104 q 196 104 196 104 q 196 104 196 104 l 308 215 l 292 232 l 179 121 q 179 121 179 121 q 179 121 179 121 l 68 8 m 76 -11 l 300 -11 q 308 -8 304 -11 q 311 0 311 -4 l 311 224 q 308 231 311 228 q 300 235 304 235 l 76 235 q 69 231 72 235 q 65 224 65 228 l 65 0 q 69 -8 65 -4 q 76 -11 72 -11 m 76 11 l 88 0 l 88 224 l 76 213 l 300 213 l 289 224 l 289 0 l 300 11 l 76 11 z "},",":{"ha":381,"x_min":22,"x_max":333,"o":"m 28 -172 l 42 -189 q 175 -33 135 -118 q 217 138 215 53 l 194 138 q 155 -23 193 57 q 28 -172 117 -103 m 90 233 l 76 214 l 199 128 q 206 127 201 126 q 213 129 210 128 l 322 215 l 308 232 l 199 146 q 206 145 196 144 q 213 147 215 146 l 90 233 m 83 213 l 315 213 l 304 222 q 288 69 311 147 q 203 -72 265 -8 q 32 -169 142 -136 l 44 -186 q 113 38 106 -58 q 94 226 119 133 l 83 213 m 83 235 q 74 231 78 235 q 72 221 71 226 q 91 38 97 129 q 25 -175 85 -54 q 27 -187 22 -182 q 38 -192 32 -193 q 219 -87 154 -156 q 309 63 285 -19 q 326 225 333 146 q 323 232 326 229 q 315 235 319 235 l 83 235 z "},":":{"ha":376,"x_min":65,"x_max":311,"o":"m 85 232 l 68 215 l 179 104 q 179 104 179 104 q 179 104 179 104 l 292 -8 l 308 8 l 196 121 q 196 121 196 121 q 196 121 196 121 l 85 232 m 68 8 l 85 -8 l 196 104 q 196 104 196 104 q 196 104 196 104 l 308 215 l 292 232 l 179 121 q 179 121 179 121 q 179 121 179 121 l 68 8 m 85 735 l 68 718 l 179 607 q 179 607 179 607 q 179 607 179 607 l 292 494 l 308 511 l 196 624 q 196 624 196 624 q 196 624 196 624 l 85 735 m 68 511 l 85 494 l 196 607 q 196 607 196 607 q 196 607 196 607 l 308 718 l 292 735 l 179 624 q 179 624 179 624 q 179 624 179 624 l 68 511 m 76 -11 l 300 -11 q 308 -8 304 -11 q 311 0 311 -4 l 311 224 q 308 231 311 228 q 300 235 304 235 l 76 235 q 69 231 72 235 q 65 224 65 228 l 65 0 q 69 -8 65 -4 q 76 -11 72 -11 m 76 492 l 300 492 q 308 495 304 492 q 311 503 311 499 l 311 726 q 308 734 311 731 q 300 738 304 738 l 76 738 q 69 734 72 738 q 65 726 65 731 l 65 503 q 69 495 65 499 q 76 492 72 492 m 76 11 l 88 0 l 88 224 l 76 213 l 300 213 l 289 224 l 289 0 l 300 11 l 76 11 m 76 514 l 88 503 l 88 726 l 76 715 l 300 715 l 289 726 l 289 503 l 300 514 l 76 514 z "},";":{"ha":383,"x_min":22,"x_max":333,"o":"m 92 735 l 75 718 l 186 607 q 186 607 186 607 q 186 607 186 607 l 299 494 l 315 511 l 203 624 q 203 624 203 624 q 203 624 203 624 l 92 735 m 75 511 l 92 494 l 203 607 q 203 607 203 607 q 203 607 203 607 l 315 718 l 299 735 l 186 624 q 186 624 186 624 q 186 624 186 624 l 75 511 m 28 -172 l 42 -189 q 175 -33 135 -118 q 217 138 215 53 l 194 138 q 155 -23 193 57 q 28 -172 117 -103 m 90 233 l 76 214 l 199 128 q 206 127 201 126 q 213 129 210 128 l 322 215 l 308 232 l 199 146 q 206 145 196 144 q 213 147 215 146 l 90 233 m 83 492 l 307 492 q 315 495 311 492 q 318 503 318 499 l 318 726 q 315 734 318 731 q 307 738 311 738 l 83 738 q 76 734 79 738 q 72 726 72 731 l 72 503 q 76 495 72 499 q 83 492 79 492 m 83 213 l 315 213 l 304 222 q 288 69 311 147 q 203 -72 265 -8 q 32 -169 142 -136 l 44 -186 q 113 38 106 -58 q 94 226 119 133 l 83 213 m 83 514 l 94 503 l 94 726 l 83 715 l 307 715 l 296 726 l 296 503 l 307 514 l 83 514 m 83 235 q 74 231 78 235 q 72 221 71 226 q 91 38 97 129 q 25 -175 85 -54 q 27 -187 22 -182 q 38 -192 32 -193 q 219 -87 154 -156 q 309 63 285 -19 q 326 225 333 146 q 323 232 326 229 q 315 235 319 235 l 83 235 z "},"":{"ha":404,"x_min":79,"x_max":325,"o":"m 99 578 l 82 561 l 193 450 q 193 450 193 450 q 193 450 193 450 l 306 338 l 322 354 l 210 467 q 210 467 210 467 q 210 467 210 467 l 99 578 m 82 354 l 99 338 l 210 450 q 210 450 210 450 q 210 450 210 450 l 322 561 l 306 578 l 193 467 q 193 467 193 467 q 193 467 193 467 l 82 354 m 90 335 l 314 335 q 322 338 318 335 q 325 346 325 342 l 325 569 q 322 577 325 574 q 314 581 318 581 l 90 581 q 83 577 86 581 q 79 569 79 574 l 79 346 q 83 338 79 342 q 90 335 86 335 m 90 357 l 101 346 l 101 569 l 90 558 l 314 558 l 303 569 l 303 346 l 314 357 l 90 357 z "},"":{"ha":1129,"x_min":65,"x_max":1064,"o":"m 85 232 l 68 215 l 179 104 q 179 104 179 104 q 179 104 179 104 l 292 -8 l 308 8 l 196 121 q 196 121 196 121 q 196 121 196 121 l 85 232 m 68 8 l 85 -8 l 196 104 q 196 104 196 104 q 196 104 196 104 l 308 215 l 292 232 l 179 121 q 179 121 179 121 q 179 121 179 121 l 68 8 m 461 232 l 444 215 l 556 104 q 556 104 556 104 q 556 104 556 104 l 668 -8 l 685 8 l 572 121 q 572 121 572 121 q 572 121 572 121 l 461 232 m 444 8 l 461 -8 l 572 104 q 572 104 572 104 q 572 104 572 104 l 685 215 l 668 232 l 556 121 q 556 121 556 121 q 556 121 556 121 l 444 8 m 838 232 l 821 215 l 932 104 q 932 104 932 104 q 932 104 932 104 l 1044 -8 l 1061 8 l 949 121 q 949 121 949 121 q 949 121 949 121 l 838 232 m 821 8 l 838 -8 l 949 104 q 949 104 949 104 q 949 104 949 104 l 1061 215 l 1044 232 l 932 121 q 932 121 932 121 q 932 121 932 121 l 821 8 m 76 -11 l 300 -11 q 308 -8 304 -11 q 311 0 311 -4 l 311 224 q 308 231 311 228 q 300 235 304 235 l 76 235 q 69 231 72 235 q 65 224 65 228 l 65 0 q 69 -8 65 -4 q 76 -11 72 -11 m 453 -11 l 676 -11 q 684 -8 681 -11 q 688 0 688 -4 l 688 224 q 684 231 688 228 q 676 235 681 235 l 453 235 q 445 231 449 235 q 442 224 442 228 l 442 0 q 445 -8 442 -4 q 453 -11 449 -11 m 829 -11 l 1053 -11 q 1060 -8 1057 -11 q 1064 0 1064 -4 l 1064 224 q 1060 231 1064 228 q 1053 235 1057 235 l 829 235 q 822 231 825 235 q 818 224 818 228 l 818 0 q 822 -8 818 -4 q 829 -11 825 -11 m 76 11 l 88 0 l 88 224 l 76 213 l 300 213 l 289 224 l 289 0 l 300 11 l 76 11 m 453 11 l 464 0 l 464 224 l 453 213 l 676 213 l 665 224 l 665 0 l 676 11 l 453 11 m 829 11 l 840 0 l 840 224 l 829 213 l 1053 213 l 1042 224 l 1042 0 l 1053 11 l 829 11 z "},"!":{"ha":401,"x_min":58,"x_max":343,"o":"m 97 232 l 81 215 l 192 104 q 192 104 192 104 q 192 104 192 104 l 304 -8 l 321 8 l 208 121 q 208 121 208 121 q 208 121 208 121 l 97 232 m 81 8 l 97 -8 l 208 104 q 208 104 208 104 q 208 104 208 104 l 321 215 l 304 232 l 192 121 q 192 121 192 121 q 192 121 192 121 l 81 8 m 189 421 l 211 421 l 211 858 l 189 858 l 189 421 m 268 349 l 282 365 l 207 429 q 200 432 204 432 q 193 429 196 432 l 119 365 l 133 349 l 207 413 q 200 415 210 415 q 193 413 190 415 l 268 349 m 76 954 l 65 935 l 194 849 q 201 847 197 847 q 206 849 204 847 l 336 935 l 325 954 l 194 868 q 200 867 192 867 q 206 868 208 867 l 76 954 m 138 357 q 127 581 132 490 q 117 731 122 672 q 108 828 113 790 q 97 892 103 865 q 82 947 90 919 l 71 933 l 331 933 l 319 947 q 305 892 311 919 q 294 828 299 865 q 284 731 289 790 q 274 581 279 672 q 264 357 269 490 l 275 368 l 126 368 l 138 357 m 89 -11 l 313 -11 q 320 -8 317 -11 q 324 0 324 -4 l 324 224 q 320 231 324 228 q 313 235 317 235 l 89 235 q 81 231 85 235 q 78 224 78 228 l 78 0 q 81 -8 78 -4 q 89 -11 85 -11 m 115 357 q 119 349 115 351 q 126 346 122 346 l 275 346 q 283 349 279 346 q 286 357 286 351 q 297 580 292 490 q 306 728 301 669 q 316 824 311 786 q 327 888 321 861 q 342 942 333 914 q 340 951 343 947 q 331 956 336 956 l 71 956 q 62 951 65 956 q 60 942 58 947 q 74 888 68 914 q 85 824 81 861 q 95 728 90 786 q 105 580 100 669 q 115 357 110 490 m 89 11 l 100 0 l 100 224 l 89 213 l 313 213 l 301 224 l 301 0 l 313 11 l 89 11 z "},"":{"ha":401,"x_min":58,"x_max":343,"o":"m 304 713 l 321 729 l 210 840 q 210 840 210 840 q 210 840 210 840 l 97 953 l 81 936 l 193 824 q 193 824 193 824 q 193 824 193 824 l 304 713 m 321 936 l 304 953 l 193 840 q 193 840 193 840 q 193 840 193 840 l 81 729 l 97 713 l 210 824 q 210 824 210 824 q 210 824 210 824 l 321 936 m 213 524 l 190 524 l 190 86 l 213 86 l 213 524 m 133 596 l 119 579 l 194 515 q 201 513 197 513 q 208 515 206 513 l 282 579 l 268 596 l 194 532 q 201 530 192 529 q 208 532 211 531 l 133 596 m 325 -10 l 336 10 l 207 96 q 202 97 206 97 q 196 96 199 97 l 65 10 l 76 -10 l 207 76 q 201 79 210 79 q 196 76 193 79 l 325 -10 m 264 588 q 274 363 269 454 q 284 213 279 272 q 294 117 289 154 q 305 52 299 79 q 319 -3 311 25 l 331 11 l 71 11 l 82 -3 q 97 52 90 25 q 108 117 103 79 q 117 213 113 154 q 127 363 122 272 q 138 588 132 454 l 126 576 l 275 576 l 264 588 m 313 956 l 89 956 q 81 952 85 956 q 78 944 78 949 l 78 721 q 81 713 78 717 q 89 710 85 710 l 313 710 q 320 713 317 710 q 324 721 324 717 l 324 944 q 320 952 324 949 q 313 956 317 956 m 286 588 q 283 596 286 593 q 275 599 279 599 l 126 599 q 119 596 122 599 q 115 588 115 593 q 105 365 110 454 q 95 217 100 275 q 85 121 90 158 q 74 57 81 83 q 60 3 68 31 q 62 -7 58 -3 q 71 -11 65 -11 l 331 -11 q 340 -7 336 -11 q 342 3 343 -3 q 327 57 333 31 q 316 121 321 83 q 306 217 311 158 q 297 365 301 275 q 286 588 292 454 m 313 933 l 301 944 l 301 721 l 313 732 l 89 732 l 100 721 l 100 944 l 89 933 l 313 933 z "},"?":{"ha":726,"x_min":51,"x_max":689,"o":"m 219 232 l 203 215 l 314 104 q 314 104 314 104 q 314 104 314 104 l 426 -8 l 443 8 l 331 121 q 331 121 331 121 q 331 121 331 121 l 219 232 m 203 8 l 219 -8 l 331 104 q 331 104 331 104 q 331 104 331 104 l 443 215 l 426 232 l 314 121 q 314 121 314 121 q 314 121 314 121 l 203 8 m 389 349 l 406 365 l 342 429 q 334 432 339 432 q 326 429 329 432 l 242 365 l 256 349 l 340 413 q 333 415 343 415 q 325 413 324 415 l 389 349 m 144 853 l 153 831 q 237 853 194 846 q 319 861 279 861 q 319 861 319 861 q 319 861 319 861 q 494 821 428 861 q 561 703 561 781 q 561 703 561 703 q 561 703 561 703 q 542 632 561 661 q 492 579 522 603 q 428 533 461 556 q 367 485 394 511 q 324 425 339 460 l 343 417 q 385 472 357 449 q 447 519 414 496 q 512 567 481 542 q 563 624 543 592 q 583 703 583 657 q 583 703 583 703 q 583 703 583 703 q 512 836 583 789 q 319 883 440 883 q 319 883 319 883 q 319 883 319 883 q 233 876 276 883 q 144 853 189 868 m 53 692 l 72 681 l 158 836 q 160 843 161 839 q 157 850 160 847 l 71 932 l 54 915 l 140 833 q 142 841 143 832 q 139 847 142 850 l 53 692 m 249 346 l 397 346 q 405 349 401 346 q 408 357 408 353 q 444 422 408 396 q 524 475 481 449 q 601 528 564 499 q 664 602 639 558 q 689 708 689 646 q 590 904 689 836 q 321 972 490 972 q 194 963 261 972 q 60 935 128 954 q 53 931 56 933 q 51 924 51 928 l 51 686 q 58 676 51 679 q 69 678 64 674 q 189 747 125 721 q 318 772 253 772 q 416 752 378 772 q 454 696 454 732 q 424 635 454 661 q 360 583 394 610 q 297 530 328 560 q 249 458 267 500 q 238 356 232 417 q 241 349 238 351 q 249 346 244 346 m 211 -11 l 435 -11 q 442 -8 439 -11 q 446 0 446 -4 l 446 224 q 442 231 446 228 q 435 235 439 235 l 211 235 q 203 231 207 235 q 200 224 200 228 l 200 0 q 203 -8 200 -4 q 211 -11 207 -11 m 249 368 l 260 358 q 270 451 254 414 q 315 517 286 489 q 374 567 344 544 q 445 626 414 597 q 476 696 476 654 q 434 767 476 740 q 318 794 392 794 q 182 767 249 794 q 56 694 115 739 l 74 686 l 74 924 l 65 913 q 197 941 131 932 q 321 950 263 950 q 573 889 479 950 q 667 708 667 828 q 644 610 667 650 q 585 544 621 571 q 513 494 550 517 q 424 433 461 463 q 386 357 386 404 l 397 368 l 249 368 m 211 11 l 222 0 l 222 224 l 211 213 l 435 213 l 424 224 l 424 0 l 435 11 l 211 11 z "},"":{"ha":726,"x_min":38,"x_max":675,"o":"m 507 713 l 524 729 l 413 840 q 413 840 413 840 q 413 840 413 840 l 300 953 l 283 936 l 396 824 q 396 824 396 824 q 396 824 396 824 l 507 713 m 524 936 l 507 953 l 396 840 q 396 840 396 840 q 396 840 396 840 l 283 729 l 300 713 l 413 824 q 413 824 413 824 q 413 824 413 824 l 524 936 m 338 596 l 321 579 l 385 515 q 392 513 388 514 q 400 515 397 513 l 485 579 l 471 596 l 386 532 q 394 530 383 531 q 401 532 404 529 l 338 596 m 403 519 l 383 528 q 341 473 369 497 q 279 426 313 449 q 215 378 246 403 q 163 320 183 353 q 143 242 143 288 q 143 242 143 242 q 143 242 143 242 q 215 109 143 157 q 407 61 286 61 q 407 61 407 61 q 407 61 407 61 q 494 69 450 61 q 582 92 539 78 l 574 114 q 490 92 532 100 q 407 83 447 83 q 407 83 407 83 q 407 83 407 83 q 232 124 299 83 q 165 242 165 165 q 165 242 165 242 q 165 242 165 242 q 185 313 165 283 q 235 365 204 342 q 299 411 265 389 q 360 459 332 433 q 403 519 389 485 m 674 253 l 654 264 l 568 108 q 567 101 567 106 q 569 94 568 97 l 656 13 l 672 29 l 586 111 q 585 104 583 114 q 588 97 586 94 l 674 253 m 318 588 q 283 522 318 549 q 204 471 247 496 q 126 417 165 447 q 63 344 88 388 q 38 236 38 300 q 138 40 38 108 q 406 -28 238 -28 q 533 -19 467 -28 q 667 10 599 -10 q 673 14 671 11 q 675 21 675 17 l 675 258 q 669 268 675 265 q 657 267 663 271 q 538 198 601 224 q 408 172 474 172 q 310 192 349 172 q 272 249 272 213 q 302 309 272 283 q 367 361 332 335 q 430 415 400 386 q 478 487 460 444 q 489 589 496 529 q 485 596 489 593 q 478 599 482 599 l 329 599 q 322 595 325 599 q 318 588 318 592 m 515 956 l 292 956 q 284 952 288 956 q 281 944 281 949 l 281 721 q 284 713 281 717 q 292 710 288 710 l 515 710 q 523 713 519 710 q 526 721 526 717 l 526 944 q 523 952 526 949 q 515 956 519 956 m 340 588 l 329 576 l 478 576 l 467 586 q 457 494 474 532 q 412 428 440 456 q 353 378 383 401 q 281 319 313 347 q 250 249 250 290 q 293 177 250 204 q 408 150 336 150 q 544 178 478 150 q 671 250 611 206 l 653 258 l 653 21 l 661 32 q 530 3 596 13 q 406 -6 464 -6 q 153 56 247 -6 q 60 236 60 117 q 83 335 60 296 q 143 402 107 375 q 215 451 179 429 q 303 512 267 483 q 340 588 340 540 m 515 933 l 504 944 l 504 721 l 515 732 l 292 732 l 303 721 l 303 944 l 292 933 l 515 933 z "},"'":{"ha":413,"x_min":76,"x_max":336,"o":"m 194 617 l 217 617 l 217 858 l 194 858 l 194 617 m 269 544 l 283 561 l 213 625 q 206 628 210 628 q 199 625 201 628 l 129 561 l 143 544 l 213 608 q 206 611 215 611 q 199 608 196 611 l 269 544 m 96 953 l 82 936 l 199 850 q 206 847 201 847 q 213 850 210 847 l 331 936 l 317 953 l 199 867 q 206 865 196 865 q 213 867 215 865 l 96 953 m 147 554 l 100 946 l 89 933 l 324 933 l 313 946 l 265 554 l 276 564 l 136 564 l 147 554 m 125 551 q 129 544 126 547 q 136 542 132 542 l 276 542 q 283 544 281 542 q 288 551 286 547 l 335 943 q 333 952 336 949 q 324 956 329 956 l 89 956 q 80 952 83 956 q 78 943 76 949 l 125 551 z "},"\"":{"ha":719,"x_min":76,"x_max":643,"o":"m 194 617 l 217 617 l 217 858 l 194 858 l 194 617 m 269 544 l 283 561 l 213 625 q 206 628 210 628 q 199 625 201 628 l 129 561 l 143 544 l 213 608 q 206 611 215 611 q 199 608 196 611 l 269 544 m 96 953 l 82 936 l 199 850 q 206 847 201 847 q 213 850 210 847 l 331 936 l 317 953 l 199 867 q 206 865 196 865 q 213 867 215 865 l 96 953 m 501 617 l 524 617 l 524 858 l 501 858 l 501 617 m 576 544 l 590 561 l 519 625 q 513 628 517 628 q 506 625 508 628 l 436 561 l 450 544 l 519 608 q 513 611 522 611 q 506 608 503 611 l 576 544 m 403 953 l 389 936 l 506 850 q 513 847 508 847 q 519 850 517 847 l 638 936 l 624 953 l 506 867 q 513 865 503 865 q 519 867 522 865 l 403 953 m 147 554 l 100 946 l 89 933 l 324 933 l 313 946 l 265 554 l 276 564 l 136 564 l 147 554 m 454 554 l 407 946 l 396 933 l 631 933 l 619 946 l 572 554 l 583 564 l 443 564 l 454 554 m 125 551 q 129 544 126 547 q 136 542 132 542 l 276 542 q 283 544 281 542 q 288 551 286 547 l 335 943 q 333 952 336 949 q 324 956 329 956 l 89 956 q 80 952 83 956 q 78 943 76 949 l 125 551 m 432 551 q 436 544 433 547 q 443 542 439 542 l 583 542 q 590 544 588 542 q 594 551 593 547 l 642 943 q 640 952 643 949 q 631 956 636 956 l 396 956 q 387 952 390 956 q 385 943 383 949 l 432 551 z "},"":{"ha":381,"x_min":47,"x_max":358,"o":"m 353 950 l 339 967 q 206 811 246 896 q 164 640 165 726 l 186 640 q 226 802 188 722 q 353 950 264 882 m 290 544 l 304 564 l 182 650 q 175 652 179 653 q 168 649 171 651 l 58 563 l 72 546 l 182 632 q 176 634 185 635 q 168 631 167 633 l 290 544 m 297 565 l 65 565 l 76 556 q 92 708 69 631 q 178 850 115 786 q 349 947 240 914 l 336 964 q 268 742 275 838 q 286 551 261 646 l 297 565 m 297 543 q 306 547 303 543 q 308 557 310 551 q 290 740 283 649 q 356 953 296 832 q 354 966 358 960 q 343 969 350 972 q 162 865 228 933 q 72 715 96 797 q 54 553 47 632 q 58 546 54 549 q 65 543 61 543 l 297 543 z "},"":{"ha":381,"x_min":22,"x_max":333,"o":"m 28 549 l 42 532 q 175 688 135 603 q 217 858 215 774 l 194 858 q 155 698 193 778 q 28 549 117 618 m 90 954 l 76 935 l 199 849 q 206 848 201 847 q 213 850 210 849 l 322 936 l 308 953 l 199 867 q 206 866 196 865 q 213 868 215 867 l 90 954 m 83 933 l 315 933 l 304 943 q 288 790 311 868 q 203 649 265 713 q 32 551 142 585 l 44 535 q 113 758 106 663 q 94 947 119 854 l 83 933 m 83 956 q 74 951 78 956 q 72 942 71 947 q 92 820 89 881 q 81 693 96 760 q 25 546 65 626 q 27 533 22 539 q 38 529 32 528 q 219 633 154 565 q 309 784 285 701 q 326 946 333 867 q 323 953 326 950 q 315 956 319 956 l 83 956 z "},"":{"ha":381,"x_min":22,"x_max":333,"o":"m 28 -172 l 42 -189 q 175 -33 135 -118 q 217 138 215 53 l 194 138 q 155 -23 193 57 q 28 -172 117 -103 m 90 233 l 76 214 l 199 128 q 206 127 201 126 q 213 129 210 128 l 322 215 l 308 232 l 199 146 q 206 145 196 144 q 213 147 215 146 l 90 233 m 83 213 l 315 213 l 304 222 q 288 69 311 147 q 203 -72 265 -8 q 32 -169 142 -136 l 44 -186 q 113 38 106 -58 q 94 226 119 133 l 83 213 m 83 235 q 74 231 78 235 q 72 221 71 226 q 91 38 97 129 q 25 -175 85 -54 q 27 -187 22 -182 q 38 -192 32 -193 q 219 -87 154 -156 q 309 63 285 -19 q 326 225 333 146 q 323 232 326 229 q 315 235 319 235 l 83 235 z "},"":{"ha":693,"x_min":47,"x_max":671,"o":"m 353 950 l 339 967 q 206 811 246 896 q 164 640 165 726 l 186 640 q 226 802 188 722 q 353 950 264 882 m 290 544 l 304 564 l 182 650 q 175 652 179 653 q 168 649 171 651 l 58 563 l 72 546 l 182 632 q 176 634 185 635 q 168 631 167 633 l 290 544 m 665 950 l 651 967 q 518 811 558 896 q 476 640 478 726 l 499 640 q 538 802 500 722 q 665 950 576 882 m 603 544 l 617 564 l 494 650 q 488 652 492 653 q 481 649 483 651 l 371 563 l 385 546 l 494 632 q 488 634 497 635 q 481 631 479 633 l 603 544 m 297 565 l 65 565 l 76 556 q 92 708 69 631 q 178 850 115 786 q 349 947 240 914 l 336 964 q 268 742 275 838 q 286 551 261 646 l 297 565 m 610 565 l 378 565 l 389 556 q 405 708 382 631 q 490 850 428 786 q 661 947 553 914 l 649 964 q 581 742 588 838 q 599 551 574 646 l 610 565 m 297 543 q 306 547 303 543 q 308 557 310 551 q 290 740 283 649 q 356 953 296 832 q 354 966 358 960 q 343 969 350 972 q 162 865 228 933 q 72 715 96 797 q 54 553 47 632 q 58 546 54 549 q 65 543 61 543 l 297 543 m 610 543 q 619 547 615 543 q 621 557 622 551 q 601 678 604 618 q 613 806 597 739 q 668 953 629 872 q 667 966 671 960 q 656 969 663 972 q 474 865 540 933 q 384 715 408 797 q 367 553 360 632 q 370 546 367 549 q 378 543 374 543 l 610 543 z "},"":{"ha":693,"x_min":22,"x_max":646,"o":"m 28 549 l 42 532 q 175 688 135 603 q 217 858 215 774 l 194 858 q 155 698 193 778 q 28 549 117 618 m 90 954 l 76 935 l 199 849 q 206 848 201 847 q 213 850 210 849 l 322 936 l 308 953 l 199 867 q 206 866 196 865 q 213 868 215 867 l 90 954 m 340 549 l 354 532 q 488 688 447 603 q 529 858 528 774 l 507 858 q 467 698 506 778 q 340 549 429 618 m 403 954 l 389 935 l 511 849 q 518 848 514 847 q 525 850 522 849 l 635 936 l 621 953 l 511 867 q 518 866 508 865 q 525 868 528 867 l 403 954 m 396 933 l 628 933 l 617 943 q 601 790 624 868 q 516 649 578 713 q 344 551 454 585 l 357 535 q 425 758 418 663 q 407 947 432 854 l 396 933 m 83 933 l 315 933 l 304 943 q 288 790 311 868 q 203 649 265 713 q 32 551 142 585 l 44 535 q 113 758 106 663 q 94 947 119 854 l 83 933 m 396 956 q 387 951 390 956 q 385 942 383 947 q 405 820 401 881 q 393 693 408 760 q 338 546 378 626 q 340 533 335 539 q 350 529 344 528 q 532 633 467 565 q 622 784 597 701 q 639 946 646 867 q 635 953 639 950 q 628 956 632 956 l 396 956 m 83 956 q 74 951 78 956 q 72 942 71 947 q 92 820 89 881 q 81 693 96 760 q 25 546 65 626 q 27 533 22 539 q 38 529 32 528 q 219 633 154 565 q 309 784 285 701 q 326 946 333 867 q 323 953 326 950 q 315 956 319 956 l 83 956 z "},"":{"ha":693,"x_min":22,"x_max":646,"o":"m 28 -172 l 42 -189 q 175 -33 135 -118 q 217 138 215 53 l 194 138 q 155 -23 193 57 q 28 -172 117 -103 m 90 233 l 76 214 l 199 128 q 206 127 201 126 q 213 129 210 128 l 322 215 l 308 232 l 199 146 q 206 145 196 144 q 213 147 215 146 l 90 233 m 340 -172 l 354 -189 q 488 -33 447 -118 q 529 138 528 53 l 507 138 q 467 -23 506 57 q 340 -172 429 -103 m 403 233 l 389 214 l 511 128 q 518 127 514 126 q 525 129 522 128 l 635 215 l 621 232 l 511 146 q 518 145 508 144 q 525 147 528 146 l 403 233 m 396 213 l 628 213 l 617 222 q 601 69 624 147 q 516 -72 578 -8 q 344 -169 454 -136 l 357 -186 q 425 38 418 -58 q 407 226 432 133 l 396 213 m 83 213 l 315 213 l 304 222 q 288 69 311 147 q 203 -72 265 -8 q 32 -169 142 -136 l 44 -186 q 113 38 106 -58 q 94 226 119 133 l 83 213 m 396 235 q 387 231 390 235 q 385 221 383 226 q 403 38 410 129 q 338 -175 397 -54 q 340 -187 335 -182 q 350 -192 344 -193 q 532 -87 467 -156 q 622 63 597 -19 q 639 225 646 146 q 635 232 639 229 q 628 235 632 235 l 396 235 m 83 235 q 74 231 78 235 q 72 221 71 226 q 91 38 97 129 q 25 -175 85 -54 q 27 -187 22 -182 q 38 -192 32 -193 q 219 -87 154 -156 q 309 63 285 -19 q 326 225 333 146 q 323 232 326 229 q 315 235 319 235 l 83 235 z "},"":{"ha":600,"x_min":-4,"x_max":558,"o":"m 554 799 l 535 813 q 365 603 454 696 q 174 429 276 510 q 169 421 169 426 q 174 413 169 415 q 365 239 276 332 q 535 29 454 146 l 554 43 q 382 254 472 160 q 188 429 292 349 q 183 421 183 433 q 188 413 183 408 q 382 588 292 493 q 554 799 472 682 m 7 432 l 7 410 l 181 410 q 181 410 181 410 q 181 410 181 410 l 354 410 l 354 432 l 181 432 q 181 432 181 432 q 181 432 181 432 l 7 432 m 364 414 q 466 589 417 492 q 556 801 515 686 q 551 815 558 810 q 536 814 543 821 q 285 605 415 696 q 1 431 154 514 q -4 421 -4 428 q 1 411 -4 414 q 285 238 154 328 q 536 28 415 147 q 551 27 543 22 q 556 40 558 32 q 466 253 515 156 q 364 428 417 351 l 364 414 m 344 428 q 344 414 342 421 q 446 243 397 339 q 533 32 494 147 l 553 44 q 299 256 431 164 q 13 431 167 347 l 13 411 q 299 587 167 494 q 553 797 431 679 l 533 810 q 446 599 494 694 q 344 428 397 503 z "},"":{"ha":600,"x_min":43,"x_max":604,"o":"m 46 43 l 65 29 q 235 239 146 146 q 426 413 325 332 q 431 421 431 415 q 426 429 431 426 q 235 603 325 510 q 65 813 146 696 l 46 799 q 218 588 128 682 q 413 413 308 493 q 417 421 417 408 q 413 429 417 433 q 218 254 308 349 q 46 43 128 160 m 246 432 l 246 410 l 419 410 q 419 410 419 410 q 419 410 419 410 l 593 410 l 593 432 l 419 432 q 419 432 419 432 q 419 432 419 432 l 246 432 m 236 428 q 135 253 185 351 q 44 40 85 156 q 51 27 43 32 q 64 28 58 22 q 315 238 185 147 q 599 411 446 328 q 604 421 604 414 q 599 431 604 428 q 315 605 446 514 q 64 814 185 696 q 51 815 58 821 q 44 801 43 810 q 135 589 85 686 q 236 414 185 492 l 236 428 m 256 414 q 256 428 258 421 q 155 599 204 503 q 67 810 106 694 l 47 797 q 302 587 171 679 q 588 411 433 494 l 588 431 q 302 256 433 347 q 47 44 171 164 l 67 32 q 155 243 106 147 q 256 414 204 339 z "},"":{"ha":1044,"x_min":-4,"x_max":1003,"o":"m 554 799 l 535 813 q 365 603 454 696 q 174 429 276 510 q 169 421 169 426 q 174 413 169 415 q 365 239 276 332 q 535 29 454 146 l 554 43 q 382 254 472 160 q 188 429 292 349 q 183 421 183 433 q 188 413 183 408 q 382 588 292 493 q 554 799 472 682 m 7 432 l 7 410 l 181 410 q 181 410 181 410 q 181 410 181 410 l 354 410 l 354 432 l 181 432 q 181 432 181 432 q 181 432 181 432 l 7 432 m 999 799 l 979 813 q 810 603 899 696 q 618 429 721 510 q 614 421 614 426 q 618 413 614 415 q 810 239 721 332 q 979 29 899 146 l 999 43 q 826 254 917 160 q 632 429 736 349 q 628 421 628 433 q 632 413 628 408 q 826 588 736 493 q 999 799 917 682 m 451 432 l 451 410 l 625 410 q 625 410 625 410 q 625 410 625 410 l 799 410 l 799 432 l 625 432 q 625 432 625 432 q 625 432 625 432 l 451 432 m 364 414 q 466 589 417 492 q 556 801 515 686 q 551 815 558 810 q 536 814 543 821 q 285 605 415 696 q 1 431 154 514 q -4 421 -4 428 q 1 411 -4 414 q 285 238 154 328 q 536 28 415 147 q 551 27 543 22 q 556 40 558 32 q 466 253 515 156 q 364 428 417 351 l 364 414 m 808 414 q 910 589 861 492 q 1000 801 960 686 q 995 815 1003 810 q 981 814 988 821 q 729 605 860 696 q 446 431 599 514 q 440 421 440 428 q 446 411 440 414 q 729 238 599 328 q 981 28 860 147 q 995 27 988 22 q 1000 40 1003 32 q 910 253 960 156 q 808 428 861 351 l 808 414 m 344 428 q 344 414 342 421 q 446 243 397 339 q 533 32 494 147 l 553 44 q 299 256 431 164 q 13 431 167 347 l 13 411 q 299 587 167 494 q 553 797 431 679 l 533 810 q 446 599 494 694 q 344 428 397 503 m 789 428 q 789 414 786 421 q 890 243 842 339 q 978 32 939 147 l 997 44 q 743 256 875 164 q 457 431 611 347 l 457 411 q 743 587 611 494 q 997 797 875 679 l 978 810 q 890 599 939 694 q 789 428 842 503 z "},"":{"ha":1044,"x_min":43,"x_max":1049,"o":"m 490 43 l 510 29 q 680 239 590 146 q 871 413 769 332 q 875 421 875 415 q 871 429 875 426 q 680 603 769 510 q 510 813 590 696 l 490 799 q 663 588 572 682 q 857 413 753 493 q 861 421 861 408 q 857 429 861 433 q 663 254 753 349 q 490 43 572 160 m 690 432 l 690 410 l 864 410 q 864 410 864 410 q 864 410 864 410 l 1038 410 l 1038 432 l 864 432 q 864 432 864 432 q 864 432 864 432 l 690 432 m 46 43 l 65 29 q 235 239 146 146 q 426 413 325 332 q 431 421 431 415 q 426 429 431 426 q 235 603 325 510 q 65 813 146 696 l 46 799 q 218 588 128 682 q 413 413 308 493 q 417 421 417 408 q 413 429 417 433 q 218 254 308 349 q 46 43 128 160 m 246 432 l 246 410 l 419 410 q 419 410 419 410 q 419 410 419 410 l 593 410 l 593 432 l 419 432 q 419 432 419 432 q 419 432 419 432 l 246 432 m 681 428 q 579 253 629 351 q 489 40 529 156 q 495 27 488 32 q 508 28 503 22 q 760 238 629 147 q 1043 411 890 328 q 1049 421 1049 414 q 1043 431 1049 428 q 760 605 890 514 q 508 814 629 696 q 495 815 503 821 q 489 801 488 810 q 579 589 529 686 q 681 414 629 492 l 681 428 m 236 428 q 135 253 185 351 q 44 40 85 156 q 51 27 43 32 q 64 28 58 22 q 315 238 185 147 q 599 411 446 328 q 604 421 604 414 q 599 431 604 428 q 315 605 446 514 q 64 814 185 696 q 51 815 58 821 q 44 801 43 810 q 135 589 85 686 q 236 414 185 492 l 236 428 m 700 414 q 700 428 703 421 q 599 599 649 503 q 511 810 550 694 l 492 797 q 747 587 615 679 q 1032 411 878 494 l 1032 431 q 747 256 878 347 q 492 44 615 164 l 511 32 q 599 243 550 147 q 700 414 649 339 m 256 414 q 256 428 258 421 q 155 599 204 503 q 67 810 106 694 l 47 797 q 302 587 171 679 q 588 411 433 494 l 588 431 q 302 256 433 347 q 47 44 171 164 l 67 32 q 155 243 106 147 q 256 414 204 339 z "},"(":{"ha":668,"x_min":44,"x_max":610,"o":"m 515 1022 l 510 1044 q 331 942 411 1015 q 202 752 250 869 q 154 472 154 635 q 154 472 154 472 q 154 472 154 472 q 202 192 154 310 q 331 3 250 75 q 510 -100 411 -69 l 515 -78 q 344 21 421 -49 q 222 203 267 90 q 176 472 176 315 q 176 472 176 472 q 176 472 176 472 q 222 742 176 629 q 344 924 267 854 q 515 1022 421 994 m 608 1150 l 589 1164 l 503 1040 q 502 1033 501 1036 q 504 1026 503 1029 l 590 935 l 607 949 l 521 1040 q 519 1033 518 1043 q 522 1026 519 1024 l 608 1150 m 607 -4 l 590 10 l 504 -82 q 502 -87 503 -83 q 503 -96 501 -92 l 589 -219 l 608 -206 l 522 -82 q 519 -89 519 -79 q 521 -96 518 -99 l 607 -4 m 610 -212 l 610 3 q 606 10 610 7 q 599 14 603 14 q 365 126 443 14 q 286 472 286 239 q 365 818 286 706 q 599 931 443 931 q 606 934 603 931 q 610 942 610 938 l 610 1157 q 606 1166 610 1163 q 596 1168 601 1169 q 403 1097 500 1150 q 224 958 306 1044 q 94 751 143 872 q 44 472 44 629 q 94 194 44 315 q 224 -14 143 72 q 403 -152 306 -100 q 596 -224 500 -204 q 606 -222 601 -225 q 610 -212 610 -218 m 588 -212 l 601 -201 q 414 -133 508 -183 q 241 1 319 -83 q 115 203 163 85 q 67 472 67 321 q 115 742 67 625 q 241 944 163 860 q 414 1078 319 1028 q 601 1146 508 1128 l 588 1157 l 588 942 l 599 953 q 349 835 435 953 q 264 472 264 717 q 349 110 264 229 q 599 -8 435 -8 l 588 3 l 588 -212 z "},")":{"ha":668,"x_min":58,"x_max":624,"o":"m 153 -76 l 158 -99 q 338 4 257 -68 q 466 194 418 76 q 514 474 514 311 q 514 474 514 474 q 514 474 514 474 q 466 753 514 636 q 338 944 418 871 q 158 1046 257 1017 l 153 1024 q 324 926 247 996 q 447 743 401 856 q 492 474 492 631 q 492 474 492 474 q 492 474 492 474 q 447 204 492 317 q 324 22 401 92 q 153 -76 247 -47 m 60 -204 l 79 -218 l 165 -94 q 167 -86 168 -90 q 164 -81 167 -82 l 78 11 l 61 -3 l 147 -94 q 149 -87 150 -97 q 146 -81 149 -78 l 60 -204 m 61 950 l 78 936 l 164 1028 q 167 1034 167 1031 q 165 1042 168 1038 l 79 1165 l 60 1151 l 146 1028 q 149 1035 149 1025 q 147 1042 150 1044 l 61 950 m 72 -222 q 265 -151 168 -203 q 444 -12 363 -99 q 574 195 525 74 q 624 474 624 317 q 574 752 624 631 q 444 960 525 874 q 265 1099 363 1046 q 72 1169 168 1151 q 63 1167 67 1171 q 58 1158 58 1164 l 58 943 q 62 935 58 939 q 69 932 65 932 q 304 819 226 932 q 382 474 382 707 q 304 128 382 240 q 69 15 226 15 q 62 12 65 15 q 58 4 58 8 l 58 -211 q 63 -220 58 -217 q 72 -222 67 -224 m 67 -200 l 81 -211 l 81 4 l 69 -7 q 319 112 235 -7 q 404 474 404 231 q 319 836 404 718 q 69 954 235 954 l 81 943 l 81 1158 l 67 1147 q 254 1079 160 1129 q 427 945 349 1029 q 553 744 506 861 q 601 474 601 626 q 553 204 601 322 q 427 2 506 86 q 254 -132 349 -82 q 67 -200 160 -182 z "},"[":{"ha":635,"x_min":106,"x_max":626,"o":"m 607 -196 l 621 -179 q 547 -130 588 -151 q 460 -92 507 -108 q 361 -65 413 -75 q 256 -51 310 -54 q 259 -59 251 -51 q 267 -62 267 -67 l 267 1007 q 259 1003 267 1011 q 256 996 251 996 q 361 1009 310 999 q 460 1036 413 1019 q 547 1075 507 1053 q 621 1124 588 1097 l 607 1140 q 510 1080 565 1106 q 390 1038 454 1054 q 256 1018 325 1022 q 247 1015 250 1018 q 244 1007 244 1011 l 244 -62 q 247 -70 244 -67 q 256 -74 250 -74 q 390 -94 325 -78 q 510 -135 454 -110 q 607 -196 565 -161 m 125 1114 l 111 1094 l 249 997 q 249 998 250 997 q 249 999 249 999 l 353 913 l 367 929 l 263 1015 q 263 1015 263 1015 q 263 1017 263 1015 l 125 1114 m 367 15 l 353 32 l 249 -54 q 249 -53 249 -54 q 249 -53 250 -53 l 111 -150 l 125 -169 l 263 -72 q 263 -71 263 -71 q 263 -71 263 -71 l 367 15 m 119 -171 q 360 -169 233 -162 q 613 -199 488 -175 q 622 -195 618 -200 q 625 -185 626 -190 q 533 -44 603 -101 q 363 35 463 13 l 371 25 q 366 190 367 85 q 365 472 365 294 q 366 755 365 650 q 371 919 367 860 l 363 910 q 533 989 463 932 q 625 1129 603 1046 q 622 1140 626 1136 q 613 1143 618 1144 q 360 1114 488 1121 q 119 1115 233 1107 q 109 1110 113 1115 q 108 1099 106 1106 q 129 1034 122 1072 q 140 929 136 996 q 144 753 143 863 q 144 472 144 643 q 144 192 144 301 q 140 15 143 82 q 129 -90 136 -51 q 108 -154 122 -128 q 109 -165 106 -160 q 119 -171 113 -171 m 117 -149 l 128 -165 q 149 -99 142 -137 q 160 6 157 -61 q 165 185 164 74 q 167 472 167 297 q 165 759 167 647 q 160 938 164 871 q 149 1044 157 1006 q 128 1110 142 1083 l 117 1093 q 361 1092 232 1085 q 615 1121 490 1099 l 603 1135 q 517 1005 582 1058 q 357 932 451 951 q 351 928 354 931 q 349 922 349 925 q 344 756 344 861 q 343 472 343 650 q 344 189 343 294 q 349 22 344 83 q 351 17 349 19 q 357 13 354 14 q 517 -60 451 -7 q 603 -190 582 -112 l 615 -176 q 361 -147 490 -153 q 117 -149 232 -140 z "},"]":{"ha":635,"x_min":8,"x_max":529,"o":"m 28 1142 l 14 1125 q 88 1076 47 1099 q 175 1038 128 1054 q 274 1010 222 1021 q 379 997 325 1000 q 376 1005 383 997 q 368 1008 368 1013 l 368 -61 q 376 -58 368 -65 q 379 -50 383 -50 q 274 -63 325 -53 q 175 -90 222 -74 q 88 -128 128 -107 q 14 -178 47 -150 l 28 -194 q 126 -134 71 -160 q 245 -92 181 -108 q 379 -72 310 -76 q 388 -69 385 -72 q 390 -61 390 -65 l 390 1008 q 388 1016 390 1013 q 379 1019 385 1019 q 245 1040 310 1024 q 126 1081 181 1056 q 28 1142 71 1107 m 510 -168 l 524 -149 l 386 -51 q 385 -52 385 -51 q 386 -53 386 -53 l 282 33 l 268 17 l 372 -69 q 372 -69 372 -69 q 372 -71 372 -69 l 510 -168 m 268 931 l 282 914 l 386 1000 q 385 999 386 1000 q 386 999 385 999 l 524 1096 l 510 1115 l 372 1018 q 372 1017 372 1017 q 372 1017 372 1017 l 268 931 m 22 -197 q 274 -167 147 -174 q 515 -169 401 -161 q 526 -164 522 -169 q 526 -153 529 -158 q 506 -88 513 -126 q 495 17 499 -50 q 491 193 492 83 q 490 474 490 303 q 491 754 490 644 q 495 931 492 864 q 506 1035 499 997 q 526 1100 513 1074 q 526 1112 529 1107 q 515 1117 522 1117 q 274 1115 401 1108 q 22 1144 147 1122 q 13 1142 17 1146 q 10 1131 8 1138 q 103 990 33 1047 q 272 911 172 933 l 264 921 q 269 756 268 861 q 269 474 269 651 q 269 191 269 296 q 264 26 268 86 l 272 36 q 103 -43 172 14 q 10 -183 33 -100 q 13 -194 8 -189 q 22 -197 17 -199 m 19 -175 l 32 -189 q 119 -58 53 -111 q 278 14 185 -6 q 283 18 281 15 q 286 24 286 21 q 291 190 290 85 q 292 474 292 296 q 291 757 292 651 q 286 924 290 863 q 283 929 286 926 q 278 933 281 932 q 119 1006 185 953 q 32 1136 53 1060 l 19 1122 q 274 1093 144 1100 q 518 1094 403 1086 l 507 1111 q 485 1046 493 1085 q 474 940 478 1007 q 469 760 471 872 q 468 474 468 649 q 469 187 468 299 q 474 8 471 75 q 485 -98 478 -60 q 507 -164 493 -136 l 518 -147 q 274 -145 403 -139 q 19 -175 144 -151 z "},"{":{"ha":640,"x_min":58,"x_max":610,"o":"m 510 1040 l 515 1063 q 308 1049 382 1092 q 233 914 233 1006 q 233 914 233 914 q 233 914 233 914 q 252 807 233 864 q 289 697 271 750 q 307 606 307 644 q 307 606 307 606 q 307 606 307 606 q 273 515 307 544 q 156 485 239 485 q 144 474 144 485 q 156 463 144 463 q 273 433 239 463 q 307 342 307 404 q 307 342 307 342 q 307 342 307 342 q 289 251 307 304 q 252 142 271 199 q 233 36 233 86 q 233 36 233 36 q 233 36 233 36 q 309 -100 233 -57 q 515 -114 385 -143 l 510 -92 q 324 -83 392 -118 q 256 36 256 -49 q 256 36 256 36 q 256 36 256 36 q 274 140 256 83 q 311 249 293 196 q 329 342 329 303 q 329 342 329 342 q 329 342 329 342 q 290 449 329 413 q 156 485 250 485 q 144 474 144 485 q 156 463 144 463 q 290 499 250 463 q 329 606 329 536 q 329 606 329 606 q 329 606 329 606 q 311 699 329 646 q 274 810 293 753 q 256 914 256 867 q 256 914 256 914 q 256 914 256 914 q 324 1033 256 997 q 510 1040 392 1068 m 156 485 l 156 463 l 311 463 l 311 485 l 156 485 m 76 563 l 63 546 l 149 465 q 151 474 151 463 q 149 482 151 485 l 63 403 l 76 386 l 163 465 q 167 474 167 468 q 163 482 167 479 l 76 563 m 606 1119 l 592 1136 l 506 1060 q 502 1053 503 1057 q 503 1044 501 1049 l 589 918 l 608 932 l 522 1058 q 518 1051 519 1061 q 519 1043 517 1040 l 606 1119 m 608 17 l 589 31 l 503 -96 q 502 -104 501 -100 q 506 -111 503 -108 l 592 -187 l 606 -171 l 519 -94 q 518 -102 517 -92 q 522 -110 519 -112 l 608 17 m 69 383 l 160 383 q 192 376 178 383 q 207 347 207 368 q 195 292 207 326 q 167 213 183 257 q 140 121 151 168 q 128 29 128 74 q 188 -131 128 -72 q 354 -206 247 -190 q 601 -190 461 -221 q 607 -186 604 -189 q 610 -179 610 -183 l 610 24 q 604 33 610 31 q 593 33 599 36 q 466 -22 518 -12 q 388 -12 414 -31 q 361 42 361 6 q 378 130 361 81 q 413 233 396 179 q 429 338 429 286 q 404 431 429 392 q 314 485 379 471 l 314 463 q 404 517 379 478 q 429 611 429 557 q 413 717 429 664 q 378 819 396 769 q 361 907 361 868 q 388 961 361 943 q 466 970 414 979 q 593 915 518 961 q 604 916 599 913 q 610 925 610 919 l 610 1128 q 607 1135 610 1132 q 601 1139 604 1138 q 354 1154 461 1169 q 188 1080 247 1139 q 128 919 128 1021 q 140 828 128 875 q 167 736 151 781 q 195 657 183 692 q 207 601 207 622 q 192 573 207 581 q 160 565 178 565 l 69 565 q 62 562 65 565 q 58 554 58 558 l 58 394 q 62 387 58 390 q 69 383 65 383 m 69 406 l 81 394 l 81 554 l 69 543 l 160 543 q 208 557 186 543 q 229 601 229 571 q 217 658 229 622 q 190 739 206 694 q 162 830 174 783 q 150 919 150 876 q 206 1069 150 1015 q 363 1134 263 1122 q 596 1117 464 1146 l 588 1128 l 588 925 l 604 935 q 458 994 517 988 q 369 974 399 1000 q 339 907 339 949 q 356 817 339 867 q 390 714 374 767 q 407 611 407 661 q 386 531 407 564 q 308 485 365 497 q 300 474 300 483 q 308 463 300 465 q 386 419 365 451 q 407 338 407 386 q 390 235 407 289 q 356 132 374 182 q 339 42 339 82 q 369 -26 339 0 q 458 -45 399 -51 q 604 14 517 -39 l 588 24 l 588 -179 l 596 -168 q 363 -185 464 -197 q 206 -120 263 -174 q 150 29 150 -67 q 162 119 150 72 q 190 210 174 165 q 217 290 206 254 q 229 347 229 326 q 208 392 229 379 q 160 406 186 406 l 69 406 z "},"}":{"ha":640,"x_min":31,"x_max":582,"o":"m 131 -89 l 125 -111 q 333 -97 258 -140 q 407 38 407 -54 q 407 38 407 38 q 407 38 407 38 q 389 145 407 89 q 352 254 371 201 q 333 346 333 307 q 333 346 333 346 q 333 346 333 346 q 367 437 333 407 q 485 467 401 467 q 496 478 496 467 q 485 489 496 489 q 367 518 401 489 q 333 610 333 547 q 333 610 333 610 q 333 610 333 610 q 352 701 333 649 q 389 809 371 753 q 407 915 407 865 q 407 915 407 915 q 407 915 407 915 q 332 1052 407 1010 q 125 1065 257 1094 l 131 1043 q 317 1035 249 1071 q 385 915 385 1000 q 385 915 385 915 q 385 915 385 915 q 367 812 385 868 q 330 703 349 756 q 311 610 311 650 q 311 610 311 610 q 311 610 311 610 q 351 503 311 539 q 485 467 392 467 q 496 478 496 467 q 485 489 496 489 q 351 452 392 489 q 311 346 311 415 q 311 346 311 346 q 311 346 311 346 q 330 252 311 306 q 367 142 349 199 q 385 38 385 86 q 385 38 385 38 q 385 38 385 38 q 317 -81 385 -46 q 131 -89 250 -115 m 485 467 l 485 489 l 329 489 l 329 467 l 485 467 m 564 389 l 578 406 l 492 486 q 489 478 489 489 q 492 469 489 467 l 578 549 l 564 565 l 478 486 q 474 478 474 483 q 478 469 474 472 l 564 389 m 35 -168 l 49 -185 l 135 -108 q 139 -101 138 -106 q 138 -93 140 -97 l 51 33 l 32 19 l 118 -107 q 122 -99 121 -110 q 121 -92 124 -89 l 35 -168 m 32 935 l 51 921 l 138 1047 q 139 1056 140 1051 q 135 1063 138 1060 l 49 1139 l 35 1122 l 121 1046 q 122 1053 124 1043 q 118 1061 121 1064 l 32 935 m 571 568 l 481 568 q 448 576 463 568 q 433 604 433 583 q 445 660 433 625 q 473 739 457 694 q 501 831 489 783 q 513 922 513 878 q 453 1083 513 1024 q 287 1157 393 1142 q 39 1142 181 1172 q 33 1138 36 1140 q 31 1131 31 1135 l 31 928 q 36 919 31 922 q 47 918 42 915 q 175 973 124 964 q 253 964 226 982 q 279 910 279 946 q 263 822 279 871 q 228 719 246 772 q 211 614 211 667 q 236 520 211 560 q 326 467 261 481 l 326 489 q 236 435 261 475 q 211 340 211 394 q 228 235 211 289 q 263 133 246 182 q 279 44 279 83 q 253 -10 279 8 q 175 -19 226 -28 q 47 36 124 -10 q 36 36 42 39 q 31 26 31 33 l 31 -176 q 33 -183 31 -181 q 39 -187 36 -186 q 287 -203 181 -218 q 453 -128 393 -187 q 513 32 513 -69 q 501 124 513 76 q 473 215 489 171 q 445 294 457 260 q 433 350 433 329 q 448 378 433 371 q 481 386 463 386 l 571 386 q 578 390 575 386 q 582 397 582 393 l 582 557 q 578 565 582 561 q 571 568 575 568 m 571 546 l 560 557 l 560 397 l 571 408 l 481 408 q 433 395 454 408 q 411 350 411 382 q 423 293 411 329 q 451 213 435 257 q 478 122 467 168 q 490 32 490 75 q 434 -117 490 -64 q 278 -183 378 -171 q 44 -165 178 -194 l 53 -176 l 53 26 l 36 17 q 183 -42 125 -36 q 272 -23 242 -49 q 301 44 301 3 q 285 135 301 85 q 251 238 268 185 q 233 340 233 292 q 254 422 233 389 q 332 467 275 454 q 340 478 340 469 q 332 489 340 488 q 254 533 275 500 q 233 614 233 567 q 251 717 233 664 q 285 819 268 769 q 301 910 301 869 q 272 977 301 951 q 183 997 242 1003 q 36 938 125 990 l 53 928 l 53 1131 l 44 1119 q 278 1137 178 1149 q 434 1072 378 1125 q 490 922 490 1018 q 478 833 490 879 q 451 742 467 786 q 423 661 435 697 q 411 604 411 625 q 433 560 411 574 q 481 546 454 546 l 571 546 z "},"/":{"ha":681,"x_min":22,"x_max":660,"o":"m 531 951 l 508 960 l 153 -14 l 175 -22 l 531 951 m 222 -111 l 239 -97 l 172 -11 q 166 -7 171 -8 q 158 -8 161 -6 l 29 -94 l 40 -114 l 169 -28 q 163 -24 174 -25 q 156 -25 153 -22 l 222 -111 m 460 1049 l 443 1035 l 511 949 q 518 945 514 946 q 525 946 522 944 l 653 1032 l 642 1051 l 514 965 q 520 961 510 963 q 528 963 531 960 l 460 1049 m 35 -115 l 231 -115 q 242 -108 238 -115 l 658 1038 q 657 1048 660 1043 q 647 1053 654 1053 l 451 1053 q 440 1046 444 1053 l 24 -100 q 26 -110 22 -106 q 35 -115 29 -115 m 35 -93 l 46 -108 l 463 1038 l 451 1031 l 647 1031 l 636 1046 l 219 -100 l 231 -93 l 35 -93 z "},"|":{"ha":535,"x_min":160,"x_max":375,"o":"m 278 956 l 256 956 l 256 -18 l 278 -18 l 278 956 m 357 -112 l 371 -96 l 274 -10 q 267 -7 271 -7 q 260 -10 263 -7 l 164 -96 l 178 -112 l 274 -26 q 267 -24 276 -24 q 260 -26 257 -24 l 357 -112 m 178 1050 l 164 1033 l 260 947 q 267 944 263 944 q 274 947 271 944 l 371 1033 l 357 1050 l 260 964 q 267 961 257 961 q 274 964 276 961 l 178 1050 m 171 -115 l 364 -115 q 372 -112 368 -115 q 375 -104 375 -108 l 375 1042 q 372 1049 375 1046 q 364 1053 368 1053 l 171 1053 q 163 1049 167 1053 q 160 1042 160 1046 l 160 -104 q 163 -112 160 -108 q 171 -115 167 -115 m 171 -93 l 182 -104 l 182 1042 l 171 1031 l 364 1031 l 353 1042 l 353 -104 l 364 -93 l 171 -93 z "},"":{"ha":535,"x_min":160,"x_max":375,"o":"m 278 956 l 256 956 l 256 600 l 278 600 l 278 956 m 256 -18 l 278 -18 l 278 338 l 256 338 l 256 -18 m 357 -112 l 371 -96 l 274 -10 q 267 -7 271 -7 q 260 -10 263 -7 l 164 -96 l 178 -112 l 274 -26 q 267 -24 276 -24 q 260 -26 257 -24 l 357 -112 m 178 1050 l 164 1033 l 260 947 q 267 944 263 944 q 274 947 271 944 l 371 1033 l 357 1050 l 260 964 q 267 961 257 961 q 274 964 276 961 l 178 1050 m 357 506 l 371 522 l 274 608 q 267 611 271 611 q 260 608 263 611 l 164 522 l 178 506 l 274 592 q 267 594 276 594 q 260 592 257 594 l 357 506 m 178 432 l 164 415 l 260 329 q 267 326 263 326 q 274 329 271 326 l 371 415 l 357 432 l 260 346 q 267 343 257 343 q 274 346 276 343 l 178 432 m 171 503 l 364 503 q 372 506 368 503 q 375 514 375 510 l 375 1042 q 372 1049 375 1046 q 364 1053 368 1053 l 171 1053 q 163 1049 167 1053 q 160 1042 160 1046 l 160 514 q 163 506 160 510 q 171 503 167 503 m 171 413 l 364 413 l 353 424 l 353 -104 l 364 -93 l 171 -93 l 182 -104 l 182 424 l 171 413 m 171 525 l 182 514 l 182 1042 l 171 1031 l 364 1031 l 353 1042 l 353 514 l 364 525 l 171 525 m 171 435 q 163 431 167 435 q 160 424 160 428 l 160 -104 q 163 -112 160 -108 q 171 -115 167 -115 l 364 -115 q 372 -112 368 -115 q 375 -104 375 -108 l 375 424 q 372 431 375 428 q 364 435 368 435 l 171 435 z "},"\\":{"ha":651,"x_min":7,"x_max":644,"o":"m 158 960 l 136 951 l 492 -22 l 514 -14 l 158 960 m 626 -114 l 638 -94 l 508 -8 q 501 -7 506 -6 q 494 -11 497 -8 l 428 -97 l 444 -111 l 511 -25 q 503 -24 514 -22 q 497 -28 493 -25 l 626 -114 m 25 1051 l 14 1032 l 142 946 q 149 945 144 944 q 156 949 154 946 l 224 1035 l 207 1049 l 139 963 q 147 961 136 960 q 153 965 157 963 l 25 1051 m 643 -100 l 226 1046 q 215 1053 222 1053 l 19 1053 q 10 1048 14 1053 q 8 1038 7 1043 l 425 -108 q 436 -115 429 -115 l 632 -115 q 642 -110 639 -115 q 643 -100 644 -106 m 621 -108 l 632 -93 l 436 -93 l 447 -100 l 31 1046 l 19 1031 l 215 1031 l 204 1038 l 621 -108 z "},"":{"ha":789,"x_min":8,"x_max":781,"o":"m 647 867 l 628 878 l 142 78 l 161 67 l 647 867 m 186 -6 l 206 6 l 161 78 q 155 83 160 82 q 146 82 150 85 l 15 10 l 26 -10 l 157 63 q 151 67 161 65 q 142 67 140 69 l 186 -6 m 603 950 l 583 939 l 628 867 q 635 862 631 863 q 643 863 639 861 l 774 935 l 763 954 l 632 882 q 639 878 628 881 q 647 878 650 875 l 603 950 m 21 -11 l 196 -11 q 206 -6 201 -11 l 778 939 q 778 950 781 944 q 768 956 775 956 l 593 956 q 583 950 588 956 l 11 6 q 12 -6 8 0 q 21 -11 15 -11 m 21 11 l 31 -6 l 603 939 l 593 933 l 768 933 l 758 950 l 186 6 l 196 11 l 21 11 z "},"":{"ha":789,"x_min":151,"x_max":638,"o":"m 172 665 l 156 649 l 386 418 q 386 418 386 418 q 386 418 386 418 l 617 188 l 633 204 l 403 435 q 403 435 403 435 q 403 435 403 435 l 172 665 m 156 204 l 172 188 l 403 418 q 403 418 403 418 q 403 418 403 418 l 633 649 l 617 665 l 386 435 q 386 435 386 435 q 386 435 386 435 l 156 204 m 153 654 q 167 563 160 628 q 174 426 174 497 q 167 291 174 356 q 153 199 160 226 q 156 188 151 193 q 167 185 161 183 q 259 199 194 192 q 394 206 324 206 q 531 199 465 206 q 622 185 596 192 q 633 188 629 183 q 636 199 638 193 q 622 291 629 226 q 615 426 615 356 q 622 563 615 497 q 636 654 629 628 q 633 665 638 661 q 622 668 629 669 q 531 654 596 661 q 394 647 465 647 q 259 654 324 647 q 167 668 194 661 q 156 665 161 669 q 153 654 151 661 m 175 660 l 161 646 q 256 632 189 639 q 394 625 322 625 q 535 632 468 625 q 628 646 601 639 l 614 660 q 600 567 607 633 q 593 426 593 500 q 600 288 593 354 q 614 193 607 221 l 628 207 q 535 221 601 214 q 394 228 468 228 q 256 221 322 228 q 161 207 189 214 l 175 193 q 189 288 182 221 q 196 426 196 354 q 189 567 196 500 q 175 660 182 633 z "},"-":{"ha":472,"x_min":38,"x_max":435,"o":"m 340 454 l 335 476 l 132 431 l 138 408 l 340 454 m 40 321 l 57 307 l 143 413 q 145 421 146 415 q 142 428 144 426 l 56 496 l 42 479 l 128 411 q 131 419 132 408 q 126 426 129 431 l 40 321 m 432 564 l 415 578 l 329 472 q 327 465 326 469 q 331 457 328 460 l 417 389 l 431 406 l 344 474 q 342 465 340 476 q 346 458 343 454 l 432 564 m 51 303 l 426 386 q 432 390 429 388 q 435 397 435 393 l 435 571 q 431 580 435 576 q 421 582 426 583 l 46 499 q 40 494 43 497 q 38 488 38 492 l 38 314 q 42 305 38 308 q 51 303 46 301 m 46 325 l 60 314 l 60 488 l 51 476 l 426 560 l 413 571 l 413 397 l 421 408 l 46 325 z "},"":{"ha":472,"x_min":38,"x_max":435,"o":"m 340 454 l 335 476 l 132 431 l 138 408 l 340 454 m 40 321 l 57 307 l 143 413 q 145 421 146 415 q 142 428 144 426 l 56 496 l 42 479 l 128 411 q 131 419 132 408 q 126 426 129 431 l 40 321 m 432 564 l 415 578 l 329 472 q 327 465 326 469 q 331 457 328 460 l 417 389 l 431 406 l 344 474 q 342 465 340 476 q 346 458 343 454 l 432 564 m 51 303 l 426 386 q 432 390 429 388 q 435 397 435 393 l 435 571 q 431 580 435 576 q 421 582 426 583 l 46 499 q 40 494 43 497 q 38 488 38 492 l 38 314 q 42 305 38 308 q 51 303 46 301 m 46 325 l 60 314 l 60 488 l 51 476 l 426 560 l 413 571 l 413 397 l 421 408 l 46 325 z "},"":{"ha":771,"x_min":79,"x_max":692,"o":"m 594 431 l 594 453 l 176 453 l 176 431 l 594 431 m 82 364 l 99 347 l 185 433 q 188 441 188 436 q 185 450 188 446 l 99 538 l 82 521 l 168 433 q 171 442 171 431 q 168 450 171 453 l 82 364 m 689 521 l 672 538 l 586 450 q 583 441 583 446 q 586 433 583 436 l 672 347 l 689 364 l 603 450 q 600 442 600 453 q 603 433 600 431 l 689 521 m 90 344 l 681 344 q 688 348 685 344 q 692 356 692 351 l 692 529 q 688 537 692 533 q 681 540 685 540 l 90 540 q 83 537 86 540 q 79 529 79 533 l 79 356 q 83 348 79 351 q 90 344 86 344 m 90 367 l 101 356 l 101 529 l 90 518 l 681 518 l 669 529 l 669 356 l 681 367 l 90 367 z "},"":{"ha":1118,"x_min":79,"x_max":1039,"o":"m 942 431 l 942 453 l 176 453 l 176 431 l 942 431 m 82 364 l 99 347 l 185 433 q 188 441 188 436 q 185 450 188 446 l 99 538 l 82 521 l 168 433 q 171 442 171 431 q 168 450 171 453 l 82 364 m 1036 521 l 1019 538 l 933 450 q 931 441 931 446 q 933 433 931 436 l 1019 347 l 1036 364 l 950 450 q 947 442 947 453 q 950 433 947 431 l 1036 521 m 90 344 l 1028 344 q 1035 348 1032 344 q 1039 356 1039 351 l 1039 529 q 1035 537 1039 533 q 1028 540 1032 540 l 90 540 q 83 537 86 540 q 79 529 79 533 l 79 356 q 83 348 79 351 q 90 344 86 344 m 90 367 l 101 356 l 101 529 l 90 518 l 1028 518 l 1017 529 l 1017 356 l 1028 367 l 90 367 z "},"_":{"ha":854,"x_min":3,"x_max":851,"o":"m 754 -99 l 754 -76 l 100 -76 l 100 -99 l 754 -99 m 6 -165 l 22 -182 l 108 -96 q 111 -88 111 -93 q 108 -79 111 -83 l 22 8 l 6 -8 l 92 -96 q 94 -87 94 -99 q 92 -79 94 -76 l 6 -165 m 849 -8 l 832 8 l 746 -79 q 743 -88 743 -83 q 746 -96 743 -93 l 832 -182 l 849 -165 l 763 -79 q 760 -87 760 -76 q 763 -96 760 -99 l 849 -8 m 14 -185 l 840 -185 q 848 -181 844 -185 q 851 -174 851 -178 l 851 0 q 848 8 851 4 q 840 11 844 11 l 14 11 q 6 8 10 11 q 3 0 3 4 l 3 -174 q 6 -181 3 -178 q 14 -185 10 -185 m 14 -162 l 25 -174 l 25 0 l 14 -11 l 840 -11 l 829 0 l 829 -174 l 840 -162 l 14 -162 z "},"$":{"ha":750,"x_min":58,"x_max":713,"o":"m 165 153 l 157 131 q 254 108 206 115 q 350 100 303 100 q 350 100 350 100 q 350 100 350 100 q 538 147 468 100 q 608 281 608 193 q 608 281 608 281 q 608 281 608 281 q 577 369 608 333 q 497 432 546 406 q 390 482 447 458 q 390 482 390 482 q 390 482 390 482 q 294 528 340 504 q 217 586 247 553 q 186 667 186 619 q 186 667 186 667 q 186 667 186 667 q 214 751 186 717 q 290 802 242 785 q 396 819 338 819 q 396 819 396 819 q 396 819 396 819 q 490 813 447 819 q 571 792 532 806 l 579 814 q 493 835 538 828 q 396 842 449 842 q 396 842 396 842 q 396 842 396 842 q 278 821 331 842 q 194 761 225 800 q 164 667 164 722 q 164 667 164 667 q 164 667 164 667 q 195 577 164 614 q 276 514 226 540 q 382 463 326 488 q 382 463 382 463 q 382 463 382 463 q 478 417 432 442 q 556 360 525 393 q 586 281 586 328 q 586 281 586 281 q 586 281 586 281 q 522 162 586 201 q 350 122 457 122 q 350 122 350 122 q 350 122 350 122 q 258 130 306 122 q 165 153 211 138 m 385 832 l 407 829 l 417 982 l 394 985 l 385 832 m 328 -51 l 350 -54 l 361 110 l 339 113 l 328 -51 m 668 872 l 654 889 l 568 811 q 565 804 565 808 q 565 797 564 800 l 651 647 l 671 658 l 585 808 q 582 802 583 811 q 582 794 581 793 l 668 872 m 68 71 l 82 54 l 168 133 q 172 140 171 136 q 171 147 174 144 l 85 299 l 65 288 l 151 136 q 156 143 154 133 q 154 150 157 153 l 68 71 m 331 1078 l 314 1061 l 397 975 q 405 972 400 972 q 413 975 410 972 l 508 1061 l 494 1078 l 399 992 q 406 988 394 989 q 414 992 417 988 l 331 1078 m 414 -147 l 431 -131 l 347 -44 q 340 -42 344 -42 q 332 -44 335 -42 l 236 -131 l 250 -147 l 346 -61 q 339 -58 350 -58 q 331 -61 328 -57 l 414 -147 m 321 915 l 307 899 l 389 822 q 396 819 392 819 q 403 822 400 819 l 496 906 l 482 922 l 389 839 q 396 836 386 836 q 403 839 406 836 l 321 915 m 422 21 l 439 38 l 358 119 q 351 122 356 122 q 343 119 346 122 l 250 36 l 264 19 l 357 103 q 350 106 361 106 q 342 103 339 106 l 422 21 m 243 -150 l 422 -150 q 430 -147 426 -150 q 433 -139 433 -144 l 442 29 l 432 18 q 635 105 558 36 q 713 292 713 174 q 689 397 713 353 q 627 474 665 442 q 542 529 589 506 q 450 571 496 553 q 374 603 411 588 q 314 637 338 618 q 290 678 290 656 q 320 718 290 703 q 406 733 350 733 q 533 711 465 733 q 654 644 600 689 q 666 643 660 640 q 672 653 672 646 l 672 881 q 670 888 672 885 q 664 892 668 890 q 576 913 619 904 q 490 925 532 921 l 500 913 l 513 1068 q 510 1077 513 1074 q 501 1081 507 1081 l 322 1081 q 315 1078 318 1081 q 311 1069 311 1075 l 303 907 l 313 918 q 127 830 196 897 q 58 656 58 763 q 82 548 58 593 q 144 471 106 503 q 228 416 182 439 q 321 375 275 393 q 397 344 360 360 q 459 312 435 329 q 483 271 483 294 q 451 226 483 243 q 356 210 418 210 q 216 232 290 210 q 82 301 142 254 q 70 303 76 306 q 64 293 64 300 l 64 63 q 66 56 64 58 q 72 51 68 53 q 166 30 119 39 q 256 17 213 21 l 246 29 l 232 -137 q 235 -147 232 -143 q 243 -150 238 -150 m 243 -128 l 254 -140 l 268 26 q 265 35 268 32 q 258 39 263 39 q 170 52 215 43 q 78 74 125 61 l 86 63 l 86 293 l 68 285 q 209 212 132 236 q 356 188 286 188 q 469 212 433 188 q 506 271 506 236 q 456 340 506 315 q 329 394 406 364 q 215 449 272 418 q 119 528 157 479 q 81 656 81 578 q 144 816 81 754 q 315 896 207 878 q 322 900 319 897 q 325 907 325 903 l 333 1069 l 322 1058 l 501 1058 l 490 1071 l 478 915 q 481 906 478 910 q 488 903 483 903 q 572 890 529 899 q 658 869 614 882 l 650 881 l 650 653 l 668 661 q 540 732 611 708 q 406 756 469 756 q 301 733 333 756 q 268 678 268 710 q 317 608 268 635 q 442 551 367 582 q 556 497 499 528 q 652 417 614 465 q 690 292 690 368 q 619 119 690 182 q 429 40 547 56 q 422 36 425 39 q 419 29 419 33 l 411 -139 l 422 -128 l 243 -128 z "},"":{"ha":651,"x_min":28,"x_max":593,"o":"m 386 865 l 364 865 l 354 707 l 376 707 l 386 865 m 493 682 l 499 704 q 430 718 465 715 q 364 718 394 721 q 364 718 364 718 q 364 718 364 718 q 194 629 258 704 q 129 435 129 554 q 129 435 129 435 q 129 435 129 435 q 185 251 129 325 q 333 157 240 178 q 333 157 333 157 q 333 157 333 157 q 417 151 374 149 q 499 165 460 153 l 493 188 q 415 173 456 175 q 339 179 375 171 q 339 179 339 179 q 339 179 339 179 q 202 266 253 199 q 151 435 151 333 q 151 435 151 435 q 151 435 151 435 q 210 615 151 546 q 367 696 269 685 q 367 696 367 696 q 367 696 367 696 q 428 696 394 699 q 493 682 463 693 m 347 168 l 325 168 l 315 10 l 338 10 l 347 168 m 589 743 l 575 763 l 489 703 q 485 695 486 700 q 486 688 485 690 l 572 550 l 592 561 l 506 699 q 501 692 504 703 q 503 683 499 682 l 589 743 m 592 308 l 572 319 l 486 182 q 485 174 485 179 q 489 167 486 169 l 575 107 l 589 126 l 503 186 q 501 178 499 189 q 506 171 504 167 l 592 308 m 301 953 l 285 936 l 367 857 q 374 854 369 854 q 382 857 379 854 l 474 936 l 460 953 l 368 874 q 376 871 365 871 q 383 874 386 871 l 301 953 m 289 781 l 275 764 l 358 699 q 365 696 361 696 q 372 699 369 696 l 464 776 l 450 793 l 358 715 q 365 714 356 714 q 372 715 375 714 l 289 781 m 400 -78 l 417 -61 l 335 18 q 327 21 332 21 q 319 18 322 21 l 228 -61 l 242 -78 l 333 1 q 326 4 336 4 q 318 1 315 4 l 400 -78 m 410 74 l 426 90 l 344 176 q 338 180 342 179 q 331 178 333 181 l 240 121 l 251 101 l 342 158 q 335 162 344 161 q 328 160 326 163 l 410 74 m 235 -81 l 408 -81 q 416 -78 413 -81 q 419 -71 419 -75 l 429 81 l 418 71 q 506 82 463 74 q 586 107 550 90 q 591 111 589 108 q 593 117 593 114 l 593 314 q 587 324 593 321 q 575 322 581 326 q 493 272 539 293 q 401 251 447 251 q 293 301 333 251 q 253 435 253 350 q 293 569 253 521 q 401 618 333 618 q 493 597 447 618 q 575 547 539 576 q 587 546 581 543 q 593 556 593 549 l 593 753 q 591 758 593 756 q 586 763 589 761 q 526 784 560 776 q 458 796 493 792 l 468 785 l 478 944 q 475 952 478 949 q 467 956 472 956 l 293 956 q 285 953 289 956 q 282 946 282 950 l 271 774 l 279 783 q 96 658 164 750 q 28 435 28 567 q 85 229 28 317 q 242 101 143 142 l 235 111 l 224 -69 q 226 -77 224 -74 q 235 -81 229 -81 m 235 -58 l 246 -69 l 257 111 q 250 121 257 118 q 103 241 157 158 q 50 435 50 324 q 114 644 50 558 q 285 761 178 731 q 290 765 288 763 q 293 771 293 768 l 304 943 l 293 933 l 467 933 l 456 944 l 446 785 q 449 778 446 781 q 456 774 451 775 q 519 762 488 769 q 578 743 551 754 l 571 753 l 571 556 l 589 564 q 501 618 550 596 q 401 640 451 640 q 278 585 325 640 q 231 435 231 531 q 278 284 231 339 q 401 229 325 229 q 501 252 451 229 q 589 306 550 275 l 571 314 l 571 117 l 578 126 q 502 104 543 113 q 418 93 461 96 q 410 90 414 93 q 407 83 407 88 l 397 -68 l 408 -58 l 235 -58 z "}}}
